TrocchiBoldObliqueStencil.ufo
<glyph name="exclam" format="1">
  <advance width="418"/>
  <unicode hex="0021"/>
  <outline>
    <contour>
      <point x="236" y="247" type="line"/>
      <point x="296" y="722" type="line"/>
      <point x="129" y="722" type="line"/>
      <point x="189" y="247" type="line"/>
    </contour>
    <contour>
      <point x="301" y="90" type="curve" smooth="yes"/>
      <point x="301" y="41"/>
      <point x="260" y="0"/>
      <point x="211" y="0" type="curve" smooth="yes"/>
      <point x="162" y="0"/>
      <point x="121" y="41"/>
      <point x="121" y="90" type="curve" smooth="yes"/>
      <point x="121" y="140"/>
      <point x="162" y="180"/>
      <point x="211" y="180" type="curve" smooth="yes"/>
      <point x="260" y="180"/>
      <point x="301" y="140"/>
    </contour>
  </outline>
</glyph>
<glyph name="quotedbl" format="1">
  <advance width="326"/>
  <unicode hex="0022"/>
  <outline>
    <contour>
      <point x="229" y="750" type="curve" smooth="yes"/>
      <point x="194" y="750"/>
      <point x="175" y="729"/>
      <point x="175" y="702" type="curve" smooth="yes"/>
      <point x="175" y="699"/>
      <point x="210" y="450"/>
      <point x="210" y="450" type="curve" smooth="yes"/>
      <point x="212" y="440"/>
      <point x="220" y="435"/>
      <point x="228" y="435" type="curve" smooth="yes"/>
      <point x="236" y="435"/>
      <point x="245" y="440"/>
      <point x="246" y="450" type="curve" smooth="yes"/>
      <point x="246" y="450"/>
      <point x="281" y="699"/>
      <point x="281" y="702" type="curve" smooth="yes"/>
      <point x="281" y="729"/>
      <point x="266" y="750"/>
    </contour>
    <contour>
      <point x="92" y="750" type="curve" smooth="yes"/>
      <point x="57" y="750"/>
      <point x="38" y="729"/>
      <point x="38" y="702" type="curve" smooth="yes"/>
      <point x="38" y="699"/>
      <point x="73" y="450"/>
      <point x="73" y="450" type="curve" smooth="yes"/>
      <point x="75" y="440"/>
      <point x="83" y="435"/>
      <point x="91" y="435" type="curve" smooth="yes"/>
      <point x="99" y="435"/>
      <point x="108" y="440"/>
      <point x="109" y="450" type="curve" smooth="yes"/>
      <point x="109" y="450"/>
      <point x="144" y="699"/>
      <point x="144" y="702" type="curve" smooth="yes"/>
      <point x="144" y="729"/>
      <point x="129" y="750"/>
    </contour>
  </outline>
</glyph>
<glyph name="dollar" format="1">
  <advance width="681"/>
  <unicode hex="0024"/>
  <outline>
    <contour>
      <point x="321" y="810" type="line"/>
      <point x="368" y="811" type="line"/>
      <point x="368" y="-93" type="line"/>
      <point x="321" y="-94" type="line"/>
    </contour>
    <contour>
      <point x="44" y="181" type="curve" smooth="yes"/>
      <point x="44" y="225"/>
      <point x="72" y="277"/>
      <point x="140" y="277" type="curve" smooth="yes"/>
      <point x="188" y="277"/>
      <point x="233" y="240"/>
      <point x="233" y="192" type="curve" smooth="yes"/>
      <point x="233" y="153"/>
      <point x="204" y="114"/>
      <point x="179" y="109" type="curve"/>
      <point x="227" y="84"/>
      <point x="289" y="72"/>
      <point x="338" y="72" type="curve" smooth="yes"/>
      <point x="440" y="72"/>
      <point x="499" y="113"/>
      <point x="499" y="172" type="curve" smooth="yes"/>
      <point x="499" y="225"/>
      <point x="473" y="255"/>
      <point x="307" y="315" type="curve" smooth="yes"/>
      <point x="108" y="387"/>
      <point x="54" y="450"/>
      <point x="52" y="549" type="curve" smooth="yes"/>
      <point x="52" y="552" type="line" smooth="yes"/>
      <point x="52" y="667"/>
      <point x="171" y="757"/>
      <point x="333" y="757" type="curve" smooth="yes"/>
      <point x="442" y="757"/>
      <point x="606" y="718"/>
      <point x="606" y="580" type="curve" smooth="yes"/>
      <point x="606" y="575" type="line" smooth="yes"/>
      <point x="605" y="534"/>
      <point x="586" y="490"/>
      <point x="523" y="490" type="curve" smooth="yes"/>
      <point x="475" y="490"/>
      <point x="433" y="518"/>
      <point x="433" y="566" type="curve" smooth="yes"/>
      <point x="433" y="602"/>
      <point x="457" y="637"/>
      <point x="478" y="648" type="curve"/>
      <point x="452" y="659"/>
      <point x="414" y="665"/>
      <point x="374" y="665" type="curve" smooth="yes"/>
      <point x="290" y="665"/>
      <point x="201" y="649"/>
      <point x="195" y="576" type="curve"/>
      <point x="195" y="531"/>
      <point x="214" y="503"/>
      <point x="350" y="451" type="curve" smooth="yes"/>
      <point x="568" y="368"/>
      <point x="631" y="329"/>
      <point x="638" y="206" type="curve"/>
      <point x="638" y="198" type="line" smooth="yes"/>
      <point x="638" y="86"/>
      <point x="550" y="-13"/>
      <point x="350" y="-13" type="curve" smooth="yes"/>
      <point x="197" y="-13"/>
      <point x="44" y="46"/>
    </contour>
  </outline>
</glyph>
<glyph name="percent" format="1">
  <advance width="893"/>
  <unicode hex="0025"/>
  <outline>
    <contour>
      <point x="122" y="552" type="curve" smooth="yes"/>
      <point x="122" y="612"/>
      <point x="150" y="671"/>
      <point x="219" y="671" type="curve" smooth="yes"/>
      <point x="288" y="671"/>
      <point x="316" y="611"/>
      <point x="316" y="551" type="curve" smooth="yes"/>
      <point x="316" y="488"/>
      <point x="285" y="426"/>
      <point x="220" y="426" type="curve" smooth="yes"/>
      <point x="154" y="426"/>
      <point x="122" y="489"/>
    </contour>
    <contour>
      <point x="23" y="549" type="curve" smooth="yes"/>
      <point x="23" y="455"/>
      <point x="87" y="361"/>
      <point x="220" y="361" type="curve" smooth="yes"/>
      <point x="351" y="361"/>
      <point x="414" y="455"/>
      <point x="414" y="548" type="curve" smooth="yes"/>
      <point x="414" y="643"/>
      <point x="349" y="738"/>
      <point x="219" y="738" type="curve" smooth="yes"/>
      <point x="88" y="738"/>
      <point x="23" y="643"/>
    </contour>
    <contour>
      <point x="489" y="170" type="curve" smooth="yes"/>
      <point x="489" y="76"/>
      <point x="553" y="-18"/>
      <point x="686" y="-18" type="curve" smooth="yes"/>
      <point x="817" y="-18"/>
      <point x="880" y="76"/>
      <point x="880" y="169" type="curve" smooth="yes"/>
      <point x="880" y="264"/>
      <point x="815" y="359"/>
      <point x="685" y="359" type="curve" smooth="yes"/>
      <point x="554" y="359"/>
      <point x="489" y="264"/>
    </contour>
    <contour>
      <point x="588" y="173" type="curve" smooth="yes"/>
      <point x="588" y="233"/>
      <point x="616" y="292"/>
      <point x="685" y="292" type="curve" smooth="yes"/>
      <point x="754" y="292"/>
      <point x="782" y="232"/>
      <point x="782" y="172" type="curve" smooth="yes"/>
      <point x="782" y="109"/>
      <point x="751" y="47"/>
      <point x="686" y="47" type="curve" smooth="yes"/>
      <point x="620" y="47"/>
      <point x="588" y="110"/>
    </contour>
    <contour>
      <point x="665" y="739" type="line"/>
      <point x="156" y="16" type="line"/>
      <point x="224" y="-34" type="line"/>
      <point x="733" y="689" type="line"/>
    </contour>
  </outline>
</glyph>
<glyph name="ampersand" format="1">
  <advance width="884"/>
  <unicode hex="0026"/>
  <outline>
    <contour>
      <point x="649" y="-17" type="curve" smooth="yes"/>
      <point x="585" y="-17"/>
      <point x="532" y="-4"/>
      <point x="460" y="76" type="curve"/>
      <point x="401" y="25"/>
      <point x="342" y="-14"/>
      <point x="251" y="-14" type="curve" smooth="yes"/>
      <point x="126" y="-14"/>
      <point x="39" y="57"/>
      <point x="39" y="165" type="curve" smooth="yes"/>
      <point x="39" y="289"/>
      <point x="99" y="313"/>
      <point x="237" y="404" type="curve"/>
      <point x="200" y="465"/>
      <point x="166" y="533"/>
      <point x="166" y="578" type="curve" smooth="yes"/>
      <point x="166" y="676"/>
      <point x="243" y="737"/>
      <point x="381" y="737" type="curve" smooth="yes"/>
      <point x="471" y="737"/>
      <point x="555" y="681"/>
      <point x="555" y="602" type="curve" smooth="yes"/>
      <point x="555" y="516"/>
      <point x="506" y="462"/>
      <point x="384" y="385" type="curve"/>
      <point x="495" y="226" type="line"/>
      <point x="641" y="401" type="line"/>
      <point x="557" y="401" type="line"/>
      <point x="557" y="478" type="line"/>
      <point x="838" y="478" type="line"/>
      <point x="838" y="401" type="line"/>
      <point x="750" y="401" type="line"/>
      <point x="539" y="151" type="line"/>
      <point x="570" y="99"/>
      <point x="608" y="67"/>
      <point x="644" y="67" type="curve" smooth="yes"/>
      <point x="684" y="67"/>
      <point x="725" y="72"/>
      <point x="725" y="183" type="curve" smooth="yes"/>
      <point x="725" y="253" type="line"/>
      <point x="820" y="253" type="line"/>
      <point x="820" y="192" type="line" smooth="yes"/>
      <point x="820" y="66"/>
      <point x="795" y="-17"/>
    </contour>
    <contour>
      <point x="339" y="460" type="curve"/>
      <point x="403" y="505"/>
      <point x="456" y="527"/>
      <point x="456" y="593" type="curve"/>
      <point x="455" y="640"/>
      <point x="421" y="663"/>
      <point x="381" y="663" type="curve" smooth="yes"/>
      <point x="329" y="663"/>
      <point x="287" y="641"/>
      <point x="287" y="586" type="curve" smooth="yes"/>
      <point x="287" y="545"/>
      <point x="319" y="499"/>
    </contour>
    <contour>
      <point x="276" y="88" type="curve" smooth="yes"/>
      <point x="322" y="88"/>
      <point x="377" y="113"/>
      <point x="408" y="149" type="curve"/>
      <point x="287" y="328" type="line"/>
      <point x="203" y="276"/>
      <point x="173" y="231"/>
      <point x="173" y="190" type="curve" smooth="yes"/>
      <point x="173" y="116"/>
      <point x="223" y="88"/>
    </contour>
  </outline>
</glyph>
<glyph name="parenleft" format="1">
  <advance width="426"/>
  <unicode hex="0028"/>
  <outline>
    <contour>
      <point x="166" y="355" type="curve" smooth="yes"/>
      <point x="166" y="178"/>
      <point x="217" y="12"/>
      <point x="339" y="-11" type="curve"/>
      <point x="339" y="-73" type="line"/>
      <point x="144" y="-54"/>
      <point x="36" y="155"/>
      <point x="36" y="355" type="curve" smooth="yes"/>
      <point x="36" y="554"/>
      <point x="144" y="764"/>
      <point x="339" y="783" type="curve"/>
      <point x="339" y="721" type="line"/>
      <point x="217" y="698"/>
      <point x="166" y="531"/>
    </contour>
  </outline>
</glyph>
<glyph name="asterisk" format="1">
  <advance width="789"/>
  <unicode hex="002A"/>
  <outline>
    <contour>
      <point x="539" y="152" type="line"/>
      <point x="395" y="389" type="line"/>
      <point x="250" y="152" type="line"/>
      <point x="166" y="227" type="line"/>
      <point x="353" y="421" type="line"/>
      <point x="100" y="500" type="line"/>
      <point x="140" y="595" type="line"/>
      <point x="373" y="462" type="line"/>
      <point x="341" y="722" type="line"/>
      <point x="448" y="722" type="line"/>
      <point x="416" y="462" type="line"/>
      <point x="649" y="595" type="line"/>
      <point x="689" y="500" type="line"/>
      <point x="436" y="421" type="line"/>
      <point x="623" y="227" type="line"/>
    </contour>
  </outline>
</glyph>
<glyph name="plus" format="1">
  <advance width="696"/>
  <unicode hex="002B"/>
  <outline>
    <contour>
      <point x="122" y="231" type="line"/>
      <point x="122" y="328" type="line"/>
      <point x="574" y="328" type="line"/>
      <point x="574" y="231" type="line"/>
    </contour>
    <contour>
      <point x="292" y="515" type="line"/>
      <point x="404" y="515" type="line"/>
      <point x="404" y="45" type="line"/>
      <point x="292" y="45" type="line"/>
    </contour>
  </outline>
</glyph>
<glyph name="hyphen" format="1">
  <advance width="406"/>
  <unicode hex="002D"/>
  <outline>
    <contour>
      <point x="345" y="254" type="line"/>
      <point x="61" y="254" type="line"/>
      <point x="61" y="341" type="line"/>
      <point x="345" y="341" type="line"/>
    </contour>
  </outline>
</glyph>
<glyph name="period" format="1">
  <advance width="397"/>
  <unicode hex="002E"/>
  <outline>
    <contour>
      <point x="288" y="90" type="curve" smooth="yes"/>
      <point x="288" y="41"/>
      <point x="247" y="0"/>
      <point x="198" y="0" type="curve" smooth="yes"/>
      <point x="149" y="0"/>
      <point x="108" y="41"/>
      <point x="108" y="90" type="curve" smooth="yes"/>
      <point x="108" y="140"/>
      <point x="149" y="180"/>
      <point x="198" y="180" type="curve" smooth="yes"/>
      <point x="247" y="180"/>
      <point x="288" y="140"/>
    </contour>
  </outline>
</glyph>
<glyph name="slash" format="1">
  <advance width="582"/>
  <unicode hex="002F"/>
  <outline>
    <contour>
      <point x="400" y="791" type="line"/>
      <point x="120" y="-54" type="line"/>
      <point x="216" y="-85" type="line"/>
      <point x="498" y="759" type="line"/>
    </contour>
  </outline>
</glyph>
<glyph name="zero" format="1">
  <advance width="590"/>
  <unicode hex="0030"/>
  <outline>
    <contour>
      <point x="255.801" y="-12.4746" type="curve"/>
      <point x="271.486" y="76.4834" type="line"/>
      <point x="200.376" y="89.0195"/>
      <point x="189.552" y="178.94"/>
      <point x="205.256" y="268" type="curve" smooth="yes"/>
      <point x="220.865" y="356.526"/>
      <point x="262.372" y="444.185"/>
      <point x="338.355" y="455.72" type="curve"/>
      <point x="352.783" y="537.544" type="line"/>
      <point x="202.549" y="529.442"/>
      <point x="106.065" y="414.376"/>
      <point x="79.5508" y="264" type="curve" smooth="yes"/>
      <point x="53.0938" y="113.96"/>
      <point x="109.126" y="-3.7041"/>
    </contour>
    <contour>
      <point x="293.826" y="-12.3311" type="line"/>
      <point x="441.446" y="-2.41016"/>
      <point x="537.559" y="116.594"/>
      <point x="563.551" y="264" type="curve" smooth="yes"/>
      <point x="589.827" y="413.022"/>
      <point x="535.16" y="527.369"/>
      <point x="390.74" y="537.299" type="curve"/>
      <point x="376.224" y="454.972" type="line"/>
      <point x="444.59" y="440.652"/>
      <point x="454.213" y="352.826"/>
      <point x="438.727" y="265" type="curve" smooth="yes"/>
      <point x="423.331" y="177.689"/>
      <point x="383.44" y="90.3779"/>
      <point x="309.545" y="76.8164" type="curve"/>
    </contour>
  </outline>
</glyph>
<glyph name="one" format="1">
  <advance width="406"/>
  <unicode hex="0031"/>
  <outline>
    <contour>
      <point x="42" y="0" type="line"/>
      <point x="57.3408" y="87" type="line"/>
      <point x="131.341" y="87" type="line"/>
      <point x="116" y="0" type="line"/>
    </contour>
    <contour>
      <point x="332.341" y="87" type="line"/>
      <point x="393.341" y="87" type="line"/>
      <point x="378" y="0" type="line"/>
      <point x="317" y="0" type="line"/>
    </contour>
    <contour>
      <point x="225.941" y="408" type="line"/>
      <point x="116.183" y="364" type="line"/>
      <point x="101.876" y="453" type="line"/>
      <point x="298.396" y="524" type="line"/>
      <point x="371.396" y="524" type="line"/>
      <point x="279" y="0" type="line"/>
      <point x="154" y="0" type="line"/>
    </contour>
  </outline>
</glyph>
<glyph name="two" format="1">
  <advance width="596"/>
  <unicode hex="0032"/>
  <outline>
    <contour>
      <point x="489.894" y="-80" type="line"/>
      <point x="437.012" y="-85" type="line"/>
      <point x="419.864" y="-38" type="line"/>
      <point x="492.772" y="-38" type="line"/>
    </contour>
    <contour>
      <point x="495.377" y="0" type="line"/>
      <point x="70" y="0" type="line"/>
      <point x="70" y="0"/>
      <point x="78.1035" y="97"/>
      <point x="77.1035" y="97" type="curve" smooth="yes"/>
      <point x="77.1035" y="97"/>
      <point x="311.964" y="255"/>
      <point x="325.551" y="264" type="curve" smooth="yes"/>
      <point x="390.133" y="307"/>
      <point x="418.069" y="335"/>
      <point x="426.533" y="383" type="curve" smooth="yes"/>
      <point x="434.82" y="430"/>
      <point x="400.932" y="476"/>
      <point x="336.932" y="476" type="curve" smooth="yes"/>
      <point x="297.932" y="476"/>
      <point x="256.581" y="457"/>
      <point x="226.645" y="429" type="curve"/>
      <point x="246.586" y="423"/>
      <point x="272.06" y="403"/>
      <point x="265.889" y="368" type="curve" smooth="yes"/>
      <point x="257.072" y="318"/>
      <point x="219.312" y="291"/>
      <point x="175.312" y="291" type="curve" smooth="yes"/>
      <point x="118.312" y="291"/>
      <point x="102.774" y="339"/>
      <point x="108.299" y="376" type="curve"/>
      <point x="108.828" y="379" type="line" smooth="yes"/>
      <point x="122.935" y="459"/>
      <point x="241.217" y="540"/>
      <point x="369.217" y="540" type="curve" smooth="yes"/>
      <point x="489.217" y="540"/>
      <point x="567.461" y="479"/>
      <point x="546.654" y="361" type="curve" smooth="yes"/>
      <point x="536.427" y="303"/>
      <point x="505.495" y="241"/>
      <point x="374.799" y="169" type="curve"/>
      <point x="234.341" y="87" type="line"/>
      <point x="501.341" y="87" type="line"/>
    </contour>
  </outline>
</glyph>
<glyph name="three" format="1">
  <advance width="580"/>
  <unicode hex="0033"/>
  <outline>
    <contour>
      <point x="200.728" y="-149" type="curve" smooth="yes"/>
      <point x="191.728" y="-149" type="line" smooth="yes"/>
      <point x="99.7275" y="-149"/>
      <point x="28.4277" y="-111"/>
      <point x="36.2412" y="-44" type="curve"/>
      <point x="43.1182" y="-5"/>
      <point x="68.585" y="26"/>
      <point x="117.585" y="26" type="curve" smooth="yes"/>
      <point x="160.585" y="26"/>
      <point x="178.236" y="-10"/>
      <point x="172.595" y="-42" type="curve" smooth="yes"/>
      <point x="170.479" y="-54"/>
      <point x="164.833" y="-69"/>
      <point x="161.246" y="-78" type="curve"/>
      <point x="283.246" y="-78"/>
      <point x="388.002" y="-17"/>
      <point x="401.403" y="59" type="curve" smooth="yes"/>
      <point x="402.461" y="65" type="line"/>
      <point x="410.454" y="116"/>
      <point x="386.681" y="174"/>
      <point x="289.681" y="174" type="curve" smooth="yes"/>
      <point x="275.681" y="174"/>
      <point x="251.328" y="172"/>
      <point x="233.799" y="169" type="curve"/>
      <point x="234.258" y="251" type="line"/>
      <point x="331.432" y="269"/>
      <point x="399.898" y="300"/>
      <point x="413.889" y="368" type="curve" smooth="yes"/>
      <point x="414.064" y="369"/>
      <point x="414.241" y="370"/>
      <point x="414.417" y="371" type="curve" smooth="yes"/>
      <point x="423.939" y="425"/>
      <point x="385.402" y="473"/>
      <point x="327.402" y="473" type="curve" smooth="yes"/>
      <point x="292.402" y="473"/>
      <point x="249.935" y="459"/>
      <point x="209.645" y="429" type="curve"/>
      <point x="231.468" y="428"/>
      <point x="257.178" y="398"/>
      <point x="251.183" y="364" type="curve" smooth="yes"/>
      <point x="243.777" y="322"/>
      <point x="209.487" y="292"/>
      <point x="167.487" y="292" type="curve" smooth="yes"/>
      <point x="113.487" y="292"/>
      <point x="90.2461" y="336"/>
      <point x="96.417" y="371" type="curve" smooth="yes"/>
      <point x="115.637" y="480"/>
      <point x="219.04" y="539"/>
      <point x="346.04" y="539" type="curve" smooth="yes"/>
      <point x="489.04" y="539"/>
      <point x="542.11" y="460"/>
      <point x="530.533" y="383" type="curve"/>
      <point x="529.828" y="379" type="line" smooth="yes"/>
      <point x="518.014" y="312"/>
      <point x="469.669" y="259"/>
      <point x="379.789" y="237" type="curve"/>
      <point x="501.497" y="224"/>
      <point x="542.625" y="151"/>
      <point x="527.285" y="64" type="curve" smooth="yes"/>
      <point x="506.302" y="-55"/>
      <point x="372.609" y="-144"/>
    </contour>
  </outline>
</glyph>
<glyph name="four" format="1">
  <advance width="587"/>
  <unicode hex="0034"/>
  <outline>
    <contour>
      <point x="487.635" y="83" type="line"/>
      <point x="473" y="0" type="line"/>
      <point x="540" y="0" type="line"/>
      <point x="563.635" y="83" type="line"/>
    </contour>
    <contour>
      <point x="522.488" y="-122" type="line"/>
      <point x="451.488" y="-122" type="line"/>
      <point x="439.674" y="-189" type="line"/>
      <point x="510.674" y="-189" type="line"/>
    </contour>
    <contour>
      <point x="287.635" y="83" type="move"/>
    </contour>
    <contour>
      <point x="380.649" y="395" type="line"/>
      <point x="160.635" y="83" type="line"/>
      <point x="287.635" y="83" type="line"/>
      <point x="273" y="0" type="line"/>
      <point x="49" y="0" type="line"/>
      <point x="42.1064" y="80" type="line"/>
      <point x="382.63" y="531" type="line"/>
      <point x="525.984" y="516" type="line"/>
      <point x="401.674" y="-189" type="line"/>
      <point x="277.674" y="-189" type="line"/>
    </contour>
    <contour>
      <point x="239.674" y="-189" type="line"/>
      <point x="251.488" y="-122" type="line"/>
      <point x="175.488" y="-122" type="line"/>
      <point x="163.674" y="-189" type="line"/>
    </contour>
  </outline>
</glyph>
<glyph name="five" format="1">
  <advance width="579"/>
  <unicode hex="0035"/>
  <outline>
    <contour>
      <point x="194.728" y="-149" type="curve"/>
      <point x="103.728" y="-149"/>
      <point x="24.251" y="-112"/>
      <point x="36.0654" y="-45" type="curve" smooth="yes"/>
      <point x="42.9424" y="-6"/>
      <point x="67.585" y="26"/>
      <point x="116.585" y="26" type="curve" smooth="yes"/>
      <point x="159.585" y="26"/>
      <point x="178.59" y="-8"/>
      <point x="172.595" y="-42" type="curve" smooth="yes"/>
      <point x="169.067" y="-62"/>
      <point x="166.187" y="-67"/>
      <point x="161.246" y="-78" type="curve"/>
      <point x="278.246" y="-78"/>
      <point x="378.944" y="-23"/>
      <point x="395.167" y="69" type="curve" smooth="yes"/>
      <point x="396.754" y="78" type="line"/>
      <point x="408.149" y="188"/>
      <point x="328.969" y="221"/>
      <point x="221.969" y="221" type="curve" smooth="yes"/>
      <point x="200.969" y="221"/>
      <point x="160.263" y="217"/>
      <point x="138.734" y="214" type="curve"/>
      <point x="115.905" y="249" type="line"/>
      <point x="204.396" y="524" type="line"/>
      <point x="538.396" y="524" type="line"/>
      <point x="491.763" y="424" type="line"/>
      <point x="271.763" y="424" type="line"/>
      <point x="227.427" y="303" type="line"/>
      <point x="253.956" y="306"/>
      <point x="255.133" y="307"/>
      <point x="278.133" y="307" type="curve" smooth="yes"/>
      <point x="469.133" y="307"/>
      <point x="536.971" y="204"/>
      <point x="527.28" y="98" type="curve" smooth="yes"/>
      <point x="527.046" y="91"/>
      <point x="525.812" y="84"/>
      <point x="524.754" y="78" type="curve" smooth="yes"/>
      <point x="501.654" y="-53"/>
      <point x="380.785" y="-143"/>
    </contour>
  </outline>
</glyph>
<glyph name="six" format="1">
  <advance width="721"/>
  <unicode hex="0036"/>
  <outline>
    <contour>
      <point x="359.341" y="87" type="curve"/>
      <point x="460.341" y="87"/>
      <point x="509.567" y="145"/>
      <point x="523.85" y="226" type="curve" smooth="yes"/>
      <point x="541.482" y="326"/>
      <point x="509.712" y="367"/>
      <point x="422.712" y="367" type="curve" smooth="yes"/>
      <point x="394.429" y="366.218"/>
      <point x="370.003" y="361.311"/>
      <point x="348.766" y="353.233" type="curve"/>
      <point x="353.526" y="390.145"/>
      <point x="360.181" y="426.435"/>
      <point x="365.374" y="452.348" type="curve"/>
      <point x="393.002" y="462.545"/>
      <point x="425.814" y="468"/>
      <point x="465.521" y="468" type="curve" smooth="yes"/>
      <point x="597.992" y="465"/>
      <point x="678.241" y="370"/>
      <point x="654.437" y="235" type="curve" smooth="yes"/>
      <point x="632.22" y="109"/>
      <point x="514.884" y="-12"/>
      <point x="354.884" y="-12" type="curve" smooth="yes"/>
      <point x="346.884" y="-12" type="line"/>
      <point x="214.413" y="-9"/>
      <point x="86.459" y="82"/>
      <point x="129.482" y="326" type="curve" smooth="yes"/>
      <point x="172.153" y="568"/>
      <point x="306.953" y="737"/>
      <point x="488.953" y="737" type="curve" smooth="yes"/>
      <point x="602.953" y="737"/>
      <point x="688.255" y="682"/>
      <point x="673.796" y="600" type="curve" smooth="yes"/>
      <point x="663.745" y="543"/>
      <point x="631.69" y="520"/>
      <point x="573.69" y="520" type="curve" smooth="yes"/>
      <point x="529.69" y="520"/>
      <point x="512.156" y="551"/>
      <point x="508.446" y="581" type="curve" smooth="yes"/>
      <point x="508.327" y="586"/>
      <point x="508.209" y="591"/>
      <point x="509.091" y="596" type="curve" smooth="yes"/>
      <point x="513.322" y="620"/>
      <point x="530.73" y="645"/>
      <point x="544.847" y="657" type="curve"/>
      <point x="531.376" y="660"/>
      <point x="517.729" y="662"/>
      <point x="505.729" y="662" type="curve" smooth="yes"/>
      <point x="340.488" y="662"/>
      <point x="289.662" y="405.491"/>
      <point x="288.608" y="400.087" type="curve" smooth="yes"/>
      <point x="279.326" y="363.103"/>
      <point x="267.002" y="307.186"/>
      <point x="262.416" y="255.481" type="curve"/>
      <point x="248.874" y="152.213"/>
      <point x="286.501" y="88.9004"/>
    </contour>
  </outline>
</glyph>
<glyph name="seven" format="1">
  <advance width="579"/>
  <unicode hex="0037"/>
  <outline>
    <contour>
      <point x="560.289" y="444" type="line"/>
      <point x="202.906" y="-165" type="line" smooth="yes"/>
      <point x="180.029" y="-204"/>
      <point x="148.208" y="-220"/>
      <point x="120.208" y="-220" type="curve" smooth="yes"/>
      <point x="88.208" y="-220"/>
      <point x="63.2637" y="-197"/>
      <point x="70.4932" y="-156" type="curve" smooth="yes"/>
      <point x="73.3145" y="-140"/>
      <point x="80.6641" y="-121"/>
      <point x="95.5439" y="-99" type="curve" smooth="yes"/>
      <point x="462.171" y="449" type="line"/>
      <point x="127.171" y="449" type="line"/>
      <point x="140.396" y="524" type="line"/>
      <point x="541.396" y="524" type="line"/>
    </contour>
    <contour>
      <point x="216.471" y="411" type="line"/>
      <point x="197.251" y="302" type="line"/>
      <point x="101.251" y="302" type="line"/>
      <point x="120.471" y="411" type="line"/>
    </contour>
  </outline>
</glyph>
<glyph name="eight" format="1">
  <advance width="673"/>
  <unicode hex="0038"/>
  <outline>
    <contour>
      <point x="478.815" y="382.391" type="curve"/>
      <point x="454.835" y="397.368"/>
      <point x="426.834" y="413.81"/>
      <point x="403.67" y="427.88" type="curve" smooth="yes"/>
      <point x="403.39" y="427.765"/>
      <point x="403.11" y="427.649"/>
      <point x="402.832" y="427.535" type="curve" smooth="yes"/>
      <point x="335.776" y="467.479"/>
      <point x="281.277" y="506.316"/>
      <point x="291.272" y="563" type="curve" smooth="yes"/>
      <point x="301.676" y="622"/>
      <point x="349.258" y="665"/>
      <point x="420.258" y="665" type="curve" smooth="yes"/>
      <point x="502.258" y="665"/>
      <point x="539.499" y="621"/>
      <point x="529.272" y="563" type="curve" smooth="yes"/>
      <point x="520.443" y="512.929"/>
      <point x="488.689" y="478.438"/>
      <point x="454.867" y="455.279" type="curve"/>
      <point x="478.347" y="443.352"/>
      <point x="512.351" y="425.898"/>
      <point x="537.389" y="412.305" type="curve"/>
      <point x="588.221" y="443.554"/>
      <point x="637.484" y="490.479"/>
      <point x="649.391" y="558" type="curve" smooth="yes"/>
      <point x="666.671" y="656"/>
      <point x="582.953" y="737"/>
      <point x="444.953" y="737" type="curve" smooth="yes"/>
      <point x="301.953" y="737"/>
      <point x="196.315" y="671"/>
      <point x="178.153" y="568" type="curve" smooth="yes"/>
      <point x="161.248" y="472.124"/>
      <point x="220.6" y="413.027"/>
      <point x="288.336" y="367.863" type="curve"/>
      <point x="288.164" y="367.813"/>
      <point x="287.992" y="367.764"/>
      <point x="287.819" y="367.713" type="curve"/>
      <point x="309.734" y="352.762"/>
      <point x="332.4" y="338.762"/>
      <point x="355.008" y="324.65" type="curve" smooth="yes"/>
      <point x="355.223" y="324.713"/>
      <point x="355.438" y="324.774"/>
      <point x="355.651" y="324.836" type="curve" smooth="yes"/>
      <point x="417.437" y="286.82"/>
      <point x="489.418" y="240.562"/>
      <point x="477.152" y="171" type="curve" smooth="yes"/>
      <point x="465.162" y="103"/>
      <point x="399.695" y="72"/>
      <point x="324.695" y="72" type="curve" smooth="yes"/>
      <point x="236.695" y="72"/>
      <point x="195.043" y="108"/>
      <point x="208.268" y="183" type="curve" smooth="yes"/>
      <point x="217.471" y="235.189"/>
      <point x="248.271" y="269.444"/>
      <point x="282.073" y="291.834" type="curve"/>
      <point x="258.976" y="310.967"/>
      <point x="238.462" y="330.345"/>
      <point x="224.712" y="343.874" type="curve"/>
      <point x="161.428" y="314.027"/>
      <point x="87.6797" y="259.065"/>
      <point x="70.5654" y="162" type="curve" smooth="yes"/>
      <point x="51.874" y="56"/>
      <point x="156.708" y="-13"/>
      <point x="309.708" y="-13" type="curve" smooth="yes"/>
      <point x="464.708" y="-13"/>
      <point x="593.403" y="59"/>
      <point x="613.152" y="171" type="curve" smooth="yes"/>
      <point x="613.857" y="175" type="line"/>
      <point x="628.466" y="273.343"/>
      <point x="556.226" y="334.699"/>
      <point x="478.538" y="382.273" type="curve"/>
      <point x="478.631" y="382.312"/>
      <point x="478.723" y="382.352"/>
    </contour>
  </outline>
</glyph>
<glyph name="nine" format="1">
  <advance width="709"/>
  <unicode hex="0039"/>
  <outline>
    <contour>
      <point x="288.531" y="-14" type="curve" smooth="yes"/>
      <point x="173.531" y="-14"/>
      <point x="94.6982" y="55"/>
      <point x="108.451" y="133" type="curve" smooth="yes"/>
      <point x="118.502" y="190"/>
      <point x="152.85" y="226"/>
      <point x="210.85" y="226" type="curve" smooth="yes"/>
      <point x="261.85" y="226"/>
      <point x="280.62" y="185"/>
      <point x="274.449" y="150" type="curve" smooth="yes"/>
      <point x="269.512" y="122"/>
      <point x="257.162" y="103"/>
      <point x="245.398" y="93" type="curve"/>
      <point x="268.282" y="81"/>
      <point x="289.4" y="76"/>
      <point x="309.4" y="76" type="curve" smooth="yes"/>
      <point x="411.792" y="76"/>
      <point x="472.604" y="218.71"/>
      <point x="497.535" y="293.881" type="curve" smooth="yes"/>
      <point x="497.911" y="294.028"/>
      <point x="533.216" y="401.378"/>
      <point x="534.208" y="468.236" type="curve"/>
      <point x="547.855" y="571.672"/>
      <point x="510.227" y="635.098"/>
      <point x="437.32" y="637" type="curve"/>
      <point x="337.32" y="637"/>
      <point x="286.388" y="575"/>
      <point x="274.397" y="507" type="curve" smooth="yes"/>
      <point x="274.397" y="507"/>
      <point x="274.222" y="506"/>
      <point x="274.045" y="505" type="curve" smooth="yes"/>
      <point x="261.468" y="428"/>
      <point x="290.476" y="377"/>
      <point x="377.476" y="377" type="curve" smooth="yes"/>
      <point x="408.874" y="377.868"/>
      <point x="437.47" y="384.197"/>
      <point x="461.349" y="392.556" type="curve"/>
      <point x="453.916" y="353.574"/>
      <point x="443.881" y="314.192"/>
      <point x="437.487" y="290.438" type="curve"/>
      <point x="409.437" y="280.698"/>
      <point x="375.866" y="276"/>
      <point x="334.666" y="276" type="curve" smooth="yes"/>
      <point x="213.666" y="276"/>
      <point x="126.654" y="361"/>
      <point x="143.458" y="496" type="curve"/>
      <point x="145.574" y="508" type="line" smooth="yes"/>
      <point x="166.91" y="629"/>
      <point x="286.776" y="736"/>
      <point x="441.776" y="736" type="curve" smooth="yes"/>
      <point x="449.776" y="736" type="line"/>
      <point x="582.248" y="733"/>
      <point x="710.202" y="642"/>
      <point x="667.178" y="398" type="curve" smooth="yes"/>
      <point x="622.92" y="147"/>
      <point x="471.531" y="-14"/>
    </contour>
  </outline>
</glyph>
<glyph name="colon" format="1">
  <advance width="397"/>
  <unicode hex="003A"/>
  <outline>
    <contour>
      <point x="364.526" y="434" type="curve" smooth="yes"/>
      <point x="355.886" y="385"/>
      <point x="307.656" y="344"/>
      <point x="258.656" y="344" type="curve" smooth="yes"/>
      <point x="209.656" y="344"/>
      <point x="175.886" y="385"/>
      <point x="184.526" y="434" type="curve" smooth="yes"/>
      <point x="193.342" y="484"/>
      <point x="241.396" y="524"/>
      <point x="290.396" y="524" type="curve" smooth="yes"/>
      <point x="339.396" y="524"/>
      <point x="373.342" y="484"/>
    </contour>
    <contour>
      <point x="303.869" y="90" type="curve" smooth="yes"/>
      <point x="295.229" y="41"/>
      <point x="247" y="0"/>
      <point x="198" y="0" type="curve" smooth="yes"/>
      <point x="149" y="0"/>
      <point x="115.229" y="41"/>
      <point x="123.869" y="90" type="curve" smooth="yes"/>
      <point x="132.686" y="140"/>
      <point x="180.739" y="180"/>
      <point x="229.739" y="180" type="curve" smooth="yes"/>
      <point x="278.739" y="180"/>
      <point x="312.686" y="140"/>
    </contour>
  </outline>
</glyph>
<glyph name="semicolon" format="1">
  <advance width="397"/>
  <unicode hex="003B"/>
  <outline>
    <contour>
      <point x="364.526" y="434" type="curve" smooth="yes"/>
      <point x="355.886" y="385"/>
      <point x="307.656" y="344"/>
      <point x="258.656" y="344" type="curve" smooth="yes"/>
      <point x="209.656" y="344"/>
      <point x="175.886" y="385"/>
      <point x="184.526" y="434" type="curve" smooth="yes"/>
      <point x="193.342" y="484"/>
      <point x="241.396" y="524"/>
      <point x="290.396" y="524" type="curve" smooth="yes"/>
      <point x="339.396" y="524"/>
      <point x="373.342" y="484"/>
    </contour>
    <contour>
      <point x="143.659" y="-87" type="curve"/>
      <point x="164.254" y="-129" type="line"/>
      <point x="165.43" y="-128"/>
      <point x="167.783" y="-126"/>
      <point x="170.959" y="-125" type="curve" smooth="yes"/>
      <point x="254.775" y="-75"/>
      <point x="292.531" y="-14"/>
      <point x="301.524" y="37" type="curve" smooth="yes"/>
      <point x="315.277" y="115"/>
      <point x="267.272" y="149"/>
      <point x="220.272" y="149" type="curve" smooth="yes"/>
      <point x="165.272" y="149"/>
      <point x="132.396" y="110"/>
      <point x="125.695" y="72" type="curve" smooth="yes"/>
      <point x="119.172" y="35"/>
      <point x="136" y="0"/>
      <point x="180" y="0" type="curve" smooth="yes"/>
      <point x="198" y="0"/>
      <point x="218.234" y="7"/>
      <point x="230.703" y="21" type="curve"/>
      <point x="232.998" y="17"/>
      <point x="231.705" y="4"/>
      <point x="230.471" y="-3" type="curve" smooth="yes"/>
      <point x="225.182" y="-33"/>
      <point x="177.657" y="-70"/>
    </contour>
  </outline>
</glyph>
<glyph name="equal" format="1">
  <advance width="503"/>
  <unicode hex="003D"/>
  <outline>
    <contour>
      <point x="89.8477" y="243" type="line"/>
      <point x="77.1523" y="171" type="line"/>
      <point x="436.152" y="171" type="line"/>
      <point x="448.848" y="243" type="line"/>
    </contour>
    <contour>
      <point x="122.292" y="427" type="line"/>
      <point x="109.596" y="355" type="line"/>
      <point x="468.596" y="355" type="line"/>
      <point x="481.292" y="427" type="line"/>
    </contour>
  </outline>
</glyph>
<glyph name="greater" format="1">
  <advance width="450"/>
  <unicode hex="003E"/>
  <outline>
    <contour>
      <point x="435" y="391" type="line"/>
      <point x="435" y="295" type="line"/>
      <point x="44" y="126" type="line"/>
      <point x="44" y="219" type="line"/>
      <point x="326" y="349" type="line"/>
      <point x="44" y="483" type="line"/>
      <point x="44" y="574" type="line"/>
    </contour>
  </outline>
</glyph>
<glyph name="question" format="1">
  <advance width="602"/>
  <unicode hex="003F"/>
  <outline>
    <contour>
      <point x="295.676" y="208" type="curve"/>
      <point x="253.676" y="208" type="line"/>
      <point x="284.886" y="385"/>
      <point x="434.466" y="445"/>
      <point x="453.686" y="554" type="curve" smooth="yes"/>
      <point x="469.907" y="646"/>
      <point x="410.081" y="664"/>
      <point x="358.081" y="664" type="curve" smooth="yes"/>
      <point x="318.081" y="664"/>
      <point x="266.437" y="649"/>
      <point x="241.207" y="608" type="curve"/>
      <point x="270.207" y="608"/>
      <point x="319.562" y="593"/>
      <point x="309.512" y="536" type="curve" smooth="yes"/>
      <point x="301.048" y="488"/>
      <point x="262.053" y="454"/>
      <point x="216.053" y="454" type="curve" smooth="yes"/>
      <point x="155.053" y="454"/>
      <point x="130.517" y="502"/>
      <point x="135.393" y="541" type="curve"/>
      <point x="137.156" y="551" type="line" smooth="yes"/>
      <point x="158.139" y="670"/>
      <point x="284.953" y="737"/>
      <point x="396.953" y="737" type="curve" smooth="yes"/>
      <point x="492.953" y="737"/>
      <point x="621.192" y="710"/>
      <point x="596.156" y="551" type="curve" smooth="yes"/>
      <point x="595.979" y="550"/>
      <point x="595.804" y="549"/>
      <point x="595.627" y="548" type="curve" smooth="yes"/>
      <point x="570.412" y="405"/>
      <point x="355.659" y="327"/>
    </contour>
    <contour>
      <point x="333.343" y="70" type="curve" smooth="yes"/>
      <point x="325.761" y="27"/>
      <point x="281.236" y="-10"/>
      <point x="238.236" y="-10" type="curve" smooth="yes"/>
      <point x="194.236" y="-10"/>
      <point x="164.761" y="27"/>
      <point x="172.343" y="70" type="curve" smooth="yes"/>
      <point x="180.102" y="114"/>
      <point x="222.625" y="151"/>
      <point x="266.625" y="151" type="curve" smooth="yes"/>
      <point x="309.625" y="151"/>
      <point x="341.102" y="114"/>
    </contour>
  </outline>
</glyph>
<glyph name="at" format="1">
  <advance width="847"/>
  <unicode hex="0040"/>
  <outline>
    <contour>
      <point x="301" y="316" type="curve" smooth="yes"/>
      <point x="296" y="240"/>
      <point x="327" y="214"/>
      <point x="367" y="214" type="curve" smooth="yes"/>
      <point x="416" y="214"/>
      <point x="481" y="304"/>
      <point x="492" y="352" type="curve" smooth="yes"/>
      <point x="492" y="353"/>
      <point x="512" y="462"/>
      <point x="513" y="469" type="curve"/>
      <point x="513" y="469"/>
      <point x="475" y="525"/>
      <point x="440" y="525" type="curve" smooth="yes"/>
      <point x="365" y="525"/>
      <point x="307" y="411"/>
    </contour>
    <contour>
      <point x="729" y="389" type="curve" smooth="yes"/>
      <point x="729" y="552"/>
      <point x="622" y="684"/>
      <point x="459" y="684" type="curve" smooth="yes"/>
      <point x="257" y="684"/>
      <point x="121" y="516"/>
      <point x="121" y="322" type="curve" smooth="yes"/>
      <point x="121" y="175"/>
      <point x="228" y="50"/>
      <point x="429" y="50" type="curve" smooth="yes"/>
      <point x="496" y="50"/>
      <point x="592" y="69"/>
      <point x="649" y="104" type="curve"/>
      <point x="679" y="55" type="line"/>
      <point x="612" y="11"/>
      <point x="501" y="-15"/>
      <point x="420" y="-15" type="curve" smooth="yes"/>
      <point x="176" y="-15"/>
      <point x="29" y="140"/>
      <point x="29" y="335" type="curve" smooth="yes"/>
      <point x="29" y="561"/>
      <point x="212" y="750"/>
      <point x="455" y="750" type="curve" smooth="yes"/>
      <point x="697" y="750"/>
      <point x="818" y="561"/>
      <point x="818" y="388" type="curve" smooth="yes"/>
      <point x="818" y="257"/>
      <point x="727" y="139"/>
      <point x="599" y="139" type="curve" smooth="yes"/>
      <point x="530" y="139"/>
      <point x="495" y="180"/>
      <point x="490" y="267" type="curve"/>
      <point x="459" y="196"/>
      <point x="391" y="151"/>
      <point x="335" y="148" type="curve" smooth="yes"/>
      <point x="276" y="145"/>
      <point x="205" y="196"/>
      <point x="205" y="305" type="curve" smooth="yes"/>
      <point x="205" y="437"/>
      <point x="317" y="592"/>
      <point x="446" y="592" type="curve" smooth="yes"/>
      <point x="473" y="592"/>
      <point x="532" y="519"/>
      <point x="532" y="519" type="curve"/>
      <point x="532" y="519"/>
      <point x="545" y="556"/>
      <point x="549" y="568" type="curve"/>
      <point x="637" y="568" type="line"/>
      <point x="634" y="550"/>
      <point x="570" y="265"/>
      <point x="570" y="243" type="curve" smooth="yes"/>
      <point x="570" y="207"/>
      <point x="580" y="184"/>
      <point x="611" y="184" type="curve" smooth="yes"/>
      <point x="648" y="184"/>
      <point x="729" y="247"/>
    </contour>
  </outline>
</glyph>
<glyph name="A" format="1">
  <advance width="809"/>
  <unicode hex="0041"/>
  <outline>
    <contour>
      <point x="256" y="87" type="line"/>
      <point x="213" y="0" type="line"/>
      <point x="308" y="0" type="line"/>
      <point x="323" y="87" type="line"/>
    </contour>
    <contour>
      <point x="717" y="0" type="line"/>
      <point x="565" y="0" type="line"/>
      <point x="537" y="248" type="line"/>
      <point x="297" y="248" type="line"/>
      <point x="176" y="0" type="line"/>
      <point x="82" y="0" type="line"/>
      <point x="454" y="742" type="line"/>
      <point x="615" y="742" type="line"/>
    </contour>
    <contour>
      <point x="12" y="0" type="line"/>
      <point x="44" y="0" type="line"/>
      <point x="88" y="87" type="line"/>
      <point x="27" y="87" type="line"/>
    </contour>
    <contour>
      <point x="528" y="324" type="line"/>
      <point x="492" y="648" type="line"/>
      <point x="334" y="324" type="line"/>
    </contour>
    <contour>
      <point x="743" y="87" type="line"/>
      <point x="793" y="87" type="line"/>
      <point x="777" y="0" type="line"/>
      <point x="755" y="0" type="line"/>
    </contour>
    <contour>
      <point x="528" y="0" type="line"/>
      <point x="439" y="0" type="line"/>
      <point x="454" y="87" type="line"/>
      <point x="518" y="87" type="line"/>
    </contour>
  </outline>
</glyph>
<glyph name="B" format="1">
  <advance width="834"/>
  <unicode hex="0042"/>
  <outline>
    <contour>
      <point x="101" y="0" type="line"/>
      <point x="116.517" y="88" type="line"/>
      <point x="35.5166" y="88" type="line"/>
      <point x="20" y="0" type="line"/>
    </contour>
    <contour>
      <point x="215.965" y="652" type="line"/>
      <point x="231.835" y="742" type="line"/>
      <point x="150.835" y="742" type="line"/>
      <point x="134.965" y="652" type="line"/>
    </contour>
    <contour>
      <point x="284" y="0" type="line"/>
      <point x="139" y="0" type="line"/>
      <point x="269.835" y="742" type="line"/>
      <point x="511.835" y="742" type="line" smooth="yes"/>
      <point x="624.835" y="742"/>
      <point x="806.192" y="710"/>
      <point x="762.217" y="540" type="curve" smooth="yes"/>
      <point x="743.345" y="467"/>
      <point x="686.881" y="419"/>
      <point x="601.825" y="396" type="curve"/>
      <point x="700.064" y="369"/>
      <point x="761.838" y="311"/>
      <point x="743.5" y="207" type="curve" smooth="yes"/>
      <point x="709.821" y="16"/>
      <point x="510" y="0"/>
      <point x="381" y="0" type="curve" smooth="yes"/>
      <point x="323" y="0" type="line"/>
      <point x="338.51" y="87.959" type="line"/>
      <point x="466.62" y="88.0449"/>
      <point x="568.566" y="93.9531"/>
      <point x="589.734" y="214" type="curve" smooth="yes"/>
      <point x="608.072" y="318"/>
      <point x="522.656" y="344"/>
      <point x="423.656" y="344" type="curve" smooth="yes"/>
      <point x="383.656" y="344" type="line"/>
      <point x="399.526" y="434" type="line"/>
      <point x="439.526" y="434" type="line" smooth="yes"/>
      <point x="518.526" y="434"/>
      <point x="591.347" y="450"/>
      <point x="606.512" y="536" type="curve" smooth="yes"/>
      <point x="628.023" y="658"/>
      <point x="523.789" y="651"/>
      <point x="398.965" y="652" type="curve"/>
    </contour>
    <contour>
      <point x="399.526" y="434" type="move"/>
    </contour>
  </outline>
</glyph>
<glyph name="C" format="1">
  <advance width="818"/>
  <unicode hex="0043"/>
  <outline>
    <contour>
      <point x="752.551" y="264" type="line"/>
      <point x="697.398" y="93"/>
      <point x="574.708" y="-13"/>
      <point x="388.708" y="-13" type="curve" smooth="yes"/>
      <point x="171.708" y="-13"/>
      <point x="73.9756" y="170"/>
      <point x="110.828" y="379" type="curve" smooth="yes"/>
      <point x="145.035" y="573"/>
      <point x="323.479" y="757"/>
      <point x="538.479" y="757" type="curve" smooth="yes"/>
      <point x="660.479" y="757"/>
      <point x="792.607" y="684"/>
      <point x="765.806" y="532" type="curve" smooth="yes"/>
      <point x="758.576" y="491"/>
      <point x="716.76" y="441"/>
      <point x="653.76" y="441" type="curve" smooth="yes"/>
      <point x="607.76" y="441"/>
      <point x="578.168" y="466"/>
      <point x="583.279" y="512" type="curve"/>
      <point x="584.514" y="519" type="line" smooth="yes"/>
      <point x="594.388" y="575"/>
      <point x="646.268" y="597"/>
      <point x="677.268" y="597" type="curve"/>
      <point x="657.32" y="637"/>
      <point x="617.729" y="662"/>
      <point x="535.905" y="663" type="curve" smooth="yes"/>
      <point x="391.258" y="665"/>
      <point x="299.279" y="512"/>
      <point x="275.476" y="377" type="curve" smooth="yes"/>
      <point x="250.437" y="235"/>
      <point x="295.869" y="90"/>
      <point x="441.869" y="90" type="curve" smooth="yes"/>
      <point x="567.869" y="90"/>
      <point x="627.268" y="183"/>
      <point x="662.551" y="264" type="curve"/>
    </contour>
    <contour>
      <point x="655.263" y="627" type="move"/>
    </contour>
  </outline>
</glyph>
<glyph name="D" format="1">
  <advance width="897"/>
  <unicode hex="0044"/>
  <outline>
    <contour>
      <point x="101" y="0" type="line"/>
      <point x="116.341" y="87" type="line"/>
      <point x="35.3408" y="87" type="line"/>
      <point x="20" y="0" type="line"/>
    </contour>
    <contour>
      <point x="269.835" y="742" type="line"/>
      <point x="388.835" y="742" type="line" smooth="yes"/>
      <point x="639.835" y="742"/>
      <point x="900.019" y="692"/>
      <point x="842.536" y="366" type="curve" smooth="yes"/>
      <point x="793.721" y="89.1562"/>
      <point x="569.399" y="7.80859"/>
      <point x="322.097" y="0.548828" type="curve"/>
      <point x="337.467" y="87.7188" type="line"/>
      <point x="494.86" y="93.9238"/>
      <point x="648.325" y="143.624"/>
      <point x="686.83" y="362" type="curve" smooth="yes"/>
      <point x="731.97" y="618"/>
      <point x="566.789" y="651"/>
      <point x="398.789" y="651" type="curve"/>
      <point x="284" y="0" type="line"/>
      <point x="139" y="0" type="line"/>
    </contour>
    <contour>
      <point x="134.965" y="652" type="line"/>
      <point x="215.965" y="652" type="line"/>
      <point x="231.835" y="742" type="line"/>
      <point x="150.835" y="742" type="line"/>
    </contour>
  </outline>
</glyph>
<glyph name="E" format="1">
  <advance width="874"/>
  <unicode hex="0045"/>
  <outline>
    <contour>
      <point x="215.965" y="652" type="line"/>
      <point x="231.835" y="742" type="line"/>
      <point x="150.835" y="742" type="line"/>
      <point x="134.965" y="652" type="line"/>
    </contour>
    <contour>
      <point x="743.341" y="87" type="line"/>
      <point x="728" y="0" type="line"/>
      <point x="139" y="0" type="line"/>
      <point x="269.835" y="742" type="line"/>
      <point x="858.835" y="742" type="line"/>
      <point x="842.965" y="652" type="line"/>
      <point x="398.965" y="652" type="line"/>
      <point x="357.528" y="417" type="line"/>
      <point x="587.528" y="417" type="line"/>
      <point x="574.128" y="341" type="line"/>
      <point x="344.128" y="341" type="line"/>
      <point x="299.341" y="87" type="line"/>
    </contour>
    <contour>
      <point x="20" y="0" type="line"/>
      <point x="101" y="0" type="line"/>
      <point x="116.341" y="87" type="line"/>
      <point x="35.3408" y="87" type="line"/>
    </contour>
    <contour>
      <point x="836.265" y="614" type="line"/>
      <point x="808.935" y="459" type="line"/>
      <point x="688.935" y="459" type="line"/>
      <point x="716.265" y="614" type="line"/>
    </contour>
    <contour>
      <point x="630.041" y="125" type="line"/>
      <point x="657.195" y="279" type="line"/>
      <point x="777.195" y="279" type="line"/>
      <point x="750.041" y="125" type="line"/>
    </contour>
    <contour>
      <point x="567.427" y="303" type="line"/>
      <point x="552.263" y="217" type="line"/>
      <point x="467.263" y="217" type="line"/>
      <point x="482.427" y="303" type="line"/>
    </contour>
    <contour>
      <point x="509.229" y="455" type="line"/>
      <point x="520.161" y="517" type="line"/>
      <point x="605.161" y="517" type="line"/>
      <point x="594.229" y="455" type="line"/>
    </contour>
  </outline>
</glyph>
<glyph name="F" format="1">
  <advance width="860"/>
  <unicode hex="0046"/>
  <outline>
    <contour>
      <point x="20" y="0" type="line"/>
      <point x="35.3408" y="87" type="line"/>
      <point x="116.341" y="87" type="line"/>
      <point x="101" y="0" type="line"/>
    </contour>
    <contour>
      <point x="284" y="0" type="line"/>
      <point x="139" y="0" type="line"/>
      <point x="269.835" y="742" type="line"/>
      <point x="839.835" y="742" type="line"/>
      <point x="823.965" y="652" type="line"/>
      <point x="398.965" y="652" type="line"/>
      <point x="360.173" y="432" type="line"/>
      <point x="603.173" y="432" type="line"/>
      <point x="589.772" y="356" type="line"/>
      <point x="346.772" y="356" type="line"/>
    </contour>
    <contour>
      <point x="817.265" y="614" type="line"/>
      <point x="790.815" y="464" type="line"/>
      <point x="670.815" y="464" type="line"/>
      <point x="697.265" y="614" type="line"/>
    </contour>
    <contour>
      <point x="524.874" y="470" type="line"/>
      <point x="536.335" y="535" type="line"/>
      <point x="621.335" y="535" type="line"/>
      <point x="609.874" y="470" type="line"/>
    </contour>
    <contour>
      <point x="583.072" y="318" type="line"/>
      <point x="567.908" y="232" type="line"/>
      <point x="482.908" y="232" type="line"/>
      <point x="498.072" y="318" type="line"/>
    </contour>
    <contour>
      <point x="215.965" y="652" type="line"/>
      <point x="134.965" y="652" type="line"/>
      <point x="150.835" y="742" type="line"/>
      <point x="231.835" y="742" type="line"/>
    </contour>
    <contour>
      <point x="337.341" y="87" type="line"/>
      <point x="426.341" y="87" type="line"/>
      <point x="411" y="0" type="line"/>
      <point x="322" y="0" type="line"/>
    </contour>
  </outline>
</glyph>
<glyph name="G" format="1">
  <advance width="889"/>
  <unicode hex="0047"/>
  <outline>
    <contour>
      <point x="863.369" y="297" type="line"/>
      <point x="876.417" y="371" type="line"/>
      <point x="515.417" y="371" type="line"/>
      <point x="502.369" y="297" type="line"/>
    </contour>
    <contour>
      <point x="650.272" y="61.0469" type="line"/>
      <point x="753.739" y="214.03" type="line"/>
      <point x="717.058" y="6" type="line"/>
      <point x="658.058" y="6" type="line"/>
    </contour>
    <contour>
      <point x="741.669" y="259" type="line"/>
      <point x="642.925" y="113" type="line" smooth="yes"/>
      <point x="588.818" y="33"/>
      <point x="517.708" y="-13"/>
      <point x="402.708" y="-13" type="curve" smooth="yes"/>
      <point x="391.708" y="-13" type="line"/>
      <point x="160.236" y="-10"/>
      <point x="76.6201" y="185"/>
      <point x="109.241" y="370" type="curve" smooth="yes"/>
      <point x="143.978" y="567"/>
      <point x="322.127" y="755"/>
      <point x="557.479" y="757" type="curve" smooth="yes"/>
      <point x="560.479" y="757" type="line" smooth="yes"/>
      <point x="689.479" y="757"/>
      <point x="840.194" y="693"/>
      <point x="817.096" y="562" type="curve" smooth="yes"/>
      <point x="809.866" y="521"/>
      <point x="771.227" y="472"/>
      <point x="708.227" y="472" type="curve" smooth="yes"/>
      <point x="662.227" y="472"/>
      <point x="630.163" y="500"/>
      <point x="635.274" y="546" type="curve"/>
      <point x="636.509" y="553" type="line" smooth="yes"/>
      <point x="642.504" y="587"/>
      <point x="677.146" y="619"/>
      <point x="701.557" y="627" type="curve"/>
      <point x="667.612" y="650"/>
      <point x="619.905" y="663"/>
      <point x="577.905" y="663" type="curve" smooth="yes"/>
      <point x="572.905" y="663" type="line"/>
      <point x="428.376" y="660"/>
      <point x="305.274" y="546"/>
      <point x="274.946" y="374" type="curve" smooth="yes"/>
      <point x="247.615" y="219"/>
      <point x="289.869" y="90"/>
      <point x="437.869" y="90" type="curve" smooth="yes"/>
      <point x="444.869" y="90" type="line"/>
      <point x="525.222" y="92"/>
      <point x="598.154" y="154"/>
      <point x="619.439" y="218" type="curve"/>
      <point x="626.669" y="259" type="line"/>
    </contour>
  </outline>
</glyph>
<glyph name="H" format="1">
  <advance width="980"/>
  <unicode hex="0048"/>
  <outline>
    <contour>
      <point x="713" y="0" type="line"/>
      <point x="568" y="0" type="line"/>
      <point x="629.891" y="351" type="line"/>
      <point x="345.891" y="351" type="line"/>
      <point x="284" y="0" type="line"/>
      <point x="139" y="0" type="line"/>
      <point x="269.835" y="742" type="line"/>
      <point x="414.835" y="742" type="line"/>
      <point x="359.292" y="427" type="line"/>
      <point x="643.292" y="427" type="line"/>
      <point x="698.835" y="742" type="line"/>
      <point x="843.835" y="742" type="line"/>
    </contour>
    <contour>
      <point x="215.965" y="652" type="line"/>
      <point x="134.965" y="652" type="line"/>
      <point x="150.835" y="742" type="line"/>
      <point x="231.835" y="742" type="line"/>
    </contour>
    <contour>
      <point x="452.835" y="742" type="line"/>
      <point x="526.835" y="742" type="line"/>
      <point x="510.965" y="652" type="line"/>
      <point x="436.965" y="652" type="line"/>
    </contour>
    <contour>
      <point x="644.965" y="652" type="line"/>
      <point x="569.965" y="652" type="line"/>
      <point x="585.835" y="742" type="line"/>
      <point x="660.835" y="742" type="line"/>
    </contour>
    <contour>
      <point x="881.835" y="742" type="line"/>
      <point x="962.835" y="742" type="line"/>
      <point x="946.965" y="652" type="line"/>
      <point x="865.965" y="652" type="line"/>
    </contour>
    <contour>
      <point x="101" y="0" type="line"/>
      <point x="20" y="0" type="line"/>
      <point x="35.3408" y="87" type="line"/>
      <point x="116.341" y="87" type="line"/>
    </contour>
    <contour>
      <point x="337.341" y="87" type="line"/>
      <point x="411.341" y="87" type="line"/>
      <point x="396" y="0" type="line"/>
      <point x="322" y="0" type="line"/>
    </contour>
    <contour>
      <point x="530" y="0" type="line"/>
      <point x="455" y="0" type="line"/>
      <point x="470.341" y="87" type="line"/>
      <point x="545.341" y="87" type="line"/>
    </contour>
    <contour>
      <point x="766.341" y="87" type="line"/>
      <point x="847.341" y="87" type="line"/>
      <point x="832" y="0" type="line"/>
      <point x="751" y="0" type="line"/>
    </contour>
  </outline>
</glyph>
<glyph name="I" format="1">
  <advance width="550"/>
  <unicode hex="0049"/>
  <outline>
    <contour>
      <point x="441.965" y="652" type="line"/>
      <point x="515.965" y="652" type="line"/>
      <point x="531.835" y="742" type="line"/>
      <point x="457.835" y="742" type="line"/>
    </contour>
    <contour>
      <point x="419.835" y="742" type="line"/>
      <point x="274.835" y="742" type="line"/>
      <point x="144" y="0" type="line"/>
      <point x="289" y="0" type="line"/>
    </contour>
    <contour>
      <point x="236.835" y="742" type="line"/>
      <point x="155.835" y="742" type="line"/>
      <point x="139.965" y="652" type="line"/>
      <point x="220.965" y="652" type="line"/>
    </contour>
    <contour>
      <point x="327" y="0" type="line"/>
      <point x="401" y="0" type="line"/>
      <point x="416.341" y="87" type="line"/>
      <point x="342.341" y="87" type="line"/>
    </contour>
    <contour>
      <point x="121.341" y="87" type="line"/>
      <point x="40.3408" y="87" type="line"/>
      <point x="25" y="0" type="line"/>
      <point x="106" y="0" type="line"/>
    </contour>
  </outline>
</glyph>
<glyph name="J" format="1">
  <advance width="715"/>
  <unicode hex="004A"/>
  <outline>
    <contour>
      <point x="503.671" y="242" type="line" smooth="yes"/>
      <point x="481.807" y="118"/>
      <point x="442.72" y="-98"/>
      <point x="201.72" y="-98" type="curve" smooth="yes"/>
      <point x="78.7197" y="-98"/>
      <point x="13.002" y="-17"/>
      <point x="30.1064" y="80" type="curve" smooth="yes"/>
      <point x="43.3311" y="155"/>
      <point x="101.502" y="190"/>
      <point x="150.502" y="190" type="curve" smooth="yes"/>
      <point x="194.502" y="190"/>
      <point x="232.389" y="161"/>
      <point x="222.867" y="107" type="curve" smooth="yes"/>
      <point x="211.053" y="40"/>
      <point x="155.287" y="47"/>
      <point x="150.879" y="22" type="curve" smooth="yes"/>
      <point x="146.471" y="-3"/>
      <point x="176.944" y="-23"/>
      <point x="209.944" y="-23" type="curve" smooth="yes"/>
      <point x="309.944" y="-23"/>
      <point x="328.695" y="72"/>
      <point x="349.502" y="190" type="curve" smooth="yes"/>
      <point x="446.835" y="742" type="line"/>
      <point x="591.835" y="742" type="line"/>
    </contour>
    <contour>
      <point x="392.965" y="652" type="line"/>
      <point x="290.965" y="652" type="line"/>
      <point x="306.835" y="742" type="line"/>
      <point x="408.835" y="742" type="line"/>
    </contour>
    <contour>
      <point x="629.835" y="742" type="line"/>
      <point x="698.835" y="742" type="line"/>
      <point x="682.965" y="652" type="line" smooth="yes"/>
      <point x="682.859" y="651.402"/>
      <point x="644.64" y="651.52"/>
      <point x="613.914" y="651.71" type="curve"/>
    </contour>
  </outline>
</glyph>
<glyph name="K" format="1">
  <advance width="968"/>
  <unicode hex="004B"/>
  <outline>
    <contour>
      <point x="231.835" y="742" type="line"/>
      <point x="150.835" y="742" type="line"/>
      <point x="134.965" y="652" type="line"/>
      <point x="215.965" y="652" type="line"/>
    </contour>
    <contour>
      <point x="444.625" y="446.021" type="line"/>
      <point x="422.908" y="428.437"/>
      <point x="406.407" y="415.026"/>
      <point x="399.118" y="409" type="curve" smooth="yes"/>
      <point x="393.412" y="405"/>
      <point x="356.417" y="371"/>
      <point x="349.064" y="369" type="curve"/>
      <point x="414.835" y="742" type="line"/>
      <point x="269.835" y="742" type="line"/>
      <point x="139" y="0" type="line"/>
      <point x="284" y="0" type="line"/>
      <point x="329.669" y="259" type="line"/>
      <point x="447.186" y="347" type="line"/>
      <point x="630.69" y="0" type="line"/>
      <point x="801.923" y="0" type="line"/>
      <point x="556.352" y="416" type="line"/>
      <point x="945.763" y="742" type="line"/>
      <point x="811.335" y="742" type="line"/>
    </contour>
    <contour>
      <point x="116.341" y="87" type="line"/>
      <point x="35.3408" y="87" type="line"/>
      <point x="20" y="0" type="line"/>
      <point x="101" y="0" type="line"/>
    </contour>
    <contour>
      <point x="322" y="0" type="line"/>
      <point x="387" y="0" type="line"/>
      <point x="402.341" y="87" type="line"/>
      <point x="337.341" y="87" type="line"/>
    </contour>
    <contour>
      <point x="436.965" y="652" type="line"/>
      <point x="501.965" y="652" type="line"/>
      <point x="517.835" y="742" type="line"/>
      <point x="452.835" y="742" type="line"/>
    </contour>
    <contour>
      <point x="892.487" y="652" type="line"/>
      <point x="941.965" y="652" type="line"/>
      <point x="950.534" y="700.595" type="line"/>
    </contour>
    <contour>
      <point x="755.89" y="742" type="line"/>
      <point x="604.835" y="742" type="line"/>
      <point x="588.965" y="652" type="line"/>
      <point x="644.395" y="652" type="line"/>
    </contour>
    <contour>
      <point x="584.107" y="0" type="line"/>
      <point x="537.757" y="87" type="line"/>
      <point x="485.341" y="87" type="line"/>
      <point x="470" y="0" type="line"/>
    </contour>
    <contour>
      <point x="841.49" y="14.125" type="line"/>
      <point x="854.341" y="87" type="line"/>
      <point x="798.283" y="87" type="line"/>
    </contour>
  </outline>
</glyph>
<glyph name="L" format="1">
  <advance width="731"/>
  <unicode hex="004C"/>
  <outline>
    <contour>
      <point x="672.341" y="87" type="line"/>
      <point x="657" y="0" type="line" smooth="yes"/>
      <point x="656.872" y="-0.723633"/>
      <point x="323.286" y="-0.399414"/>
      <point x="138.971" y="-0.166016" type="curve"/>
      <point x="269.835" y="742" type="line"/>
      <point x="414.835" y="742" type="line"/>
      <point x="299.341" y="87" type="line"/>
    </contour>
    <contour>
      <point x="215.965" y="652" type="line"/>
      <point x="134.965" y="652" type="line"/>
      <point x="150.835" y="742" type="line"/>
      <point x="231.835" y="742" type="line"/>
    </contour>
    <contour>
      <point x="452.835" y="742" type="line"/>
      <point x="540.835" y="742" type="line"/>
      <point x="524.965" y="652" type="line"/>
      <point x="436.965" y="652" type="line"/>
    </contour>
    <contour>
      <point x="100.979" y="-0.116211" type="line"/>
      <point x="51.71" y="-0.0498047"/>
      <point x="20" y="0"/>
      <point x="20" y="0" type="curve" smooth="yes"/>
      <point x="35.3408" y="87" type="line"/>
      <point x="116.341" y="87" type="line"/>
    </contour>
    <contour>
      <point x="573.041" y="125" type="line"/>
      <point x="608.307" y="325" type="line"/>
      <point x="714.307" y="325" type="line"/>
      <point x="679.041" y="125" type="line"/>
    </contour>
  </outline>
</glyph>
<glyph name="M" format="1">
  <advance width="1174"/>
  <unicode hex="004D"/>
  <outline>
    <contour>
      <point x="889" y="0" type="line"/>
      <point x="745" y="0" type="line"/>
      <point x="857.497" y="638" type="line"/>
      <point x="571.046" y="91" type="line" smooth="yes"/>
      <point x="559.167" y="69"/>
      <point x="543.58" y="60"/>
      <point x="530.58" y="60" type="curve" smooth="yes"/>
      <point x="513.58" y="60"/>
      <point x="499.872" y="73"/>
      <point x="496.517" y="88" type="curve" smooth="yes"/>
      <point x="380.907" y="646" type="line"/>
      <point x="267" y="0" type="line"/>
      <point x="157" y="0" type="line"/>
      <point x="287.835" y="742" type="line"/>
      <point x="510.835" y="742" type="line"/>
      <point x="587.838" y="311" type="line"/>
      <point x="806.835" y="742" type="line"/>
      <point x="1019.83" y="742" type="line"/>
    </contour>
    <contour>
      <point x="233.965" y="652" type="line"/>
      <point x="134.965" y="652" type="line"/>
      <point x="150.835" y="742" type="line"/>
      <point x="249.835" y="742" type="line"/>
    </contour>
    <contour>
      <point x="119" y="0" type="line"/>
      <point x="29" y="0" type="line"/>
      <point x="44.3408" y="87" type="line"/>
      <point x="134.341" y="87" type="line"/>
    </contour>
    <contour>
      <point x="1057.83" y="742" type="line"/>
      <point x="1156.83" y="742" type="line"/>
      <point x="1140.96" y="652" type="line"/>
      <point x="1041.96" y="652" type="line"/>
    </contour>
    <contour>
      <point x="942.341" y="87" type="line"/>
      <point x="1048.34" y="87" type="line"/>
      <point x="1033" y="0" type="line"/>
      <point x="927" y="0" type="line"/>
    </contour>
    <contour>
      <point x="707" y="0" type="line"/>
      <point x="638" y="0" type="line"/>
      <point x="653.341" y="87" type="line"/>
      <point x="722.341" y="87" type="line"/>
    </contour>
    <contour>
      <point x="305" y="0" type="line"/>
      <point x="320.341" y="87" type="line"/>
      <point x="405.341" y="87" type="line"/>
      <point x="390" y="0" type="line"/>
    </contour>
  </outline>
</glyph>
<glyph name="N" format="1">
  <advance width="995"/>
  <unicode hex="004E"/>
  <outline>
    <contour>
      <point x="367.341" y="87" type="line"/>
      <point x="352" y="0" type="line"/>
      <point x="278" y="0" type="line"/>
      <point x="293.341" y="87" type="line"/>
    </contour>
    <contour>
      <point x="240" y="0" type="line"/>
      <point x="138" y="0" type="line"/>
      <point x="268.835" y="742" type="line"/>
      <point x="446.835" y="742" type="line"/>
      <point x="673.439" y="218" type="line"/>
      <point x="765.835" y="742" type="line"/>
      <point x="865.835" y="742" type="line"/>
      <point x="735" y="0" type="line"/>
      <point x="605" y="0" type="line"/>
      <point x="346.148" y="602" type="line"/>
    </contour>
    <contour>
      <point x="214.965" y="652" type="line"/>
      <point x="134.965" y="652" type="line"/>
      <point x="150.835" y="742" type="line"/>
      <point x="230.835" y="742" type="line"/>
    </contour>
    <contour>
      <point x="100" y="0" type="line"/>
      <point x="20" y="0" type="line"/>
      <point x="35.3408" y="87" type="line"/>
      <point x="115.341" y="87" type="line"/>
    </contour>
    <contour>
      <point x="711.965" y="652" type="line"/>
      <point x="625.965" y="652" type="line"/>
      <point x="641.835" y="742" type="line"/>
      <point x="727.835" y="742" type="line"/>
    </contour>
    <contour>
      <point x="903.835" y="742" type="line"/>
      <point x="977.835" y="742" type="line"/>
      <point x="961.965" y="652" type="line"/>
      <point x="887.965" y="652" type="line"/>
    </contour>
  </outline>
</glyph>
<glyph name="O" format="1">
  <advance width="867"/>
  <unicode hex="004F"/>
  <outline>
    <contour>
      <point x="510.729" y="662" type="curve"/>
      <point x="634.199" y="659"/>
      <point x="674.75" y="509"/>
      <point x="650.241" y="370" type="curve" smooth="yes"/>
      <point x="626.708" y="236.539"/>
      <point x="541.006" y="95.8066"/>
      <point x="425.627" y="82.9521" type="curve"/>
      <point x="408.771" y="-12.6445" type="line"/>
      <point x="632.108" y="-3.30469"/>
      <point x="777.261" y="188.629"/>
      <point x="809.594" y="372" type="curve" smooth="yes"/>
      <point x="842.566" y="559"/>
      <point x="760.479" y="757"/>
      <point x="527.479" y="757" type="curve" smooth="yes"/>
      <point x="293.479" y="757"/>
      <point x="142.566" y="559"/>
      <point x="109.594" y="372" type="curve" smooth="yes"/>
      <point x="77.4512" y="189.711"/>
      <point x="152.876" y="-1.03906"/>
      <point x="370.803" y="-12.46" type="curve"/>
      <point x="387.721" y="83.4824" type="line"/>
      <point x="279.974" y="99.3672"/>
      <point x="245.34" y="240.12"/>
      <point x="268.594" y="372" type="curve" smooth="yes"/>
      <point x="293.279" y="512"/>
      <point x="386.729" y="662"/>
    </contour>
  </outline>
</glyph>
<glyph name="P" format="1">
  <advance width="840"/>
  <unicode hex="0050"/>
  <outline>
    <contour>
      <point x="337.341" y="87" type="line"/>
      <point x="322" y="0" type="line"/>
      <point x="406" y="0" type="line"/>
      <point x="421.341" y="87" type="line"/>
    </contour>
    <contour>
      <point x="101" y="0" type="line"/>
      <point x="116.341" y="87" type="line"/>
      <point x="35.3408" y="87" type="line"/>
      <point x="20" y="0" type="line"/>
    </contour>
    <contour>
      <point x="284" y="0" type="line"/>
      <point x="139" y="0" type="line"/>
      <point x="269.835" y="742" type="line"/>
      <point x="506.835" y="742" type="line" smooth="yes"/>
      <point x="623.835" y="742"/>
      <point x="804.661" y="724"/>
      <point x="770.982" y="533" type="curve" smooth="yes"/>
      <point x="737.128" y="341"/>
      <point x="553.659" y="327"/>
      <point x="386.659" y="327" type="curve" smooth="yes"/>
      <point x="379.659" y="327" type="line"/>
      <point x="393.589" y="406" type="line"/>
      <point x="409.589" y="406" type="line" smooth="yes"/>
      <point x="503.589" y="406"/>
      <point x="595.352" y="416"/>
      <point x="615.277" y="529" type="curve" smooth="yes"/>
      <point x="638.729" y="662"/>
      <point x="529.789" y="651"/>
      <point x="398.965" y="652" type="curve"/>
    </contour>
    <contour>
      <point x="393.589" y="406" type="move"/>
    </contour>
    <contour>
      <point x="134.965" y="652" type="line"/>
      <point x="215.965" y="652" type="line"/>
      <point x="231.835" y="742" type="line"/>
      <point x="150.835" y="742" type="line"/>
    </contour>
  </outline>
</glyph>
<glyph name="Q" format="1">
  <advance width="910"/>
  <unicode hex="0051"/>
  <outline>
    <contour>
      <point x="268.594" y="372" type="curve" smooth="yes"/>
      <point x="253.779" y="287.982"/>
      <point x="261.593" y="214.011"/>
      <point x="292.429" y="161.949" type="curve"/>
      <point x="278.221" y="144.531"/>
      <point x="233.162" y="93.1865"/>
      <point x="230.509" y="28.6396" type="curve"/>
      <point x="121.23" y="96.376"/>
      <point x="85.7061" y="236.524"/>
      <point x="109.594" y="372" type="curve" smooth="yes"/>
      <point x="142.566" y="559"/>
      <point x="293.479" y="757"/>
      <point x="527.479" y="757" type="curve" smooth="yes"/>
      <point x="760.479" y="757"/>
      <point x="842.566" y="559"/>
      <point x="809.594" y="372" type="curve" smooth="yes"/>
      <point x="791.373" y="268.665"/>
      <point x="737.654" y="163.43"/>
      <point x="654.155" y="88.7188" type="curve"/>
      <point x="653.693" y="89" type="line"/>
      <point x="602.683" y="38.9424"/>
      <point x="538.886" y="13.2432"/>
      <point x="492.821" y="0.336914" type="curve" smooth="yes"/>
      <point x="461.067" y="-8.24902"/>
      <point x="427.156" y="-13"/>
      <point x="391.708" y="-13" type="curve" smooth="yes"/>
      <point x="354.907" y="-13"/>
      <point x="321.885" y="-8.12793"/>
      <point x="292.49" y="0.81543" type="curve"/>
      <point x="292.496" y="18.333"/>
      <point x="295.892" y="63.0371"/>
      <point x="326.222" y="111.756" type="curve"/>
      <point x="347.807" y="93.0547"/>
      <point x="375.019" y="82"/>
      <point x="408.459" y="82" type="curve" smooth="yes"/>
      <point x="435.459" y="82"/>
      <point x="460.693" y="89"/>
      <point x="483.809" y="101" type="curve"/>
      <point x="461.918" y="164"/>
      <point x="441.792" y="220"/>
      <point x="387.792" y="220" type="curve" smooth="yes"/>
      <point x="368.116" y="220"/>
      <point x="350.15" y="212.348"/>
      <point x="334.765" y="201.979" type="curve"/>
      <point x="323.454" y="223.79"/>
      <point x="317.173" y="244.916"/>
      <point x="313.715" y="260.652" type="curve"/>
      <point x="338.036" y="278.336"/>
      <point x="370.021" y="293.244"/>
      <point x="410.192" y="296" type="curve"/>
      <point x="424.192" y="296" type="line" smooth="yes"/>
      <point x="506.192" y="296"/>
      <point x="549.905" y="249"/>
      <point x="582.561" y="196" type="curve"/>
      <point x="615.553" y="247"/>
      <point x="639.485" y="309"/>
      <point x="650.241" y="370" type="curve" smooth="yes"/>
      <point x="674.75" y="509"/>
      <point x="634.199" y="659"/>
      <point x="510.729" y="662" type="curve"/>
      <point x="386.729" y="662"/>
      <point x="293.279" y="512"/>
    </contour>
    <contour>
      <point x="688.366" y="48.3066" type="curve"/>
      <point x="696.639" y="44.876"/>
      <point x="705.652" y="43"/>
      <point x="715.582" y="43" type="curve" smooth="yes"/>
      <point x="754.582" y="43"/>
      <point x="788.93" y="79"/>
      <point x="801.272" y="149" type="curve" smooth="yes"/>
      <point x="806.739" y="180" type="line"/>
      <point x="865.739" y="180" type="line"/>
      <point x="860.272" y="149" type="line" smooth="yes"/>
      <point x="828.005" y="-34"/>
      <point x="748.423" y="-77"/>
      <point x="654.423" y="-77" type="curve" smooth="yes"/>
      <point x="612.129" y="-77"/>
      <point x="581.708" y="-63.4932"/>
      <point x="558.438" y="-41.9932" type="curve"/>
      <point x="601.535" y="-20.5762"/>
      <point x="651.448" y="9.69336"/>
    </contour>
  </outline>
</glyph>
<glyph name="R" format="1">
  <advance width="852"/>
  <unicode hex="0052"/>
  <outline>
    <contour>
      <point x="337.341" y="87" type="line"/>
      <point x="322" y="0" type="line"/>
      <point x="396" y="0" type="line"/>
      <point x="411.341" y="87" type="line"/>
    </contour>
    <contour>
      <point x="215.965" y="652" type="line"/>
      <point x="231.835" y="742" type="line"/>
      <point x="150.835" y="742" type="line"/>
      <point x="134.965" y="652" type="line"/>
    </contour>
    <contour>
      <point x="101" y="0" type="line"/>
      <point x="116.341" y="87" type="line"/>
      <point x="35.3408" y="87" type="line"/>
      <point x="20" y="0" type="line"/>
    </contour>
    <contour>
      <point x="284" y="0" type="line"/>
      <point x="139" y="0" type="line"/>
      <point x="269.835" y="742" type="line"/>
      <point x="478.835" y="742" type="line" smooth="yes"/>
      <point x="624.835" y="742"/>
      <point x="822.424" y="734"/>
      <point x="787.864" y="538" type="curve" smooth="yes"/>
      <point x="766.528" y="417"/>
      <point x="692.946" y="374"/>
      <point x="595.243" y="353" type="curve"/>
      <point x="724.959" y="289"/>
      <point x="612.225" y="75"/>
      <point x="686.225" y="75" type="curve" smooth="yes"/>
      <point x="728.225" y="75"/>
      <point x="744.746" y="129"/>
      <point x="755.502" y="190" type="curve" smooth="yes"/>
      <point x="766.787" y="254" type="line"/>
      <point x="831.787" y="254" type="line"/>
      <point x="820.679" y="191" type="line"/>
      <point x="787.056" y="23"/>
      <point x="734.355" y="-15"/>
      <point x="644.355" y="-15" type="curve" smooth="yes"/>
      <point x="640.355" y="-15" type="line"/>
      <point x="561.531" y="-14"/>
      <point x="487.41" y="8"/>
      <point x="510.323" y="206" type="curve" smooth="yes"/>
      <point x="521.251" y="302"/>
      <point x="499.599" y="338"/>
      <point x="483.951" y="340" type="curve" smooth="yes"/>
      <point x="480.374" y="340"/>
      <point x="477.456" y="339.2"/>
      <point x="381.654" y="338.316" type="curve"/>
      <point x="396.067" y="420.056" type="line"/>
      <point x="540.132" y="420.712"/>
      <point x="609.674" y="429.168"/>
      <point x="628.864" y="538" type="curve" smooth="yes"/>
      <point x="646.673" y="639"/>
      <point x="586.789" y="651"/>
      <point x="456.789" y="651" type="curve" smooth="yes"/>
      <point x="398.789" y="651" type="line"/>
    </contour>
  </outline>
</glyph>
<glyph name="S" format="1">
  <advance width="771"/>
  <unicode hex="0053"/>
  <outline>
    <contour>
      <point x="75.915" y="181" type="curve" smooth="yes"/>
      <point x="83.6738" y="225"/>
      <point x="120.843" y="277"/>
      <point x="188.843" y="277" type="curve" smooth="yes"/>
      <point x="236.843" y="277"/>
      <point x="275.318" y="240"/>
      <point x="266.854" y="192" type="curve" smooth="yes"/>
      <point x="259.979" y="153"/>
      <point x="224.102" y="114"/>
      <point x="198.22" y="109" type="curve"/>
      <point x="241.812" y="84"/>
      <point x="301.695" y="72"/>
      <point x="350.695" y="72" type="curve" smooth="yes"/>
      <point x="452.695" y="72"/>
      <point x="518.925" y="113"/>
      <point x="529.328" y="172" type="curve" smooth="yes"/>
      <point x="538.674" y="225"/>
      <point x="517.964" y="255"/>
      <point x="362.543" y="315" type="curve" smooth="yes"/>
      <point x="176.238" y="387"/>
      <point x="133.347" y="450"/>
      <point x="148.804" y="549" type="curve" smooth="yes"/>
      <point x="148.979" y="550"/>
      <point x="149.156" y="551"/>
      <point x="149.332" y="552" type="curve" smooth="yes"/>
      <point x="169.61" y="667"/>
      <point x="304.479" y="757"/>
      <point x="466.479" y="757" type="curve" smooth="yes"/>
      <point x="575.479" y="757"/>
      <point x="732.603" y="718"/>
      <point x="708.27" y="580" type="curve" smooth="yes"/>
      <point x="707.388" y="575" type="line"/>
      <point x="699.158" y="534"/>
      <point x="672.4" y="490"/>
      <point x="609.4" y="490" type="curve" smooth="yes"/>
      <point x="561.4" y="490"/>
      <point x="524.337" y="518"/>
      <point x="532.801" y="566" type="curve" smooth="yes"/>
      <point x="539.148" y="602"/>
      <point x="569.32" y="637"/>
      <point x="592.26" y="648" type="curve"/>
      <point x="568.199" y="659"/>
      <point x="531.258" y="665"/>
      <point x="491.258" y="665" type="curve" smooth="yes"/>
      <point x="407.258" y="665"/>
      <point x="315.437" y="649"/>
      <point x="296.564" y="576" type="curve"/>
      <point x="288.63" y="531"/>
      <point x="302.692" y="503"/>
      <point x="429.523" y="451" type="curve" smooth="yes"/>
      <point x="632.889" y="368"/>
      <point x="689.012" y="329"/>
      <point x="674.323" y="206" type="curve"/>
      <point x="672.913" y="198" type="line" smooth="yes"/>
      <point x="653.164" y="86"/>
      <point x="547.708" y="-13"/>
      <point x="347.708" y="-13" type="curve" smooth="yes"/>
      <point x="194.708" y="-13"/>
      <point x="52.1113" y="46"/>
    </contour>
  </outline>
</glyph>
<glyph name="T" format="1">
  <advance width="871"/>
  <unicode hex="0054"/>
  <outline>
    <contour>
      <point x="184" y="0" type="line"/>
      <point x="199.341" y="87" type="line"/>
      <point x="280.341" y="87" type="line"/>
      <point x="265" y="0" type="line"/>
    </contour>
    <contour>
      <point x="303" y="0" type="line"/>
      <point x="420.081" y="664" type="line"/>
      <point x="144.081" y="664" type="line"/>
      <point x="157.835" y="742" type="line"/>
      <point x="854.835" y="742" type="line"/>
      <point x="841.081" y="664" type="line"/>
      <point x="565.081" y="664" type="line"/>
      <point x="448" y="0" type="line"/>
    </contour>
    <contour>
      <point x="501.341" y="87" type="line"/>
      <point x="575.341" y="87" type="line"/>
      <point x="560" y="0" type="line"/>
      <point x="486" y="0" type="line"/>
    </contour>
    <contour>
      <point x="834.381" y="626" type="line"/>
      <point x="803.876" y="453" type="line"/>
      <point x="692.876" y="453" type="line"/>
      <point x="723.381" y="626" type="line"/>
    </contour>
    <contour>
      <point x="248.381" y="626" type="line"/>
      <point x="217.876" y="453" type="line"/>
      <point x="106.876" y="453" type="line"/>
      <point x="137.381" y="626" type="line"/>
    </contour>
  </outline>
</glyph>
<glyph name="U" format="1">
  <advance width="952"/>
  <unicode hex="0055"/>
  <outline>
    <contour>
      <point x="737.079" y="267" type="line" smooth="yes"/>
      <point x="709.043" y="108"/>
      <point x="627.708" y="-13"/>
      <point x="406.708" y="-13" type="curve" smooth="yes"/>
      <point x="207.708" y="-13"/>
      <point x="141.633" y="100"/>
      <point x="168.435" y="252" type="curve" smooth="yes"/>
      <point x="254.835" y="742" type="line"/>
      <point x="397.835" y="742" type="line"/>
      <point x="312.492" y="258" type="line" smooth="yes"/>
      <point x="295.389" y="161"/>
      <point x="317.398" y="93"/>
      <point x="436.398" y="93" type="curve" smooth="yes"/>
      <point x="546.398" y="93"/>
      <point x="616.038" y="142"/>
      <point x="637.021" y="261" type="curve" smooth="yes"/>
      <point x="721.835" y="742" type="line"/>
      <point x="820.835" y="742" type="line"/>
    </contour>
    <contour>
      <point x="200.965" y="652" type="line"/>
      <point x="123.965" y="652" type="line"/>
      <point x="139.835" y="742" type="line"/>
      <point x="216.835" y="742" type="line"/>
    </contour>
    <contour>
      <point x="435.835" y="742" type="line"/>
      <point x="509.835" y="742" type="line"/>
      <point x="493.965" y="652" type="line"/>
      <point x="419.965" y="652" type="line"/>
    </contour>
    <contour>
      <point x="667.965" y="652" type="line"/>
      <point x="586.965" y="652" type="line"/>
      <point x="602.835" y="742" type="line"/>
      <point x="683.835" y="742" type="line"/>
    </contour>
    <contour>
      <point x="858.835" y="742" type="line"/>
      <point x="932.835" y="742" type="line"/>
      <point x="916.965" y="652" type="line"/>
      <point x="842.965" y="652" type="line"/>
    </contour>
  </outline>
</glyph>
<glyph name="V" format="1">
  <advance width="983"/>
  <unicode hex="0056"/>
  <outline>
    <contour>
      <point x="518.169" y="52" type="line" smooth="yes"/>
      <point x="493.058" y="6"/>
      <point x="451.649" y="-19"/>
      <point x="414.649" y="-19" type="curve" smooth="yes"/>
      <point x="379.649" y="-19"/>
      <point x="349.705" y="4"/>
      <point x="340.169" y="52" type="curve"/>
      <point x="219.31" y="742" type="line"/>
      <point x="387.631" y="742" type="line"/>
      <point x="468.449" y="150" type="line"/>
      <point x="755.509" y="742" type="line"/>
      <point x="885.231" y="742" type="line"/>
    </contour>
    <contour>
      <point x="925.57" y="742" type="line"/>
      <point x="964.835" y="742" type="line"/>
      <point x="948.965" y="652" type="line"/>
      <point x="877.646" y="652" type="line"/>
    </contour>
    <contour>
      <point x="194.401" y="652" type="line"/>
      <point x="122.965" y="652" type="line"/>
      <point x="138.835" y="742" type="line"/>
      <point x="178.843" y="742" type="line"/>
    </contour>
    <contour>
      <point x="672.2" y="652" type="line"/>
      <point x="572.965" y="652" type="line"/>
      <point x="588.835" y="742" type="line"/>
      <point x="715.752" y="742" type="line"/>
    </contour>
    <contour>
      <point x="427.47" y="742" type="line"/>
      <point x="525.835" y="742" type="line"/>
      <point x="509.965" y="652" type="line"/>
      <point x="439.934" y="652" type="line"/>
    </contour>
  </outline>
</glyph>
<glyph name="W" format="1">
  <advance width="1263"/>
  <unicode hex="0057"/>
  <outline>
    <contour>
      <point x="399.589" y="742" type="line"/>
      <point x="406.72" y="652" type="line"/>
      <point x="455.965" y="652" type="line"/>
      <point x="471.835" y="742" type="line"/>
    </contour>
    <contour>
      <point x="174.928" y="652" type="line"/>
      <point x="166.604" y="742" type="line"/>
      <point x="127.835" y="742" type="line"/>
      <point x="111.965" y="652" type="line"/>
    </contour>
    <contour>
      <point x="842.111" y="46" type="line" smooth="yes"/>
      <point x="821" y="0"/>
      <point x="783.179" y="-16"/>
      <point x="750.179" y="-16" type="curve" smooth="yes"/>
      <point x="718.179" y="-16"/>
      <point x="684" y="0"/>
      <point x="679.111" y="46" type="curve" smooth="yes"/>
      <point x="632.876" y="453" type="line"/>
      <point x="438.111" y="46" type="line" smooth="yes"/>
      <point x="416.177" y="1"/>
      <point x="375.179" y="-16"/>
      <point x="342.179" y="-16" type="curve" smooth="yes"/>
      <point x="310.179" y="-16"/>
      <point x="278.823" y="-1"/>
      <point x="274.111" y="46" type="curve" smooth="yes"/>
      <point x="205.953" y="742" type="line"/>
      <point x="360.368" y="742" type="line"/>
      <point x="401.212" y="160" type="line"/>
      <point x="619.438" y="632" type="line"/>
      <point x="750.438" y="632" type="line"/>
      <point x="809.212" y="160" type="line"/>
      <point x="1057.11" y="742" type="line"/>
      <point x="1164.98" y="742" type="line"/>
    </contour>
    <contour>
      <point x="1204.5" y="742" type="line"/>
      <point x="1239.83" y="742" type="line"/>
      <point x="1223.96" y="652" type="line"/>
      <point x="1162.91" y="652" type="line"/>
    </contour>
    <contour>
      <point x="978.888" y="652" type="line"/>
      <point x="898.965" y="652" type="line"/>
      <point x="914.835" y="742" type="line"/>
      <point x="1017.88" y="742" type="line"/>
    </contour>
  </outline>
</glyph>
<glyph name="X" format="1">
  <advance width="975"/>
  <unicode hex="0058"/>
  <outline>
    <contour>
      <point x="661.404" y="652" type="line"/>
      <point x="749.527" y="742" type="line"/>
      <point x="606.835" y="742" type="line"/>
      <point x="590.965" y="652" type="line"/>
    </contour>
    <contour>
      <point x="438" y="742" type="line"/>
      <point x="488.308" y="652" type="line"/>
      <point x="528.965" y="652" type="line"/>
      <point x="544.835" y="742" type="line"/>
    </contour>
    <contour>
      <point x="960.195" y="727.03" type="line"/>
      <point x="884.725" y="652" type="line"/>
      <point x="946.965" y="652" type="line"/>
    </contour>
    <contour>
      <point x="207.448" y="652" type="line"/>
      <point x="165.732" y="724.405" type="line"/>
      <point x="152.965" y="652" type="line"/>
    </contour>
    <contour>
      <point x="583.884" y="402" type="line"/>
      <point x="817.95" y="0" type="line"/>
      <point x="630.222" y="0" type="line"/>
      <point x="466.959" y="289" type="line"/>
      <point x="177.905" y="0" type="line"/>
      <point x="52.4502" y="0" type="line"/>
      <point x="420.359" y="365" type="line"/>
      <point x="203.151" y="742" type="line"/>
      <point x="390.833" y="742" type="line"/>
      <point x="538.284" y="478" type="line"/>
      <point x="798.257" y="742" type="line"/>
      <point x="925.88" y="742" type="line"/>
    </contour>
    <contour>
      <point x="814.973" y="87" type="line"/>
      <point x="886.341" y="87" type="line"/>
      <point x="871" y="0" type="line"/>
      <point x="865.653" y="0" type="line"/>
    </contour>
    <contour>
      <point x="582.933" y="0" type="line"/>
      <point x="455" y="0" type="line"/>
      <point x="470.341" y="87" type="line"/>
      <point x="533.829" y="87" type="line"/>
    </contour>
    <contour>
      <point x="6.62793" y="3.55859" type="line"/>
      <point x="21.3408" y="87" type="line"/>
      <point x="90.6787" y="87" type="line"/>
    </contour>
    <contour>
      <point x="227.212" y="0" type="line"/>
      <point x="314.481" y="87" type="line"/>
      <point x="397.341" y="87" type="line"/>
      <point x="382" y="0" type="line"/>
    </contour>
  </outline>
</glyph>
<glyph name="Y" format="1">
  <advance width="958"/>
  <unicode hex="0059"/>
  <outline>
    <contour>
      <point x="210" y="0" type="line"/>
      <point x="225.341" y="87" type="line"/>
      <point x="306.341" y="87" type="line"/>
      <point x="291" y="0" type="line"/>
    </contour>
    <contour>
      <point x="527.341" y="87" type="line"/>
      <point x="601.341" y="87" type="line"/>
      <point x="586" y="0" type="line"/>
      <point x="512" y="0" type="line"/>
    </contour>
    <contour>
      <point x="474" y="0" type="line"/>
      <point x="329" y="0" type="line"/>
      <point x="385.601" y="321" type="line"/>
      <point x="200.373" y="742" type="line"/>
      <point x="347.034" y="742" type="line"/>
      <point x="495.002" y="397" type="line"/>
      <point x="778.483" y="742" type="line"/>
      <point x="884.438" y="742" type="line"/>
      <point x="530.248" y="319" type="line"/>
    </contour>
    <contour>
      <point x="195.27" y="652" type="line"/>
      <point x="120.965" y="652" type="line"/>
      <point x="136.835" y="742" type="line"/>
      <point x="155.754" y="742" type="line"/>
    </contour>
    <contour>
      <point x="391.35" y="742" type="line"/>
      <point x="509.835" y="742" type="line"/>
      <point x="493.965" y="652" type="line"/>
      <point x="429.48" y="652" type="line"/>
    </contour>
    <contour>
      <point x="658.94" y="652" type="line"/>
      <point x="593.965" y="652" type="line"/>
      <point x="609.835" y="742" type="line"/>
      <point x="733.189" y="742" type="line"/>
    </contour>
    <contour>
      <point x="929.977" y="742" type="line"/>
      <point x="938.835" y="742" type="line"/>
      <point x="922.965" y="652" type="line"/>
      <point x="854.674" y="652" type="line"/>
    </contour>
  </outline>
</glyph>
<glyph name="Z" format="1">
  <advance width="795"/>
  <unicode hex="005A"/>
  <outline>
    <contour>
      <point x="675.341" y="87" type="line"/>
      <point x="660" y="0" type="line"/>
      <point x="66" y="0" type="line"/>
      <point x="67.3408" y="87" type="line"/>
      <point x="602.494" y="655" type="line"/>
      <point x="172.494" y="655" type="line"/>
      <point x="187.835" y="742" type="line" smooth="yes"/>
      <point x="188.011" y="743"/>
      <point x="771.835" y="742"/>
      <point x="771.835" y="742" type="curve"/>
      <point x="771.494" y="655" type="line"/>
      <point x="242.341" y="87" type="line"/>
    </contour>
    <contour>
      <point x="271.794" y="617" type="line"/>
      <point x="238.82" y="430" type="line"/>
      <point x="132.82" y="430" type="line"/>
      <point x="165.794" y="617" type="line"/>
    </contour>
    <contour>
      <point x="576.041" y="125" type="line"/>
      <point x="609.72" y="316" type="line"/>
      <point x="715.72" y="316" type="line"/>
      <point x="682.041" y="125" type="line"/>
    </contour>
  </outline>
</glyph>
<glyph name="bracketleft" format="1">
  <advance width="765"/>
  <unicode hex="005B"/>
  <outline>
    <contour>
      <point x="505.664" y="-121" type="line" smooth="yes"/>
      <point x="505.488" y="-122"/>
      <point x="141.664" y="-121"/>
      <point x="141.664" y="-121" type="curve"/>
      <point x="302.298" y="790" type="line"/>
      <point x="302.298" y="790"/>
      <point x="666.475" y="791"/>
      <point x="666.298" y="790" type="curve" smooth="yes"/>
      <point x="652.721" y="713" type="line"/>
      <point x="413.721" y="713" type="line"/>
      <point x="279.713" y="-47" type="line"/>
      <point x="518.713" y="-47" type="line"/>
    </contour>
  </outline>
</glyph>
<glyph name="backslash" format="1">
  <advance width="582"/>
  <unicode hex="005C"/>
  <outline>
    <contour>
      <point x="402.246" y="-78" type="line"/>
      <point x="393.709" y="798" type="line"/>
      <point x="291.183" y="778" type="line"/>
      <point x="297.896" y="-97" type="line"/>
    </contour>
  </outline>
</glyph>
<glyph name="bracketright" format="1">
  <advance width="753"/>
  <unicode hex="005D"/>
  <outline>
    <contour>
      <point x="298.593" y="786" type="line" smooth="yes"/>
      <point x="298.77" y="787"/>
      <point x="662.77" y="787"/>
      <point x="662.77" y="787" type="curve"/>
      <point x="501.959" y="-125" type="line"/>
      <point x="501.959" y="-125"/>
      <point x="137.783" y="-126"/>
      <point x="137.959" y="-125" type="curve" smooth="yes"/>
      <point x="151.536" y="-48" type="line"/>
      <point x="390.536" y="-48" type="line"/>
      <point x="524.545" y="712" type="line"/>
      <point x="285.545" y="712" type="line"/>
    </contour>
  </outline>
</glyph>
<glyph name="asciicircum" format="1">
  <advance width="490"/>
  <unicode hex="005E"/>
  <outline>
    <contour>
      <point x="297.388" y="575" type="line"/>
      <point x="393.388" y="575" type="line"/>
      <point x="501.154" y="154" type="line"/>
      <point x="398.154" y="154" type="line"/>
      <point x="326.932" y="476" type="line"/>
      <point x="134.154" y="154" type="line"/>
      <point x="33.1543" y="154" type="line"/>
    </contour>
  </outline>
</glyph>
<glyph name="underscore" format="1">
  <advance width="416"/>
  <unicode hex="005F"/>
  <outline>
    <contour>
      <point x="407.833" y="-69" type="line"/>
      <point x="-16.167" y="-69" type="line"/>
      <point x="-3.29492" y="4" type="line"/>
      <point x="420.705" y="4" type="line"/>
    </contour>
  </outline>
</glyph>
<glyph name="a" format="1">
  <advance width="684"/>
  <unicode hex="0061"/>
  <outline>
    <contour>
      <point x="499.531" y="-14" type="curve" smooth="yes"/>
      <point x="495.531" y="-14" type="line" smooth="yes"/>
      <point x="440.474" y="-13.1094"/>
      <point x="392.458" y="5.22949"/>
      <point x="377.573" y="60.793" type="curve"/>
      <point x="377.756" y="61" type="line"/>
      <point x="377.756" y="61"/>
      <point x="366.395" y="92.9078"/>
      <point x="382.268" y="183" type="curve" smooth="yes"/>
      <point x="387.499" y="212.667"/>
      <point x="392.729" y="242.333"/>
      <point x="397.961" y="272" type="curve"/>
      <point x="266.739" y="180"/>
      <point x="195.149" y="188"/>
      <point x="182.983" y="119" type="curve" smooth="yes"/>
      <point x="177.693" y="89"/>
      <point x="185.285" y="64"/>
      <point x="218.285" y="64" type="curve" smooth="yes"/>
      <point x="245.085" y="64"/>
      <point x="289.779" y="82.3926"/>
      <point x="325.874" y="109.082" type="curve"/>
      <point x="322.021" y="75.8232"/>
      <point x="321.176" y="50.8164"/>
      <point x="321.444" y="33.1953" type="curve"/>
      <point x="280.916" y="4.50293"/>
      <point x="230.961" y="-13"/>
      <point x="178.708" y="-13" type="curve" smooth="yes"/>
      <point x="96.708" y="-13"/>
      <point x="48.4658" y="31"/>
      <point x="63.4541" y="116" type="curve" smooth="yes"/>
      <point x="92.3711" y="280"/>
      <point x="396.729" y="248"/>
      <point x="418.77" y="373" type="curve" smooth="yes"/>
      <point x="432.7" y="452"/>
      <point x="392.932" y="476"/>
      <point x="334.932" y="476" type="curve" smooth="yes"/>
      <point x="324.34" y="476"/>
      <point x="313.436" y="475.17"/>
      <point x="302.545" y="473.443" type="curve"/>
      <point x="253.124" y="507.308"/>
      <point x="207.311" y="495.06"/>
      <point x="175.789" y="476.827" type="curve"/>
      <point x="220.752" y="516.25"/>
      <point x="291.559" y="539"/>
      <point x="357.04" y="539" type="curve" smooth="yes"/>
      <point x="461.04" y="539"/>
      <point x="566.163" y="500"/>
      <point x="542.007" y="363" type="curve" smooth="yes"/>
      <point x="505.331" y="155" type="line" smooth="yes"/>
      <point x="499.512" y="122"/>
      <point x="494.167" y="69"/>
      <point x="539.167" y="69" type="curve" smooth="yes"/>
      <point x="581.167" y="69"/>
      <point x="594.277" y="115"/>
      <point x="600.979" y="153" type="curve" smooth="yes"/>
      <point x="612.439" y="218" type="line"/>
      <point x="677.439" y="218" type="line"/>
      <point x="665.449" y="150" type="line" smooth="yes"/>
      <point x="641.998" y="17"/>
      <point x="571.531" y="-14"/>
    </contour>
    <contour>
      <point x="256.11" y="460" type="curve" smooth="yes"/>
      <point x="278.991" y="453.849"/>
      <point x="293.818" y="418.613"/>
      <point x="288.591" y="389" type="curve" smooth="yes"/>
      <point x="281.715" y="350"/>
      <point x="245.248" y="319"/>
      <point x="196.248" y="319" type="curve" smooth="yes"/>
      <point x="138.996" y="319"/>
      <point x="118.164" y="365.921"/>
      <point x="134.538" y="417.017" type="curve" smooth="yes"/>
      <point x="135.241" y="418.229"/>
      <point x="173.298" y="482.262"/>
    </contour>
  </outline>
</glyph>
<glyph name="b" format="1">
  <advance width="614"/>
  <unicode hex="0062"/>
  <outline>
    <contour>
      <point x="100.729" y="662" type="line"/>
      <point x="35.7285" y="662" type="line"/>
      <point x="49.835" y="742" type="line"/>
      <point x="114.835" y="742" type="line"/>
    </contour>
    <contour>
      <point x="346.581" y="457" type="curve" smooth="yes"/>
      <point x="255.581" y="457"/>
      <point x="211.536" y="366"/>
      <point x="197.253" y="285" type="curve" smooth="yes"/>
      <point x="188.219" y="233.762"/>
      <point x="186.193" y="190.66"/>
      <point x="191.835" y="157.098" type="curve"/>
      <point x="156.93" y="104.685"/>
      <point x="122.071" y="52.2119"/>
      <point x="87" y="0" type="curve"/>
      <point x="22" y="0" type="line"/>
      <point x="152.835" y="742" type="line"/>
      <point x="277.835" y="742" type="line"/>
      <point x="228.11" y="460" type="line"/>
      <point x="269.75" y="509"/>
      <point x="322.158" y="534"/>
      <point x="380.864" y="538" type="curve"/>
      <point x="393.864" y="538" type="line" smooth="yes"/>
      <point x="520.864" y="538"/>
      <point x="584.823" y="413"/>
      <point x="558.197" y="262" type="curve" smooth="yes"/>
      <point x="530.69" y="106"/>
      <point x="422.708" y="-13"/>
      <point x="292.708" y="-13" type="curve" smooth="yes"/>
      <point x="240.188" y="-13"/>
      <point x="191.89" y="7.23828"/>
      <point x="159.139" y="46.1338" type="curve"/>
      <point x="205.335" y="115.512" type="line"/>
      <point x="219.753" y="89.1201"/>
      <point x="243.762" y="75"/>
      <point x="278.225" y="75" type="curve" smooth="yes"/>
      <point x="362.225" y="75"/>
      <point x="410.328" y="172"/>
      <point x="425.14" y="256" type="curve" smooth="yes"/>
      <point x="440.48" y="343"/>
      <point x="440.581" y="457"/>
    </contour>
  </outline>
</glyph>
<glyph name="c" format="1">
  <advance width="627"/>
  <unicode hex="0063"/>
  <outline>
    <contour>
      <point x="77.4346" y="252" type="curve" smooth="yes"/>
      <point x="49.0459" y="91"/>
      <point x="150.708" y="-13"/>
      <point x="288.708" y="-13" type="curve" smooth="yes"/>
      <point x="408.708" y="-13"/>
      <point x="514.403" y="59"/>
      <point x="556.918" y="164" type="curve"/>
      <point x="497.149" y="188" type="line"/>
      <point x="475.802" y="152"/>
      <point x="424.93" y="79"/>
      <point x="340.93" y="79" type="curve" smooth="yes"/>
      <point x="231.93" y="79"/>
      <point x="198.094" y="165"/>
      <point x="218.371" y="280" type="curve" smooth="yes"/>
      <point x="235.828" y="379"/>
      <point x="307.402" y="473"/>
      <point x="405.402" y="473" type="curve" smooth="yes"/>
      <point x="458.402" y="473"/>
      <point x="491.876" y="453"/>
      <point x="506.233" y="421" type="curve"/>
      <point x="480.233" y="421"/>
      <point x="437.06" y="403"/>
      <point x="429.302" y="359" type="curve" smooth="yes"/>
      <point x="428.949" y="357"/>
      <point x="428.596" y="355"/>
      <point x="428.243" y="353" type="curve" smooth="yes"/>
      <point x="424.896" y="317"/>
      <point x="448.192" y="296"/>
      <point x="487.192" y="296" type="curve" smooth="yes"/>
      <point x="539.192" y="296"/>
      <point x="574.246" y="336"/>
      <point x="580.064" y="369" type="curve" smooth="yes"/>
      <point x="602.282" y="495"/>
      <point x="492.04" y="539"/>
      <point x="400.04" y="539" type="curve" smooth="yes"/>
      <point x="225.04" y="539"/>
      <point x="104.941" y="408"/>
    </contour>
  </outline>
</glyph>
<glyph name="d" format="1">
  <advance width="671"/>
  <unicode hex="0064"/>
  <outline>
    <contour>
      <point x="491.835" y="742" type="line"/>
      <point x="425.835" y="742" type="line"/>
      <point x="411.729" y="662" type="line"/>
      <point x="477.729" y="662" type="line"/>
    </contour>
    <contour>
      <point x="562" y="0" type="line"/>
      <point x="600" y="0" type="line"/>
      <point x="614.812" y="84" type="line"/>
      <point x="576.812" y="84" type="line"/>
    </contour>
    <contour>
      <point x="480.11" y="460" type="line"/>
      <point x="455.75" y="509"/>
      <point x="412.864" y="538"/>
      <point x="354.864" y="538" type="curve" smooth="yes"/>
      <point x="218.864" y="538"/>
      <point x="107.705" y="418"/>
      <point x="80.1973" y="262" type="curve" smooth="yes"/>
      <point x="52.6904" y="106"/>
      <point x="118.708" y="-13"/>
      <point x="248.708" y="-13" type="curve" smooth="yes"/>
      <point x="286.237" y="-13"/>
      <point x="327.658" y="0.538086"/>
      <point x="367.372" y="36.1357" type="curve"/>
      <point x="381.359" y="115.466" type="line"/>
      <point x="357.642" y="89.1035"/>
      <point x="328.668" y="75"/>
      <point x="294.225" y="75" type="curve" smooth="yes"/>
      <point x="210.225" y="75"/>
      <point x="196.328" y="172"/>
      <point x="211.14" y="256" type="curve" smooth="yes"/>
      <point x="226.48" y="343"/>
      <point x="266.581" y="457"/>
      <point x="360.581" y="457" type="curve" smooth="yes"/>
      <point x="451.581" y="457"/>
      <point x="463.536" y="366"/>
      <point x="449.253" y="285" type="curve" smooth="yes"/>
      <point x="399" y="0" type="line"/>
      <point x="524" y="0" type="line"/>
      <point x="654.835" y="742" type="line"/>
      <point x="529.835" y="742" type="line"/>
    </contour>
  </outline>
</glyph>
<glyph name="e" format="1">
  <advance width="633"/>
  <unicode hex="0065"/>
  <outline>
    <contour>
      <point x="225.896" y="317" type="curve" smooth="yes"/>
      <point x="250.294" y="410"/>
      <point x="304.992" y="465"/>
      <point x="375.992" y="465" type="curve" smooth="yes"/>
      <point x="445.992" y="465"/>
      <point x="473.589" y="406"/>
      <point x="460.188" y="330" type="curve"/>
      <point x="276.266" y="329.688" type="line"/>
      <point x="266.074" y="301.759"/>
      <point x="262.002" y="278.929"/>
      <point x="260.43" y="267" type="curve"/>
      <point x="576.079" y="267" type="line"/>
      <point x="604.994" y="448"/>
      <point x="513.04" y="539"/>
      <point x="377.04" y="539" type="curve" smooth="yes"/>
      <point x="237.04" y="539"/>
      <point x="106.352" y="416"/>
      <point x="79.0215" y="261" type="curve" smooth="yes"/>
      <point x="49.3984" y="93"/>
      <point x="141.708" y="-13"/>
      <point x="289.531" y="-14" type="curve" smooth="yes"/>
      <point x="292.531" y="-14" type="line" smooth="yes"/>
      <point x="392.531" y="-14"/>
      <point x="495.405" y="42"/>
      <point x="541.979" y="153" type="curve"/>
      <point x="475.62" y="185" type="line"/>
      <point x="446.98" y="136"/>
      <point x="391.962" y="84.8223"/>
      <point x="326.635" y="83" type="curve" smooth="yes"/>
      <point x="219.106" y="80"/>
      <point x="196.853" y="206.297"/>
    </contour>
  </outline>
</glyph>
<glyph name="f" format="1">
  <advance width="578"/>
  <unicode hex="0066"/>
  <outline>
    <contour>
      <point x="203.818" y="447" type="line"/>
      <point x="99.8184" y="447" type="line"/>
      <point x="113.396" y="524" type="line"/>
      <point x="217.396" y="524" type="line"/>
      <point x="246.666" y="690"/>
      <point x="330.301" y="773"/>
      <point x="467.301" y="773" type="curve" smooth="yes"/>
      <point x="580.301" y="773"/>
      <point x="618.724" y="696"/>
      <point x="609.907" y="646" type="curve" smooth="yes"/>
      <point x="600.562" y="593"/>
      <point x="560.507" y="570"/>
      <point x="525.507" y="570" type="curve" smooth="yes"/>
      <point x="491.507" y="570"/>
      <point x="461.386" y="592"/>
      <point x="468.263" y="631" type="curve" smooth="yes"/>
      <point x="474.786" y="668"/>
      <point x="512.607" y="684"/>
      <point x="535.137" y="687" type="curve"/>
      <point x="538.368" y="711"/>
      <point x="508.542" y="729"/>
      <point x="479.542" y="729" type="curve" smooth="yes"/>
      <point x="440.542" y="729"/>
      <point x="375.9" y="697"/>
      <point x="359.502" y="604" type="curve" smooth="yes"/>
      <point x="345.396" y="524" type="line"/>
      <point x="460.396" y="524" type="line"/>
      <point x="446.818" y="447" type="line"/>
      <point x="331.818" y="447" type="line"/>
      <point x="253" y="0" type="line"/>
      <point x="125" y="0" type="line"/>
    </contour>
    <contour>
      <point x="305.812" y="84" type="line"/>
      <point x="378.812" y="84" type="line"/>
      <point x="364" y="0" type="line"/>
      <point x="291" y="0" type="line"/>
    </contour>
    <contour>
      <point x="87" y="0" type="line"/>
      <point x="21" y="0" type="line"/>
      <point x="35.8115" y="84" type="line"/>
      <point x="101.812" y="84" type="line"/>
    </contour>
  </outline>
</glyph>
<glyph name="g" format="1">
  <advance width="691"/>
  <unicode hex="0067"/>
  <outline>
    <contour>
      <point x="654.396" y="524" type="line"/>
      <point x="640.818" y="447" type="line"/>
      <point x="661.818" y="447" type="line"/>
      <point x="675.396" y="524" type="line"/>
    </contour>
    <contour>
      <point x="213.256" y="268" type="curve" smooth="yes"/>
      <point x="197.915" y="181"/>
      <point x="197.813" y="67"/>
      <point x="291.813" y="67" type="curve" smooth="yes"/>
      <point x="328.083" y="67"/>
      <point x="356.893" y="81.4551"/>
      <point x="379.333" y="103.972" type="curve"/>
      <point x="364.853" y="21.8486" type="line"/>
      <point x="332.534" y="-1.16699"/>
      <point x="296.114" y="-14"/>
      <point x="257.531" y="-14" type="curve" smooth="yes"/>
      <point x="121.531" y="-14"/>
      <point x="52.6904" y="106"/>
      <point x="80.1973" y="262" type="curve" smooth="yes"/>
      <point x="107.705" y="418"/>
      <point x="215.864" y="538"/>
      <point x="345.864" y="538" type="curve" smooth="yes"/>
      <point x="410.864" y="538"/>
      <point x="466.222" y="506"/>
      <point x="499.818" y="447" type="curve"/>
      <point x="554.396" y="524" type="line"/>
      <point x="616.396" y="524" type="line"/>
      <point x="527.174" y="18" type="line" smooth="yes"/>
      <point x="501.077" y="-130"/>
      <point x="420.684" y="-257"/>
      <point x="245.684" y="-257" type="curve" smooth="yes"/>
      <point x="150.684" y="-257"/>
      <point x="51.4443" y="-230"/>
      <point x="64.1963" y="-135" type="curve" smooth="yes"/>
      <point x="64.3721" y="-134"/>
      <point x="64.5488" y="-133"/>
      <point x="64.7246" y="-132" type="curve" smooth="yes"/>
      <point x="71.7783" y="-92"/>
      <point x="111.42" y="-60"/>
      <point x="158.42" y="-60" type="curve" smooth="yes"/>
      <point x="199.42" y="-60"/>
      <point x="222.307" y="-89"/>
      <point x="215.606" y="-127" type="curve" smooth="yes"/>
      <point x="212.08" y="-147"/>
      <point x="200.554" y="-167"/>
      <point x="187.38" y="-185" type="curve"/>
      <point x="199.026" y="-187"/>
      <point x="213.321" y="-191"/>
      <point x="227.321" y="-191" type="curve" smooth="yes"/>
      <point x="332.062" y="-191"/>
      <point x="374.983" y="-135.276"/>
      <point x="398.823" y="-1" type="curve" smooth="yes"/>
      <point x="441.143" y="239" type="line"/>
      <point x="441.492" y="241" type="line" smooth="yes"/>
      <point x="464.183" y="371.798"/>
      <point x="440.938" y="450"/>
      <point x="360.347" y="450" type="curve" smooth="yes"/>
      <point x="276.347" y="450"/>
      <point x="228.067" y="352"/>
    </contour>
  </outline>
</glyph>
<glyph name="h" format="1">
  <advance width="700"/>
  <unicode hex="0068"/>
  <outline>
    <contour>
      <point x="582" y="0" type="line"/>
      <point x="457" y="0" type="line"/>
      <point x="517.48" y="343" type="line" smooth="yes"/>
      <point x="529.118" y="409"/>
      <point x="496.523" y="451"/>
      <point x="448.523" y="451" type="curve" smooth="yes"/>
      <point x="338.523" y="451"/>
      <point x="295.949" y="357"/>
      <point x="279.197" y="262" type="curve" smooth="yes"/>
      <point x="233" y="0" type="line"/>
      <point x="108" y="0" type="line"/>
      <point x="238.835" y="742" type="line"/>
      <point x="363.835" y="742" type="line"/>
      <point x="310.231" y="438" type="line"/>
      <point x="365.337" y="518"/>
      <point x="438.864" y="538"/>
      <point x="501.864" y="538" type="curve" smooth="yes"/>
      <point x="557.864" y="538"/>
      <point x="673.337" y="518"/>
      <point x="643.715" y="350" type="curve" smooth="yes"/>
    </contour>
    <contour>
      <point x="186.729" y="662" type="line"/>
      <point x="120.729" y="662" type="line"/>
      <point x="134.835" y="742" type="line"/>
      <point x="200.835" y="742" type="line"/>
    </contour>
    <contour>
      <point x="70" y="0" type="line"/>
      <point x="15" y="0" type="line"/>
      <point x="29.8115" y="84" type="line"/>
      <point x="84.8115" y="84" type="line"/>
    </contour>
    <contour>
      <point x="285.812" y="84" type="line"/>
      <point x="336.812" y="84" type="line"/>
      <point x="322" y="0" type="line"/>
      <point x="271" y="0" type="line"/>
    </contour>
    <contour>
      <point x="419" y="-0" type="line"/>
      <point x="368" y="0" type="line"/>
      <point x="382.812" y="84" type="line"/>
      <point x="433.812" y="84" type="line"/>
    </contour>
    <contour>
      <point x="634.812" y="84" type="line"/>
      <point x="692.812" y="84" type="line"/>
      <point x="678" y="0" type="line"/>
      <point x="620" y="0" type="line"/>
    </contour>
  </outline>
</glyph>
<glyph name="i" format="1">
  <advance width="353"/>
  <unicode hex="0069"/>
  <outline>
    <contour>
      <point x="213.429" y="700" type="curve" smooth="yes"/>
      <point x="205.317" y="654"/>
      <point x="236.617" y="616"/>
      <point x="282.617" y="616" type="curve" smooth="yes"/>
      <point x="328.617" y="616"/>
      <point x="374.317" y="654"/>
      <point x="382.429" y="700" type="curve" smooth="yes"/>
      <point x="390.54" y="746"/>
      <point x="358.417" y="785"/>
      <point x="312.417" y="785" type="curve" smooth="yes"/>
      <point x="266.417" y="785"/>
      <point x="221.54" y="746"/>
    </contour>
    <contour>
      <point x="121" y="0" type="line"/>
      <point x="245" y="0" type="line"/>
      <point x="337.396" y="524" type="line"/>
      <point x="213.396" y="524" type="line"/>
    </contour>
    <contour>
      <point x="283" y="0" type="line"/>
      <point x="330" y="0" type="line"/>
      <point x="344.812" y="84" type="line"/>
      <point x="297.812" y="84" type="line"/>
    </contour>
    <contour>
      <point x="97.8115" y="84" type="line"/>
      <point x="38.8115" y="84" type="line"/>
      <point x="24" y="0" type="line"/>
      <point x="83" y="0" type="line"/>
    </contour>
    <contour>
      <point x="175.396" y="524" type="line"/>
      <point x="115.396" y="524" type="line"/>
      <point x="101.818" y="447" type="line"/>
      <point x="161.818" y="447" type="line"/>
    </contour>
  </outline>
</glyph>
<glyph name="j" format="1">
  <advance width="430"/>
  <unicode hex="006A"/>
  <outline>
    <contour>
      <point x="220.396" y="524" type="line"/>
      <point x="345.396" y="524" type="line"/>
      <point x="245.771" y="-41" type="line" smooth="yes"/>
      <point x="224.259" y="-163"/>
      <point x="138.798" y="-228"/>
      <point x="27.7979" y="-228" type="curve" smooth="yes"/>
      <point x="-73.2021" y="-228"/>
      <point x="-128.326" y="-189"/>
      <point x="-116.688" y="-123" type="curve" smooth="yes"/>
      <point x="-108.4" y="-76"/>
      <point x="-78.877" y="-39"/>
      <point x="-22.877" y="-39" type="curve" smooth="yes"/>
      <point x="22.123" y="-39"/>
      <point x="40.1279" y="-73"/>
      <point x="33.957" y="-108" type="curve" smooth="yes"/>
      <point x="30.0771" y="-130"/>
      <point x="21.0215" y="-153"/>
      <point x="-3.74121" y="-163" type="curve"/>
      <point x="-3.74121" y="-163"/>
      <point x="14.8477" y="-171"/>
      <point x="36.8477" y="-171" type="curve" smooth="yes"/>
      <point x="65.8477" y="-171"/>
      <point x="102.256" y="-146"/>
      <point x="118.126" y="-56" type="curve" smooth="yes"/>
    </contour>
    <contour>
      <point x="213.429" y="700" type="curve" smooth="yes"/>
      <point x="205.317" y="654"/>
      <point x="236.617" y="616"/>
      <point x="282.617" y="616" type="curve" smooth="yes"/>
      <point x="328.617" y="616"/>
      <point x="374.317" y="654"/>
      <point x="382.429" y="700" type="curve" smooth="yes"/>
      <point x="390.54" y="746"/>
      <point x="358.417" y="785"/>
      <point x="312.417" y="785" type="curve" smooth="yes"/>
      <point x="266.417" y="785"/>
      <point x="221.54" y="746"/>
    </contour>
    <contour>
      <point x="168.818" y="447" type="line"/>
      <point x="92.8184" y="447" type="line"/>
      <point x="106.396" y="524" type="line"/>
      <point x="182.396" y="524" type="line"/>
    </contour>
  </outline>
</glyph>
<glyph name="k" format="1">
  <advance width="715"/>
  <unicode hex="006B"/>
  <outline>
    <contour>
      <point x="202.835" y="742" type="line"/>
      <point x="141.835" y="742" type="line"/>
      <point x="127.729" y="662" type="line"/>
      <point x="188.729" y="662" type="line"/>
    </contour>
    <contour>
      <point x="273" y="0" type="line"/>
      <point x="308" y="0" type="line"/>
      <point x="322.812" y="84" type="line"/>
      <point x="287.812" y="84" type="line"/>
    </contour>
    <contour>
      <point x="411.396" y="524" type="line"/>
      <point x="397.818" y="447" type="line"/>
      <point x="429.826" y="447" type="line"/>
      <point x="526.944" y="524" type="line"/>
    </contour>
    <contour>
      <point x="86.8115" y="84" type="line"/>
      <point x="34.8115" y="84" type="line"/>
      <point x="20" y="0" type="line"/>
      <point x="72" y="0" type="line"/>
    </contour>
    <contour>
      <point x="661.318" y="447" type="line"/>
      <point x="696.818" y="447" type="line"/>
      <point x="702.698" y="480.348" type="line"/>
    </contour>
    <contour>
      <point x="270.266" y="200" type="line"/>
      <point x="344.082" y="250" type="line"/>
      <point x="410.988" y="85" type="line"/>
      <point x="438.879" y="22"/>
      <point x="474.531" y="-14"/>
      <point x="540.531" y="-14" type="curve" smooth="yes"/>
      <point x="568.531" y="-14"/>
      <point x="595.531" y="-14"/>
      <point x="633.177" y="1" type="curve"/>
      <point x="643.222" y="92" type="line"/>
      <point x="619.635" y="83"/>
      <point x="597.459" y="82"/>
      <point x="582.459" y="82" type="curve" smooth="yes"/>
      <point x="552.459" y="82"/>
      <point x="534.809" y="101"/>
      <point x="520.041" y="125" type="curve" smooth="yes"/>
      <point x="488.681" y="174"/>
      <point x="431.956" y="306"/>
      <point x="431.133" y="307" type="curve"/>
      <point x="521.269" y="379.261"/>
      <point x="611.508" y="451.397"/>
      <point x="701.363" y="524" type="curve"/>
      <point x="583.013" y="524" type="line"/>
      <point x="436.764" y="408.046" type="line" smooth="yes"/>
      <point x="369" y="353.868"/>
      <point x="285.43" y="286"/>
      <point x="285.43" y="286" type="curve"/>
      <point x="365.835" y="742" type="line"/>
      <point x="240.835" y="742" type="line"/>
      <point x="110" y="0" type="line"/>
      <point x="235" y="0" type="line"/>
    </contour>
  </outline>
</glyph>
<glyph name="l" format="1">
  <advance width="373"/>
  <unicode hex="006C"/>
  <outline>
    <contour>
      <point x="214.835" y="742" type="line"/>
      <point x="153.835" y="742" type="line"/>
      <point x="139.729" y="662" type="line"/>
      <point x="200.729" y="662" type="line"/>
    </contour>
    <contour>
      <point x="377.835" y="742" type="line"/>
      <point x="252.835" y="742" type="line"/>
      <point x="122" y="0" type="line"/>
      <point x="247" y="0" type="line"/>
    </contour>
    <contour>
      <point x="98.8115" y="84" type="line"/>
      <point x="35.8115" y="84" type="line"/>
      <point x="21" y="0" type="line"/>
      <point x="84" y="0" type="line"/>
    </contour>
    <contour>
      <point x="285" y="0" type="line"/>
      <point x="343" y="0" type="line"/>
      <point x="357.812" y="84" type="line"/>
      <point x="299.812" y="84" type="line"/>
    </contour>
  </outline>
</glyph>
<glyph name="m" format="1">
  <advance width="964"/>
  <unicode hex="006D"/>
  <outline>
    <contour>
      <point x="852" y="0" type="line"/>
      <point x="727" y="0" type="line"/>
      <point x="792.417" y="371" type="line" smooth="yes"/>
      <point x="802.82" y="430"/>
      <point x="774.405" y="456"/>
      <point x="738.405" y="456" type="curve" smooth="yes"/>
      <point x="676.405" y="456"/>
      <point x="619.238" y="387"/>
      <point x="609.894" y="334" type="curve" smooth="yes"/>
      <point x="551" y="0" type="line"/>
      <point x="426" y="0" type="line"/>
      <point x="491.417" y="371" type="line" smooth="yes"/>
      <point x="500.939" y="425"/>
      <point x="477.581" y="457"/>
      <point x="443.581" y="457" type="curve" smooth="yes"/>
      <point x="359.581" y="457"/>
      <point x="299.599" y="338"/>
      <point x="282.848" y="243" type="curve" smooth="yes"/>
      <point x="240" y="0" type="line"/>
      <point x="115" y="0" type="line"/>
      <point x="207.363" y="523.815" type="line"/>
      <point x="330.453" y="530" type="line"/>
      <point x="313.35" y="433" type="line"/>
      <point x="356.045" y="505"/>
      <point x="433.864" y="538"/>
      <point x="494.864" y="538" type="curve" smooth="yes"/>
      <point x="535.864" y="538"/>
      <point x="597.806" y="532"/>
      <point x="607.35" y="433" type="curve"/>
      <point x="649.279" y="512"/>
      <point x="730.864" y="538"/>
      <point x="794.864" y="538" type="curve" smooth="yes"/>
      <point x="844.864" y="538"/>
      <point x="943.866" y="521"/>
      <point x="914.243" y="353" type="curve" smooth="yes"/>
    </contour>
    <contour>
      <point x="77" y="0" type="line"/>
      <point x="20" y="0" type="line"/>
      <point x="34.8115" y="84" type="line"/>
      <point x="91.8115" y="84" type="line"/>
    </contour>
    <contour>
      <point x="278" y="0" type="line"/>
      <point x="292.812" y="84" type="line"/>
      <point x="322.812" y="84" type="line"/>
      <point x="308" y="0" type="line"/>
    </contour>
    <contour>
      <point x="388" y="0" type="line"/>
      <point x="357" y="0" type="line"/>
      <point x="371.812" y="84" type="line"/>
      <point x="402.812" y="84" type="line"/>
    </contour>
    <contour>
      <point x="603.812" y="84" type="line"/>
      <point x="632.812" y="84" type="line"/>
      <point x="618" y="0" type="line"/>
      <point x="589" y="0" type="line"/>
    </contour>
    <contour>
      <point x="689" y="0" type="line"/>
      <point x="662" y="0" type="line"/>
      <point x="676.812" y="84" type="line"/>
      <point x="703.812" y="84" type="line"/>
    </contour>
    <contour>
      <point x="904.812" y="84" type="line"/>
      <point x="945.812" y="84" type="line"/>
      <point x="931" y="0" type="line"/>
      <point x="890" y="0" type="line"/>
    </contour>
    <contour>
      <point x="155.818" y="447" type="line"/>
      <point x="98.8184" y="447" type="line"/>
      <point x="111.514" y="519" type="line"/>
      <point x="169.023" y="521.89" type="line"/>
    </contour>
  </outline>
</glyph>
<glyph name="n" format="1">
  <advance width="698"/>
  <unicode hex="006E"/>
  <outline>
    <contour>
      <point x="648.361" y="348" type="line" smooth="yes"/>
      <point x="677.984" y="516"/>
      <point x="565.864" y="538"/>
      <point x="509.864" y="538" type="curve" smooth="yes"/>
      <point x="436.864" y="538"/>
      <point x="357.75" y="509"/>
      <point x="310.997" y="431" type="curve"/>
      <point x="328.277" y="529" type="line"/>
      <point x="205.177" y="522.758" type="line"/>
      <point x="113" y="0" type="line"/>
      <point x="238" y="0" type="line"/>
      <point x="284.197" y="262" type="line" smooth="yes"/>
      <point x="300.42" y="354"/>
      <point x="339.113" y="443"/>
      <point x="441.523" y="451" type="curve" smooth="yes"/>
      <point x="488.229" y="455"/>
      <point x="536.939" y="425"/>
      <point x="521.422" y="337" type="curve" smooth="yes"/>
      <point x="462" y="0" type="line"/>
      <point x="587" y="0" type="line"/>
    </contour>
    <contour>
      <point x="276" y="0" type="line"/>
      <point x="327" y="0" type="line"/>
      <point x="341.812" y="84" type="line"/>
      <point x="290.812" y="84" type="line"/>
    </contour>
    <contour>
      <point x="89.8115" y="84" type="line"/>
      <point x="34.8115" y="84" type="line"/>
      <point x="20" y="0" type="line"/>
      <point x="75" y="0" type="line"/>
    </contour>
    <contour>
      <point x="438.812" y="84" type="line"/>
      <point x="387.812" y="84" type="line"/>
      <point x="373" y="0" type="line"/>
      <point x="424" y="0" type="line"/>
    </contour>
    <contour>
      <point x="625" y="0" type="line"/>
      <point x="676" y="0" type="line"/>
      <point x="690.812" y="84" type="line"/>
      <point x="639.812" y="84" type="line"/>
    </contour>
    <contour>
      <point x="166.834" y="520.813" type="line"/>
      <point x="111.337" y="518" type="line"/>
      <point x="98.8184" y="447" type="line"/>
      <point x="153.818" y="447" type="line"/>
    </contour>
  </outline>
</glyph>
<glyph name="o" format="1">
  <advance width="645"/>
  <unicode hex="006F"/>
  <outline>
    <contour>
      <point x="375.581" y="457" type="curve" smooth="yes"/>
      <point x="485.581" y="457"/>
      <point x="485.48" y="343"/>
      <point x="470.14" y="256" type="curve" smooth="yes"/>
      <point x="456.491" y="178.595"/>
      <point x="413.439" y="86.042"/>
      <point x="325.386" y="75.9121" type="curve"/>
      <point x="309.781" y="-12.585" type="line"/>
      <point x="460.974" y="-4.74316"/>
      <point x="576.966" y="113.229"/>
      <point x="603.197" y="262" type="curve" smooth="yes"/>
      <point x="630.705" y="418"/>
      <point x="549.864" y="538"/>
      <point x="389.864" y="538" type="curve" smooth="yes"/>
      <point x="229.864" y="538"/>
      <point x="106.705" y="418"/>
      <point x="79.1973" y="262" type="curve" smooth="yes"/>
      <point x="52.9727" y="113.272"/>
      <point x="126.299" y="-1.82422"/>
      <point x="271.843" y="-12.2324" type="curve"/>
      <point x="287.523" y="76.6924" type="line"/>
      <point x="207.245" y="89.9395"/>
      <point x="196.475" y="178.502"/>
      <point x="210.14" y="256" type="curve" smooth="yes"/>
      <point x="225.48" y="343"/>
      <point x="265.581" y="457"/>
    </contour>
  </outline>
</glyph>
<glyph name="p" format="1">
  <advance width="671"/>
  <unicode hex="0070"/>
  <outline>
    <contour>
      <point x="136.396" y="524" type="line"/>
      <point x="79.3955" y="524" type="line"/>
      <point x="65.8184" y="447" type="line"/>
      <point x="122.818" y="447" type="line"/>
    </contour>
    <contour>
      <point x="210.439" y="-196" type="line"/>
      <point x="276.439" y="-196" type="line"/>
      <point x="292.31" y="-106" type="line"/>
      <point x="226.31" y="-106" type="line"/>
    </contour>
    <contour>
      <point x="9.43945" y="-196" type="line"/>
      <point x="24.7803" y="-109" type="line"/>
      <point x="-32.2197" y="-109" type="line"/>
      <point x="-47.5605" y="-196" type="line"/>
    </contour>
    <contour>
      <point x="249.143" y="239" type="line" smooth="yes"/>
      <point x="272.417" y="371"/>
      <point x="323.171" y="449"/>
      <point x="404.171" y="449" type="curve" smooth="yes"/>
      <point x="488.171" y="449"/>
      <point x="502.067" y="352"/>
      <point x="487.256" y="268" type="curve" smooth="yes"/>
      <point x="471.915" y="181"/>
      <point x="431.813" y="67"/>
      <point x="337.813" y="67" type="curve" smooth="yes"/>
      <point x="301.545" y="67"/>
      <point x="277.832" y="81.4551"/>
      <point x="263.333" y="103.972" type="curve"/>
      <point x="248.94" y="22.3477" type="line"/>
      <point x="275.316" y="-1.94629"/>
      <point x="311.347" y="-13"/>
      <point x="350.708" y="-13" type="curve" smooth="yes"/>
      <point x="486.708" y="-13"/>
      <point x="590.69" y="106"/>
      <point x="618.197" y="262" type="curve" smooth="yes"/>
      <point x="645.705" y="418"/>
      <point x="584.864" y="538"/>
      <point x="454.864" y="538" type="curve" smooth="yes"/>
      <point x="401.864" y="538"/>
      <point x="333.337" y="518"/>
      <point x="283.173" y="432" type="curve"/>
      <point x="299.396" y="524" type="line"/>
      <point x="174.396" y="524" type="line"/>
      <point x="47.4395" y="-196" type="line"/>
      <point x="172.439" y="-196" type="line"/>
    </contour>
  </outline>
</glyph>
<glyph name="q" format="1">
  <advance width="647"/>
  <unicode hex="0071"/>
  <outline>
    <contour>
      <point x="325.616" y="-195" type="line"/>
      <point x="340.604" y="-110" type="line"/>
      <point x="273.604" y="-110" type="line"/>
      <point x="258.616" y="-195" type="line"/>
    </contour>
    <contour>
      <point x="526.616" y="-195" type="line"/>
      <point x="582.616" y="-195" type="line"/>
      <point x="597.604" y="-110" type="line"/>
      <point x="541.604" y="-110" type="line"/>
    </contour>
    <contour>
      <point x="363.616" y="-195" type="line"/>
      <point x="488.616" y="-195" type="line"/>
      <point x="615.396" y="524" type="line"/>
      <point x="553.396" y="524" type="line"/>
      <point x="498.818" y="447" type="line"/>
      <point x="465.222" y="506"/>
      <point x="409.864" y="538"/>
      <point x="344.864" y="538" type="curve" smooth="yes"/>
      <point x="214.864" y="538"/>
      <point x="106.705" y="418"/>
      <point x="79.1973" y="262" type="curve" smooth="yes"/>
      <point x="51.6904" y="106"/>
      <point x="120.531" y="-14"/>
      <point x="256.531" y="-14" type="curve" smooth="yes"/>
      <point x="295.114" y="-14"/>
      <point x="331.534" y="-1.16699"/>
      <point x="363.853" y="21.8486" type="curve"/>
      <point x="378.333" y="103.972" type="line"/>
      <point x="355.893" y="81.4551"/>
      <point x="327.083" y="67"/>
      <point x="290.813" y="67" type="curve" smooth="yes"/>
      <point x="196.813" y="67"/>
      <point x="196.915" y="181"/>
      <point x="212.256" y="268" type="curve" smooth="yes"/>
      <point x="227.067" y="352"/>
      <point x="275.347" y="450"/>
      <point x="359.347" y="450" type="curve" smooth="yes"/>
      <point x="440.347" y="450"/>
      <point x="463.417" y="371"/>
      <point x="440.143" y="239" type="curve" smooth="yes"/>
    </contour>
  </outline>
</glyph>
<glyph name="r" format="1">
  <advance width="477"/>
  <unicode hex="0072"/>
  <outline>
    <contour>
      <point x="154.818" y="447" type="line"/>
      <point x="167.886" y="521.111" type="line"/>
      <point x="111.337" y="518" type="line"/>
      <point x="98.8184" y="447" type="line"/>
    </contour>
    <contour>
      <point x="76" y="0" type="line"/>
      <point x="90.8115" y="84" type="line"/>
      <point x="39.8115" y="84" type="line"/>
      <point x="25" y="0" type="line"/>
    </contour>
    <contour>
      <point x="239" y="0" type="line"/>
      <point x="114" y="0" type="line"/>
      <point x="206.258" y="523.223" type="line"/>
      <point x="329.453" y="530" type="line"/>
      <point x="312.702" y="435" type="line"/>
      <point x="346.105" y="494"/>
      <point x="406.277" y="529"/>
      <point x="471.806" y="532" type="curve" smooth="yes"/>
      <point x="503.205" y="533.272"/>
      <point x="534.581" y="525.235"/>
      <point x="549.985" y="500.678" type="curve"/>
      <point x="542.112" y="505.706"/>
      <point x="526.91" y="511.447"/>
      <point x="498.279" y="512" type="curve" smooth="yes"/>
      <point x="431.161" y="513.295"/>
      <point x="397.868" y="460.272"/>
      <point x="393.119" y="452.062" type="curve"/>
      <point x="325.216" y="429.356"/>
      <point x="298.602" y="338.02"/>
      <point x="284.492" y="258" type="curve" smooth="yes"/>
    </contour>
    <contour>
      <point x="358.812" y="84" type="line"/>
      <point x="291.812" y="84" type="line"/>
      <point x="277" y="0" type="line"/>
      <point x="344" y="0" type="line"/>
    </contour>
    <contour>
      <point x="559.245" y="451.806" type="curve" smooth="yes"/>
      <point x="559.245" y="391.754"/>
      <point x="504.076" y="355"/>
      <point x="463.596" y="355" type="curve" smooth="yes"/>
      <point x="428.596" y="355"/>
      <point x="394.299" y="376"/>
      <point x="401.705" y="418" type="curve" smooth="yes"/>
      <point x="406.466" y="445"/>
      <point x="411.876" y="453"/>
      <point x="417.581" y="457" type="curve"/>
      <point x="417.581" y="457"/>
      <point x="444.166" y="483"/>
      <point x="492.166" y="483" type="curve" smooth="yes"/>
      <point x="535.253" y="483"/>
      <point x="559.245" y="466.259"/>
    </contour>
  </outline>
</glyph>
<glyph name="s" format="1">
  <advance width="579"/>
  <unicode hex="0073"/>
  <outline>
    <contour>
      <point x="255.355" y="-15" type="curve" smooth="yes"/>
      <point x="151.355" y="-15"/>
      <point x="34.8213" y="16"/>
      <point x="54.041" y="125" type="curve" smooth="yes"/>
      <point x="61.4463" y="167"/>
      <point x="102.561" y="196"/>
      <point x="138.561" y="196" type="curve" smooth="yes"/>
      <point x="169.561" y="196"/>
      <point x="196.21" y="177"/>
      <point x="188.98" y="136" type="curve" smooth="yes"/>
      <point x="185.63" y="117"/>
      <point x="163.575" y="94"/>
      <point x="148.988" y="85" type="curve"/>
      <point x="178.167" y="69"/>
      <point x="213.756" y="61"/>
      <point x="247.756" y="61" type="curve" smooth="yes"/>
      <point x="309.756" y="61"/>
      <point x="366.282" y="81"/>
      <point x="374.57" y="128" type="curve" smooth="yes"/>
      <point x="385.679" y="191"/>
      <point x="312.089" y="199"/>
      <point x="242.674" y="225" type="curve" smooth="yes"/>
      <point x="158.14" y="256"/>
      <point x="87.7246" y="282"/>
      <point x="106.768" y="390" type="curve" smooth="yes"/>
      <point x="125.811" y="498"/>
      <point x="257.688" y="537"/>
      <point x="331.688" y="537" type="curve" smooth="yes"/>
      <point x="420.688" y="537"/>
      <point x="561.514" y="519"/>
      <point x="541.06" y="403" type="curve" smooth="yes"/>
      <point x="533.654" y="361"/>
      <point x="492.717" y="333"/>
      <point x="456.717" y="333" type="curve" smooth="yes"/>
      <point x="425.717" y="333"/>
      <point x="399.067" y="352"/>
      <point x="406.297" y="393" type="curve" smooth="yes"/>
      <point x="410.176" y="415"/>
      <point x="434.231" y="438"/>
      <point x="447.937" y="442" type="curve"/>
      <point x="424.287" y="461"/>
      <point x="388.874" y="470"/>
      <point x="351.874" y="470" type="curve" smooth="yes"/>
      <point x="292.874" y="470"/>
      <point x="236.405" y="456"/>
      <point x="228.471" y="411" type="curve" smooth="yes"/>
      <point x="220.536" y="366"/>
      <point x="257.302" y="359"/>
      <point x="328.246" y="336" type="curve" smooth="yes"/>
      <point x="414.309" y="308"/>
      <point x="524.548" y="281"/>
      <point x="501.802" y="152" type="curve" smooth="yes"/>
      <point x="480.113" y="29"/>
      <point x="354.355" y="-15"/>
    </contour>
  </outline>
</glyph>
<glyph name="t" format="1">
  <advance width="514"/>
  <unicode hex="0074"/>
  <outline>
    <contour>
      <point x="135.365" y="518.161" type="line"/>
      <point x="113.236" y="503.076"/>
      <point x="88.8037" y="490.503"/>
      <point x="61.9893" y="482" type="curve"/>
      <point x="55.9941" y="448" type="line"/>
      <point x="122.994" y="448" type="line"/>
    </contour>
    <contour>
      <point x="105.98" y="136" type="line" smooth="yes"/>
      <point x="87.4658" y="31"/>
      <point x="169.708" y="-13"/>
      <point x="232.708" y="-13" type="curve" smooth="yes"/>
      <point x="361.708" y="-13"/>
      <point x="415.698" y="55"/>
      <point x="439.149" y="188" type="curve" smooth="yes"/>
      <point x="448.495" y="241" type="line"/>
      <point x="377.495" y="241" type="line"/>
      <point x="367.092" y="182" type="line" smooth="yes"/>
      <point x="354.572" y="111"/>
      <point x="328.459" y="82"/>
      <point x="285.459" y="82" type="curve" smooth="yes"/>
      <point x="232.459" y="82"/>
      <point x="234.275" y="132"/>
      <point x="237.272" y="149" type="curve" smooth="yes"/>
      <point x="289.818" y="447" type="line"/>
      <point x="467.818" y="447" type="line"/>
      <point x="481.396" y="524" type="line"/>
      <point x="303.396" y="524" type="line"/>
      <point x="338.837" y="725" type="line" smooth="yes"/>
      <point x="340.776" y="736"/>
      <point x="332.835" y="742"/>
      <point x="322.835" y="742" type="curve" smooth="yes"/>
      <point x="312.835" y="742"/>
      <point x="302.776" y="736"/>
      <point x="297.837" y="725" type="curve" smooth="yes"/>
      <point x="283.083" y="694.306"/>
      <point x="244.789" y="615.969"/>
      <point x="179.714" y="554.164" type="curve"/>
    </contour>
  </outline>
</glyph>
<glyph name="u" format="1">
  <advance width="676"/>
  <unicode hex="0075"/>
  <outline>
    <contour>
      <point x="106.152" y="171" type="line" smooth="yes"/>
      <point x="76.5293" y="3"/>
      <point x="195.708" y="-13"/>
      <point x="248.708" y="-13" type="curve" smooth="yes"/>
      <point x="313.708" y="-13"/>
      <point x="398.056" y="23"/>
      <point x="432.575" y="94" type="curve"/>
      <point x="415.295" y="-4" type="line"/>
      <point x="538.248" y="1.40918" type="line"/>
      <point x="630.396" y="524" type="line"/>
      <point x="505.396" y="524" type="line"/>
      <point x="454.613" y="236" type="line" smooth="yes"/>
      <point x="437.862" y="141"/>
      <point x="383.872" y="73"/>
      <point x="299.872" y="73" type="curve" smooth="yes"/>
      <point x="259.872" y="73"/>
      <point x="217.398" y="93"/>
      <point x="230.446" y="167" type="curve" smooth="yes"/>
      <point x="293.396" y="524" type="line"/>
      <point x="168.396" y="524" type="line"/>
    </contour>
    <contour>
      <point x="576.546" y="3.09375" type="line"/>
      <point x="619.882" y="5" type="line"/>
      <point x="633.812" y="84" type="line"/>
      <point x="590.812" y="84" type="line"/>
    </contour>
    <contour>
      <point x="130.396" y="524" type="line"/>
      <point x="80.3955" y="524" type="line"/>
      <point x="66.8184" y="447" type="line"/>
      <point x="116.818" y="447" type="line"/>
    </contour>
    <contour>
      <point x="467.396" y="524" type="line"/>
      <point x="414.396" y="524" type="line"/>
      <point x="400.818" y="447" type="line"/>
      <point x="453.818" y="447" type="line"/>
    </contour>
  </outline>
</glyph>
<glyph name="v" format="1">
  <advance width="725"/>
  <unicode hex="0076"/>
  <outline>
    <contour>
      <point x="327.061" y="-11" type="curve" smooth="yes"/>
      <point x="288.061" y="-11"/>
      <point x="274.939" y="11"/>
      <point x="254.162" y="103" type="curve"/>
      <point x="170.818" y="447" type="line"/>
      <point x="184.396" y="524" type="line"/>
      <point x="330.396" y="524" type="line"/>
      <point x="316.818" y="447" type="line"/>
      <point x="372.92" y="147" type="line"/>
      <point x="542.818" y="447" type="line"/>
      <point x="556.396" y="524" type="line"/>
      <point x="659.396" y="524" type="line"/>
      <point x="645.818" y="447" type="line"/>
      <point x="451.454" y="116" type="line"/>
      <point x="392.292" y="13"/>
      <point x="369.061" y="-11"/>
    </contour>
    <contour>
      <point x="132.818" y="447" type="line"/>
      <point x="79.8184" y="447" type="line"/>
      <point x="93.3955" y="524" type="line"/>
      <point x="146.396" y="524" type="line"/>
    </contour>
    <contour>
      <point x="368.396" y="524" type="line"/>
      <point x="406.396" y="524" type="line"/>
      <point x="392.818" y="447" type="line"/>
      <point x="354.818" y="447" type="line"/>
    </contour>
    <contour>
      <point x="556.396" y="524" type="move"/>
    </contour>
    <contour>
      <point x="504.818" y="447" type="line"/>
      <point x="459.818" y="447" type="line"/>
      <point x="473.396" y="524" type="line"/>
      <point x="518.396" y="524" type="line"/>
    </contour>
    <contour>
      <point x="697.396" y="524" type="line"/>
      <point x="736.396" y="524" type="line"/>
      <point x="722.818" y="447" type="line"/>
      <point x="683.818" y="447" type="line"/>
    </contour>
  </outline>
</glyph>
<glyph name="w" format="1">
  <advance width="943"/>
  <unicode hex="0077"/>
  <outline>
    <contour>
      <point x="587.061" y="-11" type="curve" smooth="yes"/>
      <point x="548.061" y="-11"/>
      <point x="543.231" y="24"/>
      <point x="522.923" y="130" type="curve" smooth="yes"/>
      <point x="489.133" y="307" type="line"/>
      <point x="392.804" y="135" type="line" smooth="yes"/>
      <point x="324.116" y="12"/>
      <point x="308.061" y="-11"/>
      <point x="265.061" y="-11" type="curve" smooth="yes"/>
      <point x="223.061" y="-11"/>
      <point x="213.231" y="24"/>
      <point x="203.159" y="120" type="curve" smooth="yes"/>
      <point x="168.818" y="447" type="line"/>
      <point x="182.396" y="524" type="line"/>
      <point x="316.396" y="524" type="line"/>
      <point x="302.818" y="447" type="line"/>
      <point x="318.92" y="147" type="line"/>
      <point x="476.055" y="437" type="line"/>
      <point x="568.055" y="437" type="line"/>
      <point x="621.92" y="147" type="line"/>
      <point x="752.818" y="447" type="line"/>
      <point x="766.396" y="524" type="line"/>
      <point x="862.396" y="524" type="line"/>
      <point x="848.818" y="447" type="line"/>
      <point x="699.804" y="135" type="line" smooth="yes"/>
      <point x="638.234" y="7"/>
      <point x="627.061" y="-11"/>
    </contour>
    <contour>
      <point x="130.818" y="447" type="line"/>
      <point x="85.8184" y="447" type="line"/>
      <point x="99.3955" y="524" type="line"/>
      <point x="144.396" y="524" type="line"/>
    </contour>
    <contour>
      <point x="354.396" y="524" type="line"/>
      <point x="388.396" y="524" type="line"/>
      <point x="374.818" y="447" type="line"/>
      <point x="340.818" y="447" type="line"/>
    </contour>
    <contour>
      <point x="900.396" y="524" type="line"/>
      <point x="948.396" y="524" type="line"/>
      <point x="934.818" y="447" type="line"/>
      <point x="886.818" y="447" type="line"/>
    </contour>
    <contour>
      <point x="714.818" y="447" type="line"/>
      <point x="672.818" y="447" type="line"/>
      <point x="686.396" y="524" type="line"/>
      <point x="728.396" y="524" type="line"/>
    </contour>
  </outline>
</glyph>
<glyph name="x" format="1">
  <advance width="756"/>
  <unicode hex="0078"/>
  <outline>
    <contour>
      <point x="128.818" y="447" type="line"/>
      <point x="102.818" y="447" type="line"/>
      <point x="107.932" y="476" type="line"/>
    </contour>
    <contour>
      <point x="648" y="0" type="line"/>
      <point x="504" y="0" type="line"/>
      <point x="360.794" y="203" type="line"/>
      <point x="126" y="0" type="line"/>
      <point x="17" y="0" type="line"/>
      <point x="318.021" y="261" type="line"/>
      <point x="123.396" y="524" type="line"/>
      <point x="277.396" y="524" type="line"/>
      <point x="409.599" y="338" type="line"/>
      <point x="633.396" y="524" type="line"/>
      <point x="738.396" y="524" type="line"/>
      <point x="448.371" y="280" type="line"/>
    </contour>
    <contour>
      <point x="327.396" y="524" type="line"/>
      <point x="406.396" y="524" type="line"/>
      <point x="392.818" y="447" type="line"/>
      <point x="382.818" y="447" type="line"/>
    </contour>
    <contour>
      <point x="666.935" y="45" type="line"/>
      <point x="638.812" y="84" type="line"/>
      <point x="673.812" y="84" type="line"/>
    </contour>
    <contour>
      <point x="453" y="0" type="line"/>
      <point x="366" y="0" type="line"/>
      <point x="380.812" y="84" type="line"/>
      <point x="393.812" y="84" type="line"/>
    </contour>
    <contour>
      <point x="276.812" y="84" type="line"/>
      <point x="305.812" y="84" type="line"/>
      <point x="291" y="0" type="line"/>
      <point x="179" y="0" type="line"/>
    </contour>
    <contour>
      <point x="27.5801" y="60" type="line"/>
      <point x="31.8115" y="84" type="line"/>
      <point x="55.8115" y="84" type="line"/>
    </contour>
    <contour>
      <point x="734.755" y="475" type="line"/>
      <point x="729.818" y="447" type="line"/>
      <point x="701.818" y="447" type="line"/>
    </contour>
    <contour>
      <point x="485.818" y="447" type="line"/>
      <point x="450.818" y="447" type="line"/>
      <point x="464.396" y="524" type="line"/>
      <point x="579.396" y="524" type="line"/>
    </contour>
  </outline>
</glyph>
<glyph name="y" format="1">
  <advance width="716"/>
  <unicode hex="0079"/>
  <outline>
    <contour>
      <point x="132.143" y="524" type="line"/>
      <point x="281.677" y="524" type="line"/>
      <point x="358.394" y="127" type="line"/>
      <point x="554.75" y="524" type="line"/>
      <point x="670.562" y="524" type="line"/>
      <point x="386.647" y="-2" type="line" smooth="yes"/>
      <point x="326.251" y="-112"/>
      <point x="254.857" y="-239"/>
      <point x="116.329" y="-242" type="curve" smooth="yes"/>
      <point x="110.329" y="-242" type="line" smooth="yes"/>
      <point x="21.3291" y="-242"/>
      <point x="-44.4414" y="-201"/>
      <point x="-29.6299" y="-117" type="curve" smooth="yes"/>
      <point x="-22.4004" y="-76"/>
      <point x="17.123" y="-39"/>
      <point x="65.123" y="-39" type="curve" smooth="yes"/>
      <point x="106.123" y="-39"/>
      <point x="129.715" y="-64"/>
      <point x="123.015" y="-102" type="curve" smooth="yes"/>
      <point x="118.783" y="-126"/>
      <point x="100.316" y="-157"/>
      <point x="83.8477" y="-171" type="curve"/>
      <point x="91.4951" y="-173"/>
      <point x="100.319" y="-174"/>
      <point x="112.319" y="-174" type="curve" smooth="yes"/>
      <point x="169.319" y="-174"/>
      <point x="213.898" y="-114"/>
      <point x="259" y="0" type="curve"/>
    </contour>
    <contour>
      <point x="710.886" y="524" type="line"/>
      <point x="720.396" y="524" type="line"/>
      <point x="706.818" y="447" type="line"/>
      <point x="669.979" y="447" type="line"/>
    </contour>
    <contour>
      <point x="476.789" y="447" type="line"/>
      <point x="443.818" y="447" type="line"/>
      <point x="457.396" y="524" type="line"/>
      <point x="514.872" y="524" type="line"/>
    </contour>
    <contour>
      <point x="322.21" y="524" type="line"/>
      <point x="386.396" y="524" type="line"/>
      <point x="372.818" y="447" type="line"/>
      <point x="337.21" y="447" type="line"/>
    </contour>
    <contour>
      <point x="109.749" y="447" type="line"/>
      <point x="59.8184" y="447" type="line"/>
      <point x="73.3955" y="524" type="line"/>
      <point x="90.9131" y="524" type="line"/>
    </contour>
  </outline>
</glyph>
<glyph name="z" format="1">
  <advance width="603"/>
  <unicode hex="007A"/>
  <outline>
    <contour>
      <point x="545.577" y="77" type="line"/>
      <point x="532" y="0" type="line"/>
      <point x="64" y="0" type="line"/>
      <point x="69.3984" y="93" type="line"/>
      <point x="451.818" y="447" type="line"/>
      <point x="127.818" y="447" type="line"/>
      <point x="141.396" y="524" type="line"/>
      <point x="589.396" y="524" type="line"/>
      <point x="581.292" y="427" type="line"/>
      <point x="208.577" y="77" type="line"/>
    </contour>
    <contour>
      <point x="221.118" y="409" type="line"/>
      <point x="201.369" y="297" type="line"/>
      <point x="101.369" y="297" type="line"/>
      <point x="121.118" y="409" type="line"/>
    </contour>
    <contour>
      <point x="455.277" y="115" type="line"/>
      <point x="474.85" y="226" type="line"/>
      <point x="571.85" y="226" type="line"/>
      <point x="552.277" y="115" type="line"/>
    </contour>
  </outline>
</glyph>
<glyph name="braceleft" format="1">
  <advance width="523"/>
  <unicode hex="007B"/>
  <outline>
    <contour>
      <point x="229.543" y="315" type="curve"/>
      <point x="291.898" y="300"/>
      <point x="302.964" y="255"/>
      <point x="280.041" y="125" type="curve" smooth="yes"/>
      <point x="249.184" y="-50"/>
      <point x="238.718" y="-81"/>
      <point x="366.718" y="-81" type="curve"/>
      <point x="355.785" y="-143" type="line"/>
      <point x="146.785" y="-143"/>
      <point x="93.7178" y="-81"/>
      <point x="128.277" y="115" type="curve" smooth="yes"/>
      <point x="153.14" y="256"/>
      <point x="166.961" y="272"/>
      <point x="98.9609" y="272" type="curve" smooth="yes"/>
      <point x="42.9609" y="272" type="line"/>
      <point x="58.125" y="358" type="line"/>
      <point x="114.125" y="358" type="line" smooth="yes"/>
      <point x="182.125" y="358"/>
      <point x="173.946" y="374"/>
      <point x="198.809" y="515" type="curve" smooth="yes"/>
      <point x="233.368" y="711"/>
      <point x="308.301" y="773"/>
      <point x="517.301" y="773" type="curve"/>
      <point x="506.368" y="711" type="line"/>
      <point x="378.368" y="711"/>
      <point x="377.902" y="680"/>
      <point x="347.045" y="505" type="curve" smooth="yes"/>
      <point x="324.123" y="375"/>
      <point x="297.188" y="330"/>
    </contour>
  </outline>
</glyph>
<glyph name="bar" format="1">
  <advance width="388"/>
  <unicode hex="007C"/>
  <outline>
    <contour>
      <point x="196.841" y="-120" type="line"/>
      <point x="98.8408" y="-120" type="line"/>
      <point x="258.24" y="784" type="line"/>
      <point x="356.24" y="784" type="line"/>
    </contour>
  </outline>
</glyph>
<glyph name="asciitilde" format="1">
  <advance width="548"/>
  <unicode hex="007E"/>
  <outline>
    <contour>
      <point x="460.468" y="428" type="curve" smooth="yes"/>
      <point x="418.468" y="428"/>
      <point x="286.712" y="367"/>
      <point x="212.712" y="367" type="curve" smooth="yes"/>
      <point x="126.712" y="367"/>
      <point x="92.5312" y="400"/>
      <point x="114.396" y="524" type="curve"/>
      <point x="185.396" y="524" type="line"/>
      <point x="177.284" y="478"/>
      <point x="189.521" y="468"/>
      <point x="215.521" y="468" type="curve" smooth="yes"/>
      <point x="256.521" y="468"/>
      <point x="386.396" y="524"/>
      <point x="462.396" y="524" type="curve" smooth="yes"/>
      <point x="547.396" y="524"/>
      <point x="582.93" y="493"/>
      <point x="560.889" y="368" type="curve"/>
      <point x="489.889" y="368" type="line"/>
      <point x="497.999" y="414"/>
      <point x="486.468" y="428"/>
    </contour>
  </outline>
</glyph>
<glyph name="cent" format="1">
  <advance width="560"/>
  <unicode hex="00A2"/>
  <outline>
    <contour>
      <point x="273" y="630" type="line"/>
      <point x="273" y="-104" type="line"/>
      <point x="316" y="-104" type="line"/>
      <point x="316" y="630" type="line"/>
    </contour>
    <contour>
      <point x="33" y="252" type="curve" smooth="yes"/>
      <point x="33" y="91"/>
      <point x="153" y="-13"/>
      <point x="291" y="-13" type="curve" smooth="yes"/>
      <point x="411" y="-13"/>
      <point x="504" y="59"/>
      <point x="528" y="164" type="curve"/>
      <point x="464" y="188" type="line"/>
      <point x="449" y="152"/>
      <point x="411" y="79"/>
      <point x="327" y="79" type="curve" smooth="yes"/>
      <point x="218" y="79"/>
      <point x="169" y="165"/>
      <point x="169" y="280" type="curve" smooth="yes"/>
      <point x="169" y="379"/>
      <point x="224" y="473"/>
      <point x="322" y="473" type="curve" smooth="yes"/>
      <point x="375" y="473"/>
      <point x="412" y="453"/>
      <point x="432" y="421" type="curve"/>
      <point x="406" y="421"/>
      <point x="366" y="403"/>
      <point x="366" y="359" type="curve" smooth="yes"/>
      <point x="366" y="353" type="line" smooth="yes"/>
      <point x="369" y="317"/>
      <point x="396" y="296"/>
      <point x="435" y="296" type="curve" smooth="yes"/>
      <point x="487" y="296"/>
      <point x="515" y="336"/>
      <point x="515" y="369" type="curve" smooth="yes"/>
      <point x="515" y="495"/>
      <point x="397" y="539"/>
      <point x="305" y="539" type="curve" smooth="yes"/>
      <point x="130" y="539"/>
      <point x="33" y="408"/>
    </contour>
  </outline>
</glyph>
<glyph name="sterling" format="1">
  <advance width="621"/>
  <unicode hex="00A3"/>
  <outline>
    <contour>
      <point x="559" y="242" type="line"/>
      <point x="559" y="0" type="line"/>
      <point x="83" y="0" type="line"/>
      <point x="52" y="83" type="line"/>
      <point x="100" y="138"/>
      <point x="153" y="205"/>
      <point x="153" y="305" type="curve" smooth="yes"/>
      <point x="153" y="315" type="line"/>
      <point x="69" y="315" type="line"/>
      <point x="80" y="389" type="line"/>
      <point x="146" y="389" type="line"/>
      <point x="126" y="475"/>
      <point x="91" y="510"/>
      <point x="90" y="564" type="curve" smooth="yes"/>
      <point x="90" y="566" type="line" smooth="yes"/>
      <point x="90" y="669"/>
      <point x="188" y="734"/>
      <point x="334" y="737" type="curve" smooth="yes"/>
      <point x="339" y="737" type="line" smooth="yes"/>
      <point x="450" y="737"/>
      <point x="561" y="680"/>
      <point x="561" y="570" type="curve" smooth="yes"/>
      <point x="561" y="513"/>
      <point x="526" y="481"/>
      <point x="475" y="481" type="curve" smooth="yes"/>
      <point x="434" y="481"/>
      <point x="397" y="508"/>
      <point x="393" y="552" type="curve" smooth="yes"/>
      <point x="393" y="557" type="line" smooth="yes"/>
      <point x="393" y="592"/>
      <point x="423" y="621"/>
      <point x="443" y="627" type="curve"/>
      <point x="419" y="647"/>
      <point x="394" y="665"/>
      <point x="346" y="665" type="curve" smooth="yes"/>
      <point x="261" y="665"/>
      <point x="215" y="631"/>
      <point x="215" y="567" type="curve" smooth="yes"/>
      <point x="215" y="511"/>
      <point x="258" y="467"/>
      <point x="277" y="389" type="curve"/>
      <point x="414" y="389" type="line"/>
      <point x="401" y="316" type="line"/>
      <point x="285" y="316" type="line"/>
      <point x="285" y="306" type="line" smooth="yes"/>
      <point x="285" y="212"/>
      <point x="234" y="137"/>
      <point x="174" y="84" type="curve"/>
      <point x="468" y="84" type="line"/>
      <point x="468" y="242" type="line"/>
    </contour>
  </outline>
</glyph>
<glyph name="currency" format="1">
  <advance width="581"/>
  <unicode hex="00A4"/>
  <outline>
    <contour>
      <point x="303" y="656" type="curve" smooth="yes"/>
      <point x="213" y="656"/>
      <point x="157" y="583"/>
      <point x="157" y="498" type="curve" smooth="yes"/>
      <point x="157" y="395"/>
      <point x="218" y="342"/>
      <point x="304" y="342" type="curve" smooth="yes"/>
      <point x="393" y="342"/>
      <point x="452" y="407"/>
      <point x="452" y="498" type="curve" smooth="yes"/>
      <point x="452" y="593"/>
      <point x="393" y="656"/>
    </contour>
    <contour>
      <point x="497" y="266" type="line"/>
      <point x="444" y="319" type="line"/>
      <point x="403" y="290"/>
      <point x="353" y="274"/>
      <point x="302" y="274" type="curve" smooth="yes"/>
      <point x="251" y="274"/>
      <point x="202" y="289"/>
      <point x="163" y="318" type="curve"/>
      <point x="110" y="265" type="line"/>
      <point x="67" y="307" type="line"/>
      <point x="119" y="359" type="line"/>
      <point x="91" y="395"/>
      <point x="74" y="442"/>
      <point x="74" y="496" type="curve" smooth="yes"/>
      <point x="74" y="553"/>
      <point x="93" y="602"/>
      <point x="124" y="639" type="curve"/>
      <point x="67" y="696" type="line"/>
      <point x="109" y="738" type="line"/>
      <point x="167" y="680" type="line"/>
      <point x="206" y="708"/>
      <point x="254" y="723"/>
      <point x="304" y="723" type="curve" smooth="yes"/>
      <point x="355" y="723"/>
      <point x="403" y="708"/>
      <point x="442" y="681" type="curve"/>
      <point x="498" y="737" type="line"/>
      <point x="540" y="695" type="line"/>
      <point x="486" y="641" type="line"/>
      <point x="516" y="603"/>
      <point x="535" y="554"/>
      <point x="535" y="496" type="curve" smooth="yes"/>
      <point x="535" y="442"/>
      <point x="517" y="396"/>
      <point x="487" y="360" type="curve"/>
      <point x="539" y="308" type="line"/>
    </contour>
  </outline>
</glyph>
<glyph name="yen" format="1">
  <advance width="821"/>
  <unicode hex="00A5"/>
  <outline>
    <contour>
      <point x="608" y="282" type="line"/>
      <point x="608" y="218" type="line"/>
      <point x="192" y="218" type="line"/>
      <point x="192" y="282" type="line"/>
    </contour>
    <contour>
      <point x="608" y="383" type="line"/>
      <point x="608" y="319" type="line"/>
      <point x="192" y="319" type="line"/>
      <point x="192" y="383" type="line"/>
    </contour>
    <contour>
      <point x="210" y="0" type="line"/>
      <point x="210" y="87" type="line"/>
      <point x="329" y="87" type="line"/>
      <point x="329" y="321" type="line"/>
      <point x="125" y="652" type="line"/>
      <point x="6" y="652" type="line"/>
      <point x="6" y="742" type="line"/>
      <point x="379" y="742" type="line"/>
      <point x="379" y="652" type="line"/>
      <point x="270" y="652" type="line"/>
      <point x="425" y="397" type="line"/>
      <point x="589" y="652" type="line"/>
      <point x="479" y="652" type="line"/>
      <point x="479" y="742" type="line"/>
      <point x="808" y="742" type="line"/>
      <point x="808" y="652" type="line"/>
      <point x="694" y="652" type="line"/>
      <point x="474" y="319" type="line"/>
      <point x="474" y="87" type="line"/>
      <point x="586" y="87" type="line"/>
      <point x="586" y="0" type="line"/>
    </contour>
  </outline>
</glyph>
<glyph name="brokenbar" format="1">
  <advance width="338"/>
  <unicode hex="00A6"/>
  <outline>
    <contour>
      <point x="218" y="219" type="line"/>
      <point x="218" y="-120" type="line"/>
      <point x="120" y="-120" type="line"/>
      <point x="120" y="219" type="line"/>
    </contour>
    <contour>
      <point x="218" y="784" type="line"/>
      <point x="218" y="445" type="line"/>
      <point x="120" y="445" type="line"/>
      <point x="120" y="784" type="line"/>
    </contour>
  </outline>
</glyph>
<glyph name="section" format="1">
  <advance width="505"/>
  <unicode hex="00A7"/>
  <outline>
    <contour>
      <point x="342" y="285" type="curve"/>
      <point x="344" y="287" type="line"/>
      <point x="358" y="299"/>
      <point x="366" y="314"/>
      <point x="366" y="333" type="curve" smooth="yes"/>
      <point x="366" y="396"/>
      <point x="277" y="404"/>
      <point x="203" y="430" type="curve" smooth="yes"/>
      <point x="190" y="435"/>
      <point x="177" y="439"/>
      <point x="164" y="444" type="curve"/>
      <point x="153" y="432"/>
      <point x="146" y="418"/>
      <point x="146" y="401" type="curve" smooth="yes"/>
      <point x="146" y="338"/>
      <point x="229" y="325"/>
      <point x="303" y="299" type="curve" smooth="yes"/>
      <point x="316" y="294"/>
      <point x="329" y="290"/>
    </contour>
    <contour>
      <point x="248" y="-8" type="curve" smooth="yes"/>
      <point x="159" y="-8"/>
      <point x="36" y="23"/>
      <point x="36" y="126" type="curve" smooth="yes"/>
      <point x="36" y="168"/>
      <point x="72" y="196"/>
      <point x="108" y="196" type="curve" smooth="yes"/>
      <point x="139" y="196"/>
      <point x="169" y="177"/>
      <point x="169" y="136" type="curve" smooth="yes"/>
      <point x="169" y="104"/>
      <point x="141" y="85"/>
      <point x="125" y="83" type="curve"/>
      <point x="153" y="59"/>
      <point x="197" y="49"/>
      <point x="239" y="49" type="curve" smooth="yes"/>
      <point x="298" y="49"/>
      <point x="350" y="73"/>
      <point x="350" y="118" type="curve" smooth="yes"/>
      <point x="350" y="163"/>
      <point x="312" y="170"/>
      <point x="237" y="193" type="curve" smooth="yes"/>
      <point x="146" y="221"/>
      <point x="31" y="248"/>
      <point x="31" y="377" type="curve" smooth="yes"/>
      <point x="31" y="426"/>
      <point x="51" y="463"/>
      <point x="80" y="489" type="curve"/>
      <point x="54" y="513"/>
      <point x="38" y="545"/>
      <point x="38" y="595" type="curve" smooth="yes"/>
      <point x="38" y="698"/>
      <point x="172" y="735"/>
      <point x="246" y="735" type="curve" smooth="yes"/>
      <point x="335" y="735"/>
      <point x="470" y="717"/>
      <point x="470" y="601" type="curve" smooth="yes"/>
      <point x="470" y="559"/>
      <point x="434" y="531"/>
      <point x="398" y="531" type="curve" smooth="yes"/>
      <point x="367" y="531"/>
      <point x="337" y="550"/>
      <point x="337" y="591" type="curve" smooth="yes"/>
      <point x="337" y="623"/>
      <point x="365" y="643"/>
      <point x="381" y="645" type="curve"/>
      <point x="353" y="669"/>
      <point x="311" y="681"/>
      <point x="269" y="681" type="curve" smooth="yes"/>
      <point x="210" y="681"/>
      <point x="156" y="658"/>
      <point x="156" y="613" type="curve" smooth="yes"/>
      <point x="156" y="568"/>
      <point x="194" y="557"/>
      <point x="269" y="534" type="curve" smooth="yes"/>
      <point x="360" y="506"/>
      <point x="475" y="486"/>
      <point x="475" y="357" type="curve" smooth="yes"/>
      <point x="475" y="307"/>
      <point x="455" y="270"/>
      <point x="425" y="243" type="curve"/>
      <point x="452" y="221"/>
      <point x="468" y="190"/>
      <point x="468" y="139" type="curve" smooth="yes"/>
      <point x="468" y="31"/>
      <point x="342" y="-8"/>
    </contour>
  </outline>
</glyph>
<glyph name="logicalnot" format="1">
  <advance width="485"/>
  <unicode hex="00AC"/>
  <outline>
    <contour>
      <point x="414" y="420" type="line"/>
      <point x="23" y="420" type="line"/>
      <point x="23" y="341" type="line"/>
      <point x="298" y="341" type="line"/>
      <point x="298" y="163" type="line"/>
      <point x="414" y="163" type="line"/>
    </contour>
  </outline>
</glyph>
<glyph name="registered" format="1">
  <advance width="832"/>
  <unicode hex="00AE"/>
  <outline>
    <contour>
      <point x="416" y="-13" type="curve" smooth="yes"/>
      <point x="211" y="-13"/>
      <point x="41" y="157"/>
      <point x="41" y="363" type="curve" smooth="yes"/>
      <point x="41" y="568"/>
      <point x="211" y="737"/>
      <point x="416" y="737" type="curve" smooth="yes"/>
      <point x="622" y="737"/>
      <point x="791" y="568"/>
      <point x="791" y="363" type="curve" smooth="yes"/>
      <point x="791" y="157"/>
      <point x="622" y="-13"/>
    </contour>
    <contour>
      <point x="417" y="34" type="curve" smooth="yes"/>
      <point x="599" y="34"/>
      <point x="747" y="183"/>
      <point x="747" y="364" type="curve" smooth="yes"/>
      <point x="747" y="546"/>
      <point x="599" y="694"/>
      <point x="417" y="694" type="curve" smooth="yes"/>
      <point x="236" y="694"/>
      <point x="87" y="546"/>
      <point x="87" y="364" type="curve" smooth="yes"/>
      <point x="87" y="183"/>
      <point x="236" y="34"/>
    </contour>
    <contour>
      <point x="548" y="160" type="curve" smooth="yes"/>
      <point x="479" y="160"/>
      <point x="458" y="198"/>
      <point x="445" y="278" type="curve"/>
      <point x="435" y="333"/>
      <point x="408" y="364"/>
      <point x="400" y="364" type="curve" smooth="yes"/>
      <point x="350" y="364" type="line"/>
      <point x="350" y="206" type="line"/>
      <point x="400" y="206" type="line"/>
      <point x="400" y="168" type="line"/>
      <point x="214" y="168" type="line"/>
      <point x="214" y="206" type="line"/>
      <point x="275" y="206" type="line"/>
      <point x="275" y="540" type="line"/>
      <point x="214" y="540" type="line"/>
      <point x="214" y="579" type="line"/>
      <point x="373" y="579" type="line" smooth="yes"/>
      <point x="453" y="579"/>
      <point x="570" y="574"/>
      <point x="570" y="468" type="curve"/>
      <point x="569" y="406"/>
      <point x="519" y="383"/>
      <point x="461" y="372" type="curve"/>
      <point x="564" y="350"/>
      <point x="514" y="207"/>
      <point x="560" y="207" type="curve" smooth="yes"/>
      <point x="580" y="207"/>
      <point x="591" y="221"/>
      <point x="591" y="262" type="curve" smooth="yes"/>
      <point x="591" y="297" type="line"/>
      <point x="641" y="297" type="line"/>
      <point x="641" y="256" type="line" smooth="yes"/>
      <point x="641" y="175"/>
      <point x="586" y="160"/>
    </contour>
    <contour>
      <point x="350" y="397" type="line"/>
      <point x="375" y="397" type="line" smooth="yes"/>
      <point x="455" y="397"/>
      <point x="494" y="416"/>
      <point x="494" y="468" type="curve"/>
      <point x="492" y="525"/>
      <point x="459" y="540"/>
      <point x="373" y="540" type="curve" smooth="yes"/>
      <point x="350" y="540" type="line"/>
    </contour>
  </outline>
</glyph>
<glyph name="macron" format="1">
  <advance width="406"/>
  <unicode hex="00AF"/>
  <outline>
    <contour>
      <point x="355" y="635" type="line"/>
      <point x="51" y="635" type="line"/>
      <point x="51" y="722" type="line"/>
      <point x="355" y="722" type="line"/>
    </contour>
  </outline>
</glyph>
<glyph name="degree" format="1">
  <advance width="370"/>
  <unicode hex="00B0"/>
  <outline>
    <contour>
      <point x="31" y="594" type="curve" smooth="yes"/>
      <point x="31" y="512"/>
      <point x="89" y="450"/>
      <point x="185" y="450" type="curve" smooth="yes"/>
      <point x="282" y="450"/>
      <point x="339" y="514"/>
      <point x="339" y="594" type="curve" smooth="yes"/>
      <point x="339" y="674"/>
      <point x="282" y="737"/>
      <point x="185" y="737" type="curve" smooth="yes"/>
      <point x="87" y="737"/>
      <point x="31" y="674"/>
    </contour>
    <contour>
      <point x="185" y="694" type="curve" smooth="yes"/>
      <point x="227" y="694"/>
      <point x="272" y="660"/>
      <point x="272" y="594" type="curve" smooth="yes"/>
      <point x="272" y="530"/>
      <point x="226" y="497"/>
      <point x="184" y="497" type="curve" smooth="yes"/>
      <point x="141" y="497"/>
      <point x="98" y="527"/>
      <point x="98" y="594" type="curve" smooth="yes"/>
      <point x="98" y="660"/>
      <point x="143" y="694"/>
    </contour>
  </outline>
</glyph>
<glyph name="plusminus" format="1">
  <advance width="696"/>
  <unicode hex="00B1"/>
  <outline>
    <contour>
      <point x="531" y="0" type="line"/>
      <point x="167" y="0" type="line"/>
      <point x="167" y="87" type="line"/>
      <point x="531" y="87" type="line"/>
    </contour>
    <contour>
      <point x="152" y="301" type="line"/>
      <point x="152" y="398" type="line"/>
      <point x="544" y="398" type="line"/>
      <point x="544" y="301" type="line"/>
    </contour>
    <contour>
      <point x="292" y="525" type="line"/>
      <point x="404" y="525" type="line"/>
      <point x="404" y="185" type="line"/>
      <point x="292" y="185" type="line"/>
    </contour>
  </outline>
</glyph>
<glyph name="twosuperior" format="1">
  <advance width="509"/>
  <unicode hex="00B2"/>
  <outline>
    <contour>
      <point x="413" y="401" type="line"/>
      <point x="426" y="271" type="line"/>
      <point x="387" y="267" type="line"/>
      <point x="352" y="335" type="line"/>
      <point x="110" y="335" type="line"/>
      <point x="110" y="335"/>
      <point x="103" y="408"/>
      <point x="102" y="408" type="curve" smooth="yes"/>
      <point x="102" y="408"/>
      <point x="260" y="525"/>
      <point x="268" y="532" type="curve" smooth="yes"/>
      <point x="311" y="565"/>
      <point x="323" y="586"/>
      <point x="323" y="622" type="curve" smooth="yes"/>
      <point x="323" y="658"/>
      <point x="297" y="692"/>
      <point x="249" y="692" type="curve" smooth="yes"/>
      <point x="219" y="692"/>
      <point x="191" y="678"/>
      <point x="171" y="657" type="curve"/>
      <point x="188" y="652"/>
      <point x="210" y="637"/>
      <point x="210" y="611" type="curve" smooth="yes"/>
      <point x="210" y="572"/>
      <point x="185" y="552"/>
      <point x="151" y="552" type="curve" smooth="yes"/>
      <point x="108" y="552"/>
      <point x="90" y="589"/>
      <point x="89" y="616" type="curve"/>
      <point x="89" y="619" type="line" smooth="yes"/>
      <point x="89" y="680"/>
      <point x="168" y="741"/>
      <point x="264" y="741" type="curve" smooth="yes"/>
      <point x="356" y="741"/>
      <point x="410" y="695"/>
      <point x="410" y="605" type="curve" smooth="yes"/>
      <point x="410" y="562"/>
      <point x="395" y="518"/>
      <point x="305" y="463" type="curve" smooth="yes"/>
      <point x="204" y="401" type="line"/>
    </contour>
  </outline>
</glyph>
<glyph name="acute" format="1">
  <advance width="620"/>
  <unicode hex="00B4"/>
  <outline>
    <contour>
      <point x="484" y="698" type="curve"/>
      <point x="419" y="788" type="line"/>
      <point x="419" y="788"/>
      <point x="276" y="687"/>
      <point x="187" y="611" type="curve"/>
      <point x="212" y="576" type="line"/>
      <point x="212" y="576"/>
      <point x="435" y="648"/>
    </contour>
  </outline>
</glyph>
<glyph name="paragraph" format="1">
  <advance width="591"/>
  <unicode hex="00B6"/>
  <outline>
    <contour>
      <point x="389" y="359" type="line"/>
      <point x="389" y="-28" type="line"/>
      <point x="306" y="-28" type="line"/>
      <point x="306" y="359" type="line"/>
      <point x="276" y="359" type="line" smooth="yes"/>
      <point x="139" y="359"/>
      <point x="72" y="449"/>
      <point x="72" y="540" type="curve" smooth="yes"/>
      <point x="72" y="631"/>
      <point x="139" y="722"/>
      <point x="271" y="722" type="curve" smooth="yes"/>
      <point x="540" y="722" type="line"/>
      <point x="540" y="-28" type="line"/>
      <point x="460" y="-28" type="line"/>
      <point x="460" y="359" type="line"/>
    </contour>
  </outline>
</glyph>
<glyph name="periodcentered" format="1">
  <advance width="397"/>
  <unicode hex="00B7"/>
  <outline>
    <contour>
      <point x="288" y="434" type="curve" smooth="yes"/>
      <point x="288" y="385"/>
      <point x="247" y="344"/>
      <point x="198" y="344" type="curve" smooth="yes"/>
      <point x="149" y="344"/>
      <point x="108" y="385"/>
      <point x="108" y="434" type="curve" smooth="yes"/>
      <point x="108" y="484"/>
      <point x="149" y="524"/>
      <point x="198" y="524" type="curve" smooth="yes"/>
      <point x="247" y="524"/>
      <point x="288" y="484"/>
    </contour>
  </outline>
</glyph>
<glyph name="guillemotright" format="1">
  <advance width="467"/>
  <unicode hex="00BB"/>
  <outline>
    <contour>
      <point x="50" y="116" type="line"/>
      <point x="50" y="247" type="line"/>
      <point x="167" y="328" type="line"/>
      <point x="50" y="403" type="line"/>
      <point x="50" y="528" type="line"/>
      <point x="92" y="492"/>
      <point x="239" y="367"/>
      <point x="239" y="367" type="curve"/>
      <point x="239" y="281" type="line"/>
    </contour>
    <contour>
      <point x="263" y="116" type="line"/>
      <point x="263" y="247" type="line"/>
      <point x="380" y="328" type="line"/>
      <point x="263" y="403" type="line"/>
      <point x="263" y="528" type="line"/>
      <point x="305" y="492"/>
      <point x="452" y="367"/>
      <point x="452" y="367" type="curve"/>
      <point x="452" y="281" type="line"/>
    </contour>
  </outline>
</glyph>
<glyph name="onequarter" format="1">
  <advance width="917"/>
  <unicode hex="00BC"/>
  <outline>
    <contour>
      <point x="672" y="178" type="line"/>
      <point x="672" y="335" type="line"/>
      <point x="572" y="178" type="line"/>
    </contour>
    <contour>
      <point x="822" y="56" type="line"/>
      <point x="822" y="0" type="line"/>
      <point x="601" y="0" type="line"/>
      <point x="601" y="56" type="line"/>
      <point x="672" y="56" type="line"/>
      <point x="672" y="122" type="line"/>
      <point x="502" y="122" type="line"/>
      <point x="502" y="182" type="line"/>
      <point x="656" y="398" type="line"/>
      <point x="758" y="398" type="line"/>
      <point x="758" y="178" type="line"/>
      <point x="822" y="178" type="line"/>
      <point x="822" y="122" type="line"/>
      <point x="758" y="122" type="line"/>
      <point x="758" y="56" type="line"/>
    </contour>
    <contour>
      <point x="127" y="362" type="line"/>
      <point x="127" y="418" type="line"/>
      <point x="190" y="418" type="line"/>
      <point x="190" y="678" type="line"/>
      <point x="127" y="661" type="line"/>
      <point x="127" y="724" type="line"/>
      <point x="276" y="762" type="line"/>
      <point x="276" y="418" type="line"/>
      <point x="337" y="418" type="line"/>
      <point x="337" y="362" type="line"/>
    </contour>
    <contour>
      <point x="681" y="737" type="line"/>
      <point x="161" y="14" type="line"/>
      <point x="217" y="-30" type="line"/>
      <point x="737" y="693" type="line"/>
    </contour>
  </outline>
</glyph>
<glyph name="questiondown" format="1">
  <advance width="532"/>
  <unicode hex="00BF"/>
  <outline>
    <contour>
      <point x="280" y="519" type="curve"/>
      <point x="322" y="519" type="line"/>
      <point x="322" y="342"/>
      <point x="183" y="282"/>
      <point x="183" y="173" type="curve" smooth="yes"/>
      <point x="183" y="81"/>
      <point x="246" y="63"/>
      <point x="298" y="63" type="curve" smooth="yes"/>
      <point x="338" y="63"/>
      <point x="387" y="78"/>
      <point x="405" y="119" type="curve"/>
      <point x="376" y="119"/>
      <point x="324" y="134"/>
      <point x="324" y="191" type="curve" smooth="yes"/>
      <point x="324" y="239"/>
      <point x="357" y="273"/>
      <point x="403" y="273" type="curve" smooth="yes"/>
      <point x="464" y="273"/>
      <point x="497" y="225"/>
      <point x="499" y="186" type="curve"/>
      <point x="499" y="176" type="line" smooth="yes"/>
      <point x="499" y="57"/>
      <point x="384" y="-10"/>
      <point x="272" y="-10" type="curve" smooth="yes"/>
      <point x="176" y="-10"/>
      <point x="43" y="17"/>
      <point x="40" y="176" type="curve" smooth="yes"/>
      <point x="40" y="179" type="line" smooth="yes"/>
      <point x="40" y="322"/>
      <point x="241" y="400"/>
    </contour>
    <contour>
      <point x="218" y="657" type="curve" smooth="yes"/>
      <point x="218" y="700"/>
      <point x="256" y="737"/>
      <point x="299" y="737" type="curve" smooth="yes"/>
      <point x="343" y="737"/>
      <point x="379" y="700"/>
      <point x="379" y="657" type="curve" smooth="yes"/>
      <point x="379" y="613"/>
      <point x="343" y="576"/>
      <point x="299" y="576" type="curve" smooth="yes"/>
      <point x="256" y="576"/>
      <point x="218" y="613"/>
    </contour>
  </outline>
</glyph>
<glyph name="Ccedilla" format="1">
  <advance width="755"/>
  <unicode hex="00C7"/>
  <outline>
    <contour>
      <point x="442" y="-135" type="line" smooth="yes"/>
      <point x="442" y="-198"/>
      <point x="310" y="-217"/>
      <point x="310" y="-217" type="curve"/>
      <point x="296" y="-182" type="line"/>
      <point x="328" y="-176"/>
      <point x="367" y="-164"/>
      <point x="367" y="-150" type="curve" smooth="yes"/>
      <point x="367" y="-129"/>
      <point x="321" y="-106"/>
      <point x="321" y="-82" type="curve" smooth="yes"/>
      <point x="321" y="-47"/>
      <point x="364" y="0"/>
      <point x="423" y="0" type="curve" smooth="yes"/>
      <point x="442" y="0" type="line"/>
    </contour>
    <contour>
      <point x="706" y="264" type="line"/>
      <point x="681" y="93"/>
      <point x="577" y="-13"/>
      <point x="391" y="-13" type="curve" smooth="yes"/>
      <point x="174" y="-13"/>
      <point x="44" y="170"/>
      <point x="44" y="379" type="curve" smooth="yes"/>
      <point x="44" y="573"/>
      <point x="190" y="757"/>
      <point x="405" y="757" type="curve" smooth="yes"/>
      <point x="527" y="757"/>
      <point x="672" y="684"/>
      <point x="672" y="532" type="curve" smooth="yes"/>
      <point x="672" y="491"/>
      <point x="639" y="441"/>
      <point x="576" y="441" type="curve" smooth="yes"/>
      <point x="530" y="441"/>
      <point x="496" y="466"/>
      <point x="493" y="512" type="curve" smooth="yes"/>
      <point x="493" y="519" type="line" smooth="yes"/>
      <point x="493" y="575"/>
      <point x="541" y="597"/>
      <point x="572" y="597" type="curve"/>
      <point x="545" y="637"/>
      <point x="501" y="662"/>
      <point x="419" y="663" type="curve" smooth="yes"/>
      <point x="274" y="665"/>
      <point x="209" y="512"/>
      <point x="209" y="377" type="curve" smooth="yes"/>
      <point x="209" y="235"/>
      <point x="280" y="90"/>
      <point x="426" y="90" type="curve" smooth="yes"/>
      <point x="552" y="90"/>
      <point x="595" y="183"/>
      <point x="616" y="264" type="curve"/>
    </contour>
  </outline>
</glyph>
<glyph name="multiply" format="1">
  <advance width="696"/>
  <unicode hex="00D7"/>
  <outline>
    <contour>
      <point x="475" y="486" type="line"/>
      <point x="554" y="407" type="line"/>
      <point x="221" y="74" type="line"/>
      <point x="142" y="153" type="line"/>
    </contour>
    <contour>
      <point x="142" y="407" type="line"/>
      <point x="221" y="486" type="line"/>
      <point x="554" y="153" type="line"/>
      <point x="475" y="74" type="line"/>
    </contour>
  </outline>
</glyph>
<glyph name="Oslash" format="1">
  <advance width="776"/>
  <unicode hex="00D8"/>
  <outline>
    <contour>
      <point x="699" y="750" type="line"/>
      <point x="49" y="-18" type="line"/>
      <point x="81" y="-44" type="line"/>
      <point x="731" y="724" type="line"/>
    </contour>
    <contour>
      <point x="394" y="662" type="curve"/>
      <point x="518" y="659"/>
      <point x="585" y="509"/>
      <point x="585" y="370" type="curve" smooth="yes"/>
      <point x="585" y="230"/>
      <point x="518" y="82"/>
      <point x="394" y="82" type="curve" smooth="yes"/>
      <point x="270" y="82"/>
      <point x="203" y="232"/>
      <point x="203" y="372" type="curve" smooth="yes"/>
      <point x="203" y="512"/>
      <point x="270" y="662"/>
    </contour>
    <contour>
      <point x="394" y="-13" type="curve" smooth="yes"/>
      <point x="627" y="-13"/>
      <point x="744" y="184"/>
      <point x="744" y="372" type="curve" smooth="yes"/>
      <point x="744" y="559"/>
      <point x="627" y="757"/>
      <point x="394" y="757" type="curve" smooth="yes"/>
      <point x="160" y="757"/>
      <point x="44" y="559"/>
      <point x="44" y="372" type="curve" smooth="yes"/>
      <point x="44" y="184"/>
      <point x="160" y="-13"/>
    </contour>
  </outline>
</glyph>
<glyph name="Thorn" format="1">
  <advance width="725"/>
  <unicode hex="00DE"/>
  <outline>
    <contour>
      <point x="23" y="0" type="line"/>
      <point x="23" y="87" type="line"/>
      <point x="142" y="87" type="line"/>
      <point x="142" y="655" type="line"/>
      <point x="20" y="655" type="line"/>
      <point x="20" y="742" type="line"/>
      <point x="406" y="742" type="line"/>
      <point x="406" y="655" type="line"/>
      <point x="287" y="655" type="line"/>
      <point x="287" y="577" type="line"/>
      <point x="379" y="577" type="line" smooth="yes"/>
      <point x="496" y="577"/>
      <point x="680" y="572"/>
      <point x="680" y="381" type="curve" smooth="yes"/>
      <point x="680" y="189"/>
      <point x="499" y="185"/>
      <point x="332" y="185" type="curve" smooth="yes"/>
      <point x="287" y="185" type="line"/>
      <point x="287" y="87" type="line"/>
      <point x="409" y="87" type="line"/>
      <point x="409" y="0" type="line"/>
    </contour>
    <contour>
      <point x="341" y="262" type="line" smooth="yes"/>
      <point x="435" y="262"/>
      <point x="525" y="264"/>
      <point x="525" y="377" type="curve" smooth="yes"/>
      <point x="525" y="487"/>
      <point x="453" y="499"/>
      <point x="331" y="499" type="curve" smooth="yes"/>
      <point x="287" y="499" type="line"/>
      <point x="287" y="262" type="line"/>
    </contour>
  </outline>
</glyph>
<glyph name="aring" format="1">
  <advance width="659"/>
  <unicode hex="00E5"/>
  <outline>
    <contour>
      <point x="174" y="691" type="curve" smooth="yes"/>
      <point x="174" y="641"/>
      <point x="212" y="590"/>
      <point x="283" y="590" type="curve" smooth="yes"/>
      <point x="354" y="590"/>
      <point x="392" y="640"/>
      <point x="392" y="690" type="curve" smooth="yes"/>
      <point x="392" y="740"/>
      <point x="354" y="790"/>
      <point x="283" y="790" type="curve" smooth="yes"/>
      <point x="211" y="790"/>
      <point x="174" y="741"/>
    </contour>
    <contour>
      <point x="283" y="749" type="curve" smooth="yes"/>
      <point x="309" y="749"/>
      <point x="334" y="729"/>
      <point x="334" y="690" type="curve" smooth="yes"/>
      <point x="334" y="652"/>
      <point x="308" y="632"/>
      <point x="282" y="632" type="curve" smooth="yes"/>
      <point x="257" y="632"/>
      <point x="231" y="651"/>
      <point x="231" y="690" type="curve" smooth="yes"/>
      <point x="231" y="729"/>
      <point x="258" y="749"/>
    </contour>
    <contour>
      <point x="502" y="-14" type="curve" smooth="yes"/>
      <point x="498" y="-14" type="line" smooth="yes"/>
      <point x="436" y="-13"/>
      <point x="379" y="10"/>
      <point x="359" y="83" type="curve"/>
      <point x="325" y="26"/>
      <point x="259" y="-13"/>
      <point x="181" y="-13" type="curve" smooth="yes"/>
      <point x="99" y="-13"/>
      <point x="43" y="31"/>
      <point x="43" y="116" type="curve" smooth="yes"/>
      <point x="43" y="280"/>
      <point x="353" y="248"/>
      <point x="353" y="373" type="curve" smooth="yes"/>
      <point x="353" y="452"/>
      <point x="309" y="476"/>
      <point x="251" y="476" type="curve" smooth="yes"/>
      <point x="225" y="476"/>
      <point x="198" y="471"/>
      <point x="175" y="460" type="curve"/>
      <point x="197" y="457"/>
      <point x="220" y="421"/>
      <point x="220" y="393" type="curve" smooth="yes"/>
      <point x="220" y="389" type="line" smooth="yes"/>
      <point x="220" y="350"/>
      <point x="189" y="319"/>
      <point x="140" y="319" type="curve" smooth="yes"/>
      <point x="89" y="319"/>
      <point x="60" y="355"/>
      <point x="60" y="402" type="curve" smooth="yes"/>
      <point x="60" y="404" type="line" smooth="yes"/>
      <point x="61" y="487"/>
      <point x="163" y="539"/>
      <point x="262" y="539" type="curve" smooth="yes"/>
      <point x="366" y="539"/>
      <point x="478" y="500"/>
      <point x="478" y="363" type="curve" smooth="yes"/>
      <point x="478" y="155" type="line" smooth="yes"/>
      <point x="478" y="122"/>
      <point x="482" y="69"/>
      <point x="527" y="69" type="curve" smooth="yes"/>
      <point x="569" y="69"/>
      <point x="574" y="115"/>
      <point x="574" y="153" type="curve" smooth="yes"/>
      <point x="574" y="218" type="line"/>
      <point x="639" y="218" type="line"/>
      <point x="639" y="150" type="line" smooth="yes"/>
      <point x="639" y="17"/>
      <point x="574" y="-14"/>
    </contour>
    <contour>
      <point x="207" y="64" type="curve" smooth="yes"/>
      <point x="255" y="64"/>
      <point x="350" y="123"/>
      <point x="350" y="183" type="curve" smooth="yes"/>
      <point x="350" y="272" type="line"/>
      <point x="235" y="180"/>
      <point x="162" y="188"/>
      <point x="162" y="119" type="curve" smooth="yes"/>
      <point x="162" y="89"/>
      <point x="174" y="64"/>
    </contour>
  </outline>
</glyph>
<glyph name="ae" format="1">
  <advance width="844"/>
  <unicode hex="00E6"/>
  <outline>
    <contour>
      <point x="613" y="-14" type="curve" smooth="yes"/>
      <point x="525" y="-14"/>
      <point x="436" y="38"/>
      <point x="406" y="105" type="curve"/>
      <point x="357" y="30"/>
      <point x="287" y="-14"/>
      <point x="180" y="-14" type="curve" smooth="yes"/>
      <point x="96" y="-14"/>
      <point x="40" y="56"/>
      <point x="40" y="124" type="curve" smooth="yes"/>
      <point x="40" y="226"/>
      <point x="113" y="270"/>
      <point x="356" y="313" type="curve"/>
      <point x="356" y="353" type="line" smooth="yes"/>
      <point x="356" y="426"/>
      <point x="324" y="467"/>
      <point x="253" y="467" type="curve" smooth="yes"/>
      <point x="245" y="467" type="line"/>
      <point x="216" y="466"/>
      <point x="188" y="458"/>
      <point x="165" y="445" type="curve"/>
      <point x="184" y="438"/>
      <point x="202" y="406"/>
      <point x="202" y="389" type="curve" smooth="yes"/>
      <point x="202" y="347"/>
      <point x="165" y="320"/>
      <point x="129" y="320" type="curve" smooth="yes"/>
      <point x="93" y="320"/>
      <point x="57" y="346"/>
      <point x="57" y="407" type="curve" smooth="yes"/>
      <point x="57" y="480"/>
      <point x="148" y="538"/>
      <point x="252" y="538" type="curve" smooth="yes"/>
      <point x="321" y="538"/>
      <point x="395" y="521"/>
      <point x="430" y="447" type="curve"/>
      <point x="472" y="512"/>
      <point x="544" y="536"/>
      <point x="615" y="539" type="curve"/>
      <point x="623" y="539" type="line" smooth="yes"/>
      <point x="761" y="539"/>
      <point x="818" y="405"/>
      <point x="818" y="288" type="curve"/>
      <point x="486" y="252" type="line"/>
      <point x="489" y="140"/>
      <point x="528" y="76"/>
      <point x="623" y="76" type="curve" smooth="yes"/>
      <point x="686" y="76"/>
      <point x="722" y="120"/>
      <point x="750" y="185" type="curve"/>
      <point x="822" y="153" type="line"/>
      <point x="798" y="50"/>
      <point x="717" y="-14"/>
    </contour>
    <contour>
      <point x="492" y="329" type="curve"/>
      <point x="718" y="356" type="line"/>
      <point x="717" y="408"/>
      <point x="685" y="470"/>
      <point x="625" y="470" type="curve"/>
      <point x="554" y="468"/>
      <point x="501" y="419"/>
    </contour>
    <contour>
      <point x="216" y="68" type="curve" smooth="yes"/>
      <point x="294" y="68"/>
      <point x="344" y="134"/>
      <point x="377" y="180" type="curve"/>
      <point x="372" y="190"/>
      <point x="365" y="232"/>
      <point x="365" y="232" type="curve"/>
      <point x="194" y="204"/>
      <point x="153" y="181"/>
      <point x="153" y="129" type="curve" smooth="yes"/>
      <point x="153" y="102"/>
      <point x="178" y="68"/>
    </contour>
  </outline>
</glyph>
<glyph name="ccedilla" format="1">
  <advance width="557"/>
  <unicode hex="00E7"/>
  <outline>
    <contour>
      <point x="348" y="-135" type="line" smooth="yes"/>
      <point x="348" y="-198"/>
      <point x="216" y="-217"/>
      <point x="216" y="-217" type="curve"/>
      <point x="202" y="-182" type="line"/>
      <point x="234" y="-176"/>
      <point x="273" y="-164"/>
      <point x="273" y="-150" type="curve" smooth="yes"/>
      <point x="273" y="-129"/>
      <point x="227" y="-106"/>
      <point x="227" y="-82" type="curve" smooth="yes"/>
      <point x="227" y="-47"/>
      <point x="270" y="0"/>
      <point x="329" y="0" type="curve" smooth="yes"/>
      <point x="348" y="0" type="line"/>
    </contour>
    <contour>
      <point x="33" y="252" type="curve" smooth="yes"/>
      <point x="33" y="91"/>
      <point x="153" y="-13"/>
      <point x="291" y="-13" type="curve" smooth="yes"/>
      <point x="411" y="-13"/>
      <point x="504" y="59"/>
      <point x="528" y="164" type="curve"/>
      <point x="464" y="188" type="line"/>
      <point x="449" y="152"/>
      <point x="411" y="79"/>
      <point x="327" y="79" type="curve" smooth="yes"/>
      <point x="218" y="79"/>
      <point x="169" y="165"/>
      <point x="169" y="280" type="curve" smooth="yes"/>
      <point x="169" y="379"/>
      <point x="224" y="473"/>
      <point x="322" y="473" type="curve" smooth="yes"/>
      <point x="375" y="473"/>
      <point x="412" y="453"/>
      <point x="432" y="421" type="curve"/>
      <point x="406" y="421"/>
      <point x="366" y="403"/>
      <point x="366" y="359" type="curve" smooth="yes"/>
      <point x="366" y="353" type="line" smooth="yes"/>
      <point x="369" y="317"/>
      <point x="396" y="296"/>
      <point x="435" y="296" type="curve" smooth="yes"/>
      <point x="487" y="296"/>
      <point x="515" y="336"/>
      <point x="515" y="369" type="curve" smooth="yes"/>
      <point x="515" y="495"/>
      <point x="397" y="539"/>
      <point x="305" y="539" type="curve" smooth="yes"/>
      <point x="130" y="539"/>
      <point x="33" y="408"/>
    </contour>
  </outline>
</glyph>
<glyph name="eacute" format="1">
  <advance width="588"/>
  <unicode hex="00E9"/>
  <outline>
    <contour>
      <point x="292" y="-14" type="line" smooth="yes"/>
      <point x="144" y="-13"/>
      <point x="33" y="93"/>
      <point x="33" y="261" type="curve" smooth="yes"/>
      <point x="33" y="416"/>
      <point x="142" y="539"/>
      <point x="282" y="539" type="curve" smooth="yes"/>
      <point x="418" y="539"/>
      <point x="526" y="448"/>
      <point x="529" y="267" type="curve"/>
      <point x="165" y="267" type="line"/>
      <point x="165" y="262"/>
      <point x="164" y="257"/>
      <point x="164" y="251" type="curve" smooth="yes"/>
      <point x="164" y="173"/>
      <point x="205" y="80"/>
      <point x="312" y="83" type="curve" smooth="yes"/>
      <point x="377" y="85"/>
      <point x="423" y="136"/>
      <point x="443" y="185" type="curve"/>
      <point x="515" y="153" type="line"/>
      <point x="488" y="42"/>
      <point x="395" y="-14"/>
      <point x="295" y="-14" type="curve" smooth="yes"/>
    </contour>
    <contour>
      <point x="294" y="465" type="curve" smooth="yes"/>
      <point x="223" y="465"/>
      <point x="178" y="394"/>
      <point x="169" y="330" type="curve"/>
      <point x="402" y="330" type="line"/>
      <point x="402" y="406"/>
      <point x="364" y="465"/>
    </contour>
    <contour>
      <point x="484" y="698" type="curve"/>
      <point x="419" y="788" type="line"/>
      <point x="419" y="788"/>
      <point x="276" y="687"/>
      <point x="187" y="611" type="curve"/>
      <point x="212" y="576" type="line"/>
      <point x="212" y="576"/>
      <point x="435" y="648"/>
    </contour>
  </outline>
</glyph>
<glyph name="ecircumflex" format="1">
  <advance width="568"/>
  <unicode hex="00EA"/>
  <outline>
    <contour>
      <point x="304" y="690" type="curve"/>
      <point x="342" y="656"/>
      <point x="404" y="569"/>
      <point x="404" y="569" type="curve"/>
      <point x="462" y="623" type="line"/>
      <point x="302" y="797" type="line"/>
      <point x="143" y="626" type="line"/>
      <point x="201" y="571" type="line"/>
      <point x="201" y="571"/>
      <point x="266" y="656"/>
    </contour>
    <contour>
      <point x="292" y="-14" type="line" smooth="yes"/>
      <point x="144" y="-13"/>
      <point x="33" y="93"/>
      <point x="33" y="261" type="curve" smooth="yes"/>
      <point x="33" y="416"/>
      <point x="142" y="539"/>
      <point x="282" y="539" type="curve" smooth="yes"/>
      <point x="418" y="539"/>
      <point x="526" y="448"/>
      <point x="529" y="267" type="curve"/>
      <point x="165" y="267" type="line"/>
      <point x="165" y="262"/>
      <point x="164" y="257"/>
      <point x="164" y="251" type="curve" smooth="yes"/>
      <point x="164" y="173"/>
      <point x="205" y="80"/>
      <point x="312" y="83" type="curve" smooth="yes"/>
      <point x="377" y="85"/>
      <point x="423" y="136"/>
      <point x="443" y="185" type="curve"/>
      <point x="515" y="153" type="line"/>
      <point x="488" y="42"/>
      <point x="395" y="-14"/>
      <point x="295" y="-14" type="curve" smooth="yes"/>
    </contour>
    <contour>
      <point x="294" y="465" type="curve" smooth="yes"/>
      <point x="223" y="465"/>
      <point x="178" y="394"/>
      <point x="169" y="330" type="curve"/>
      <point x="402" y="330" type="line"/>
      <point x="402" y="406"/>
      <point x="364" y="465"/>
    </contour>
  </outline>
</glyph>
<glyph name="otilde" format="1">
  <advance width="590"/>
  <unicode hex="00F5"/>
  <outline>
    <contour>
      <point x="296" y="-13" type="curve" smooth="yes"/>
      <point x="455" y="-13"/>
      <point x="557" y="108"/>
      <point x="557" y="262" type="curve" smooth="yes"/>
      <point x="557" y="418"/>
      <point x="455" y="538"/>
      <point x="295" y="538" type="curve" smooth="yes"/>
      <point x="135" y="538"/>
      <point x="33" y="418"/>
      <point x="33" y="262" type="curve" smooth="yes"/>
      <point x="33" y="106"/>
      <point x="136" y="-13"/>
    </contour>
    <contour>
      <point x="295" y="457" type="curve" smooth="yes"/>
      <point x="405" y="457"/>
      <point x="425" y="343"/>
      <point x="425" y="256" type="curve" smooth="yes"/>
      <point x="425" y="174"/>
      <point x="395" y="75"/>
      <point x="296" y="75" type="curve" smooth="yes"/>
      <point x="196" y="75"/>
      <point x="165" y="172"/>
      <point x="165" y="256" type="curve" smooth="yes"/>
      <point x="165" y="343"/>
      <point x="185" y="457"/>
    </contour>
    <contour>
      <point x="370" y="655" type="curve" smooth="yes"/>
      <point x="335" y="655"/>
      <point x="291" y="608"/>
      <point x="233" y="608" type="curve" smooth="yes"/>
      <point x="173" y="608"/>
      <point x="145" y="660"/>
      <point x="145" y="747" type="curve"/>
      <point x="208" y="747" type="line"/>
      <point x="208" y="719"/>
      <point x="216" y="701"/>
      <point x="240" y="701" type="curve" smooth="yes"/>
      <point x="275" y="701"/>
      <point x="319" y="748"/>
      <point x="377" y="748" type="curve" smooth="yes"/>
      <point x="437" y="748"/>
      <point x="465" y="696"/>
      <point x="465" y="609" type="curve"/>
      <point x="402" y="609" type="line"/>
      <point x="402" y="637"/>
      <point x="394" y="655"/>
    </contour>
  </outline>
</glyph>
<glyph name="oslash" format="1">
  <advance width="581"/>
  <unicode hex="00F8"/>
  <outline>
    <contour>
      <point x="543" y="581" type="line"/>
      <point x="23" y="-28" type="line"/>
      <point x="55" y="-54" type="line"/>
      <point x="575" y="555" type="line"/>
    </contour>
    <contour>
      <point x="296" y="-13" type="curve" smooth="yes"/>
      <point x="455" y="-13"/>
      <point x="557" y="108"/>
      <point x="557" y="262" type="curve" smooth="yes"/>
      <point x="557" y="418"/>
      <point x="455" y="538"/>
      <point x="295" y="538" type="curve" smooth="yes"/>
      <point x="135" y="538"/>
      <point x="33" y="418"/>
      <point x="33" y="262" type="curve" smooth="yes"/>
      <point x="33" y="106"/>
      <point x="136" y="-13"/>
    </contour>
    <contour>
      <point x="295" y="457" type="curve" smooth="yes"/>
      <point x="405" y="457"/>
      <point x="425" y="343"/>
      <point x="425" y="256" type="curve" smooth="yes"/>
      <point x="425" y="174"/>
      <point x="395" y="75"/>
      <point x="296" y="75" type="curve" smooth="yes"/>
      <point x="196" y="75"/>
      <point x="165" y="172"/>
      <point x="165" y="256" type="curve" smooth="yes"/>
      <point x="165" y="343"/>
      <point x="185" y="457"/>
    </contour>
  </outline>
</glyph>
<glyph name="thorn" format="1">
  <advance width="605"/>
  <unicode hex="00FE"/>
  <outline>
    <contour>
      <point x="-13" y="-196" type="line"/>
      <point x="311" y="-196" type="line"/>
      <point x="311" y="-106" type="line"/>
      <point x="207" y="-106" type="line"/>
      <point x="207" y="66" type="line"/>
      <point x="240" y="11"/>
      <point x="295" y="-13"/>
      <point x="353" y="-13" type="curve" smooth="yes"/>
      <point x="489" y="-13"/>
      <point x="572" y="106"/>
      <point x="572" y="262" type="curve" smooth="yes"/>
      <point x="572" y="418"/>
      <point x="490" y="538"/>
      <point x="360" y="538" type="curve" smooth="yes"/>
      <point x="307" y="538"/>
      <point x="242" y="518"/>
      <point x="207" y="432" type="curve"/>
      <point x="207" y="742" type="line"/>
      <point x="-21" y="742" type="line"/>
      <point x="-21" y="662" type="line"/>
      <point x="82" y="662" type="line"/>
      <point x="82" y="-109" type="line"/>
      <point x="-13" y="-109" type="line"/>
    </contour>
    <contour>
      <point x="326" y="67" type="curve" smooth="yes"/>
      <point x="235" y="67"/>
      <point x="207" y="158"/>
      <point x="207" y="239" type="curve" smooth="yes"/>
      <point x="207" y="371"/>
      <point x="244" y="449"/>
      <point x="325" y="449" type="curve" smooth="yes"/>
      <point x="409" y="449"/>
      <point x="440" y="352"/>
      <point x="440" y="268" type="curve" smooth="yes"/>
      <point x="440" y="181"/>
      <point x="420" y="67"/>
    </contour>
  </outline>
</glyph>
<glyph name="aogonek" format="1">
  <advance width="659"/>
  <unicode hex="0105"/>
  <outline>
    <contour>
      <point x="502" y="-14" type="curve" smooth="yes"/>
      <point x="498" y="-14" type="line" smooth="yes"/>
      <point x="436" y="-13"/>
      <point x="379" y="10"/>
      <point x="359" y="83" type="curve"/>
      <point x="325" y="26"/>
      <point x="259" y="-13"/>
      <point x="181" y="-13" type="curve" smooth="yes"/>
      <point x="99" y="-13"/>
      <point x="43" y="31"/>
      <point x="43" y="116" type="curve" smooth="yes"/>
      <point x="43" y="280"/>
      <point x="353" y="248"/>
      <point x="353" y="373" type="curve" smooth="yes"/>
      <point x="353" y="452"/>
      <point x="309" y="476"/>
      <point x="251" y="476" type="curve" smooth="yes"/>
      <point x="225" y="476"/>
      <point x="198" y="471"/>
      <point x="175" y="460" type="curve"/>
      <point x="197" y="457"/>
      <point x="220" y="421"/>
      <point x="220" y="393" type="curve" smooth="yes"/>
      <point x="220" y="389" type="line" smooth="yes"/>
      <point x="220" y="350"/>
      <point x="189" y="319"/>
      <point x="140" y="319" type="curve" smooth="yes"/>
      <point x="89" y="319"/>
      <point x="60" y="355"/>
      <point x="60" y="402" type="curve" smooth="yes"/>
      <point x="60" y="404" type="line" smooth="yes"/>
      <point x="61" y="487"/>
      <point x="163" y="539"/>
      <point x="262" y="539" type="curve" smooth="yes"/>
      <point x="366" y="539"/>
      <point x="478" y="500"/>
      <point x="478" y="363" type="curve" smooth="yes"/>
      <point x="478" y="155" type="line" smooth="yes"/>
      <point x="478" y="122"/>
      <point x="482" y="69"/>
      <point x="527" y="69" type="curve" smooth="yes"/>
      <point x="569" y="69"/>
      <point x="574" y="115"/>
      <point x="574" y="153" type="curve" smooth="yes"/>
      <point x="574" y="218" type="line"/>
      <point x="639" y="218" type="line"/>
      <point x="639" y="150" type="line" smooth="yes"/>
      <point x="639" y="17"/>
      <point x="574" y="-14"/>
    </contour>
    <contour>
      <point x="207" y="64" type="curve" smooth="yes"/>
      <point x="255" y="64"/>
      <point x="350" y="123"/>
      <point x="350" y="183" type="curve" smooth="yes"/>
      <point x="350" y="272" type="line"/>
      <point x="235" y="180"/>
      <point x="162" y="188"/>
      <point x="162" y="119" type="curve" smooth="yes"/>
      <point x="162" y="89"/>
      <point x="174" y="64"/>
    </contour>
    <contour>
      <point x="385" y="-85" type="curve" smooth="yes"/>
      <point x="385" y="-15"/>
      <point x="471" y="15"/>
      <point x="540" y="15" type="curve"/>
      <point x="540" y="0" type="line"/>
      <point x="510" y="-6"/>
      <point x="482" y="-36"/>
      <point x="482" y="-64" type="curve" smooth="yes"/>
      <point x="482" y="-88"/>
      <point x="502" y="-112"/>
      <point x="559" y="-120" type="curve"/>
      <point x="546" y="-188" type="line"/>
      <point x="459" y="-188"/>
      <point x="385" y="-136"/>
    </contour>
  </outline>
</glyph>
